<svg id="Layer_1" data-name="Layer 1" xmlns="http://www.w3.org/2000/svg" viewBox="0 0 488.928 287.046"><rect x="244.468" width="244.108" height="243.051" fill="#fec46f"/><path d="M306.863,389.566V147.233c140.864-.718,244.46,113.891,244.46,242.333Z" transform="translate(-62.395 -146.515)" fill="#8b0304"/><polygon points="244.468 135.547 244.468 243.051 259.723 136.961 244.468 135.547" fill="#8b0304"/><polygon points="334.228 185.929 465.512 138.025 345.946 213.597 334.228 185.929" fill="#fec46f"/><polygon points="288.455 145.48 371.847 35.127 314.009 162.513 288.455 145.48" fill="#fec46f"/><polygon points="345.946 212.893 244.468 243.051 334.228 185.929 345.946 212.893" fill="#8b0304"/><polygon points="288.455 145.48 244.468 243.051 259.723 136.258 288.455 145.48" fill="#fec46f"/><polygon points="313.654 162.513 244.468 243.051 288.455 145.48 313.654 162.513" fill="#8b0304"/><polygon points="334.228 185.929 244.468 243.051 314.009 162.513 334.228 185.929" fill="#fec46f"/><polygon points="350.555 243.051 244.468 243.051 345.946 213.25 350.555 243.051" fill="#fec46f"/><rect width="244.468" height="243.051" fill="#8b0304"/><path d="M306.863,389.566V146.879C168.127,146.515,63.107,256.154,62.4,389.566Z" transform="translate(-62.395 -146.515)" fill="#fec46f"/><polygon points="244.468 135.894 244.468 1.067 228.855 136.616 244.468 135.894" fill="#8b0304"/><polygon points="244.468 135.894 244.468 243.051 228.503 136.616 244.468 135.894" fill="#fec46f"/><polygon points="154.705 185.22 20.933 144.767 141.566 213.597 154.705 185.22" fill="#8b0304"/><polygon points="199.749 145.48 114.245 36.904 173.852 162.864 199.749 145.48" fill="#8b0304"/><polygon points="141.566 213.25 244.468 243.051 154.705 184.854 141.566 213.25" fill="#fec46f"/><polygon points="199.402 145.839 244.468 243.051 228.503 136.616 199.402 145.839" fill="#8b0304"/><polygon points="174.215 162.513 244.468 243.051 199.402 145.48 174.215 162.513" fill="#fec46f"/><polygon points="155.404 184.854 244.468 243.051 173.852 162.16 155.404 184.854" fill="#8b0304"/><polygon points="137.667 243.051 244.468 243.051 141.566 213.25 137.667 243.051" fill="#8b0304"/><rect y="243.051" width="488.928" height="43.994" fill="#8b0304"/><polygon points="244.468 135.547 244.468 1.067 260.08 136.961 244.468 135.547" fill="#fec46f"/><path d="M509.725,396.8l-2.573,20.257h5.035L509.939,396.8Zm-404.647.026L102.5,417.076h5.043l-2.256-20.247Zm-2.965-4.109h6.351l5.489,37.778h-4.721l-1.163-9.595h-6.056l-1.36,9.595H96.2l5.913-37.778Zm38.372,3.9v29.989h.96a4.191,4.191,0,0,0,3.021-.806q.767-.8.766-3.323V400.764c0-1.669-.263-2.782-.776-3.323a4.139,4.139,0,0,0-3.011-.821Zm-4.683-3.9h4.928c3.716,0,6.178.695,7.406,2.042s1.827,4.19,1.827,8.462v16.781c0,4.246-.613,7.084-1.827,8.442s-3.706,2.051-7.406,2.051H135.8V392.72Zm41.387,0h4.78V430.5h-4.78V392.72Zm30.768,0h13.479v4h-4.364V430.5h-4.736V396.716h-4.379v-4Zm37.852,0h4.8l3.223,16.756h.3l2.983-16.756h4.425l-5.578,22.054V430.5h-4.711V414.774l-5.433-22.054Zm46.84,4.109-2.573,20.247h5.035l-2.25-20.247Zm-2.966-4.109h6.35l5.489,37.778H296.8L295.64,420.9h-6.056l-1.36,9.595h-4.453l5.912-37.778Zm66.788,19.946v14.117h1.016a4.449,4.449,0,0,0,3.18-.878c.52-.577.806-1.776.806-3.532V417.03c0-1.756-.286-2.945-.8-3.5a4.569,4.569,0,0,0-3.19-.862Zm0-16.143V408.93h.962a3.875,3.875,0,0,0,2.9-.842,5.293,5.293,0,0,0,.769-3.353v-4.073a5.254,5.254,0,0,0-.746-3.318,4.046,4.046,0,0,0-2.927-.821ZM352,392.72h6.3c2.808,0,4.8.5,5.9,1.445,1.133.939,1.7,2.613,1.7,4.869v6.094a6.535,6.535,0,0,1-1.051,3.97,5.238,5.238,0,0,1-3.417,1.684,5.63,5.63,0,0,1,3.679,1.618,6.021,6.021,0,0,1,1.144,3.935v7.86c0,2.266-.585,3.945-1.677,4.874s-3.139,1.429-5.923,1.429H352V392.72Zm42,0h4.779V430.5H394V392.72Zm35.67,3.8v12.693h.957a3.862,3.862,0,0,0,2.922-.868,5.639,5.639,0,0,0,.748-3.44V400.82a5.662,5.662,0,0,0-.748-3.455,4.044,4.044,0,0,0-2.922-.842Zm-4.473-3.8h6.293c2.807,0,4.8.516,5.9,1.445s1.709,2.633,1.709,4.869v6.094a6.708,6.708,0,0,1-1.158,4.251A6.042,6.042,0,0,1,434,411.033a5.776,5.776,0,0,1,4.086,1.612,7.586,7.586,0,0,1,1.156,4.686V430.5h-4.792V417.28c0-1.827-.271-3.022-.735-3.517a4.3,4.3,0,0,0-2.991-.776h-1.054V430.5H425.2V392.72Zm40.983.01h4.675v33.782H477.5V430.5h-11.32V392.73Zm40.575-.02h6.354l5.486,37.768h-4.715l-1.169-9.6h-6.051l-1.362,9.6h-4.454l5.911-37.768Z" transform="translate(-62.395 -146.515)" fill="#fec46f" fill-rule="evenodd"/></svg>