<svg id="Objects" xmlns="http://www.w3.org/2000/svg" viewBox="0 0 205.979 141.958"><ellipse cx="102.99" cy="125.958" rx="102.99" ry="16" fill="#a6afb4"/><path d="M697.594,317.622a26.913,26.913,0,0,0-7.5-3.7c-9.743-3-20.474-.177-30.359-2.673-12.65-3.195-21.575-14.356-33.129-20.417-13.086-6.863-28.784-6.751-43.31-4.038-17.585,3.284-35.431,10.889-45.578,25.622-6.652,9.657-9.3,21.285-10.488,33.082v54.009h182.5V341.6A29.158,29.158,0,0,0,697.594,317.622Z" transform="translate(-516.687 -281.18)" fill="#ddcabc"/><rect x="143.583" y="54.75" width="27.875" height="14.25" fill="#2f3044"/><rect x="143.208" y="55.75" width="28.25" height="14.25" fill="#e8e9eb"/><rect x="80.708" y="21.75" width="64.375" height="39.875" fill="#2f3044"/><path d="M660.9,306.68h-47a2.5,2.5,0,0,1-2.5-2.5V283.805a2.625,2.625,0,0,1,2.625-2.625h46.75a2.625,2.625,0,0,1,2.625,2.625V304.18A2.5,2.5,0,0,1,660.9,306.68Z" transform="translate(-516.687 -281.18)" fill="#2f3044"/><path d="M642.9,306.68h-47a2.5,2.5,0,0,1-2.5-2.5V283.805a2.625,2.625,0,0,1,2.625-2.625h46.75a2.625,2.625,0,0,1,2.625,2.625V304.18A2.5,2.5,0,0,1,642.9,306.68Z" transform="translate(-516.687 -281.18)" fill="#92a1ad"/><path d="M661.021,333.805h-47a2.5,2.5,0,0,1-2.5-2.5V310.93a2.625,2.625,0,0,1,2.625-2.625H660.9a2.625,2.625,0,0,1,2.625,2.625v20.375A2.5,2.5,0,0,1,661.021,333.805Z" transform="translate(-516.687 -281.18)" fill="#2f3044"/><path d="M643.021,333.805h-47a2.5,2.5,0,0,1-2.5-2.5V310.93a2.625,2.625,0,0,1,2.625-2.625H642.9a2.625,2.625,0,0,1,2.625,2.625v20.375A2.5,2.5,0,0,1,643.021,333.805Z" transform="translate(-516.687 -281.18)" fill="#92a1ad"/><rect x="80.583" y="36.125" width="44" height="15.333" fill="#2f3044"/><path d="M660.646,407.43h-47a2.5,2.5,0,0,1-2.5-2.5V337.305a2.625,2.625,0,0,1,2.625-2.625h46.75a2.625,2.625,0,0,1,2.625,2.625V404.93A2.5,2.5,0,0,1,660.646,407.43Z" transform="translate(-516.687 -281.18)" fill="#2f3044"/><polygon points="177.083 72.792 141.25 79.458 141.25 69.125 177.083 69.125 177.083 72.792" fill="#2f3044"/><path d="M643.021,407.555h-47a2.5,2.5,0,0,1-2.5-2.5V337.43a2.625,2.625,0,0,1,2.625-2.625H642.9a2.625,2.625,0,0,1,2.625,2.625v67.625A2.5,2.5,0,0,1,643.021,407.555Z" transform="translate(-516.687 -281.18)" fill="#92a1ad"/><path d="M641.021,338.555H597.187a2,2,0,0,1-2-2v-1.5h47.834v1.5A2,2,0,0,1,641.021,338.555Z" transform="translate(-516.687 -281.18)" fill="#2f3044"/><rect x="84.833" y="56.292" width="1.667" height="2.083" fill="#92a1ad"/><rect x="118.25" y="56.292" width="1.667" height="2.083" fill="#92a1ad"/><rect x="76.833" y="66.292" width="52" height="3.833" fill="#2f3044"/><polygon points="114.083 47.708 60.917 47.708 60.917 49.333 68.583 54.5 121.75 54.5 114.083 49.333 114.083 47.708" fill="#daa520"/><rect x="60.917" y="47.708" width="53.167" height="1.542" fill="#ddcabc"/><polygon points="117.583 47.708 114.083 47.708 114.083 49.333 121.75 54.5 125.25 54.5 125.25 47.75 117.583 47.708" fill="#de7a51"/><rect x="104.208" y="2.75" width="22.625" height="6.5" rx="1.125" fill="#ddcabc"/><rect x="106.208" y="4.375" width="1.375" height="3.25" fill="#da4e8d"/><rect x="109.396" y="4.375" width="1.375" height="3.25" fill="#46baeb"/><rect x="112.583" y="4.375" width="1.375" height="3.25" fill="#daa520"/><rect x="115.771" y="4.375" width="1.375" height="3.25" fill="#2f3044"/><rect x="72.75" y="65.292" width="59.5" height="2" fill="#92a1ad"/><path d="M640.437,372.805H598.854a1.836,1.836,0,0,1-1.834-1.833V354.889a1.836,1.836,0,0,1,1.834-1.834h41.583a1.835,1.835,0,0,1,1.833,1.834v16.083A1.835,1.835,0,0,1,640.437,372.805Zm-41.583-19.25a1.336,1.336,0,0,0-1.334,1.334v16.083a1.335,1.335,0,0,0,1.334,1.333h41.583a1.334,1.334,0,0,0,1.333-1.333V354.889a1.334,1.334,0,0,0-1.333-1.334Z" transform="translate(-516.687 -281.18)" fill="#2f3044"/><path d="M640.437,394.805H598.854a1.836,1.836,0,0,1-1.834-1.833V376.889a1.836,1.836,0,0,1,1.834-1.834h41.583a1.835,1.835,0,0,1,1.833,1.834v16.083A1.835,1.835,0,0,1,640.437,394.805Zm-41.583-19.25a1.336,1.336,0,0,0-1.334,1.334v16.083a1.335,1.335,0,0,0,1.334,1.333h41.583a1.334,1.334,0,0,0,1.333-1.333V376.889a1.334,1.334,0,0,0-1.333-1.334Z" transform="translate(-516.687 -281.18)" fill="#2f3044"/><rect x="123.833" y="74.875" width="1.5" height="2.583" fill="#2f3044"/><rect x="123.833" y="97.25" width="1.5" height="2.583" fill="#2f3044"/><path d="M652.333,321.305c-1.156,0-2.063-1.784-2.063-4.063s.907-4.062,2.063-4.062,2.062,1.784,2.062,4.062S653.489,321.305,652.333,321.305Zm0-7.625c-.755,0-1.563,1.431-1.563,3.562s.808,3.563,1.563,3.563,1.562-1.432,1.562-3.563S653.088,313.68,652.333,313.68Z" transform="translate(-516.687 -281.18)" fill="#92a1ad"/><path d="M660.27,331.305c-.911,0-1.625-1.318-1.625-3s.714-3,1.625-3,1.625,1.317,1.625,3S661.182,331.305,660.27,331.305Zm0-5.5c-.532,0-1.125,1.026-1.125,2.5s.593,2.5,1.125,2.5,1.125-1.027,1.125-2.5S660.8,325.805,660.27,325.805Z" transform="translate(-516.687 -281.18)" fill="#92a1ad"/><path d="M653.77,367.18c-1.612,0-2.875-3.076-2.875-7s1.263-7,2.875-7,2.875,3.075,2.875,7S655.383,367.18,653.77,367.18Zm0-13.5c-1.146,0-2.375,2.612-2.375,6.5s1.229,6.5,2.375,6.5,2.375-2.613,2.375-6.5S654.917,353.68,653.77,353.68Z" transform="translate(-516.687 -281.18)" fill="#92a1ad"/><path d="M659.77,360.305c-.793,0-1.416-.952-1.416-2.166s.623-2.167,1.416-2.167,1.417.952,1.417,2.167S660.565,360.305,659.77,360.305Zm0-3.833c-.5,0-.916.763-.916,1.667s.42,1.666.916,1.666.917-.763.917-1.666S660.268,356.472,659.77,356.472Z" transform="translate(-516.687 -281.18)" fill="#92a1ad"/><path d="M659.77,375.222c-.793,0-1.416-.952-1.416-2.167s.623-2.166,1.416-2.166,1.417.951,1.417,2.166S660.565,375.222,659.77,375.222Zm0-3.833c-.5,0-.916.762-.916,1.666s.42,1.667.916,1.667.917-.764.917-1.667S660.268,371.389,659.77,371.389Z" transform="translate(-516.687 -281.18)" fill="#92a1ad"/><rect x="70.25" y="8.29" width="28.583" height="24.524" fill="#2f3044"/><rect x="72.281" y="10.033" width="24.521" height="21.038" fill="#a4b0bc"/><path d="M588.136,297.851a3.375,3.375,0,0,1,1.581-1.1,20.523,20.523,0,0,1,8.265-1.6c.5.008,1.09.089,1.322.532.245.469-.074,1.026-.4,1.443-3.112,3.974-7.881,6.3-11.361,9.959q.086-3.632.17-7.262A3.673,3.673,0,0,1,588.136,297.851Z" transform="translate(-516.687 -281.18)" fill="#2f3044"/><path d="M574.479,401.115a4.874,4.874,0,0,0-.868-.5c-.5-.255-1.185-.6-1.632-.831a1.844,1.844,0,0,1-.31.49c-2.8.98-5.7,1.769-8.179-1.322-.028.133-.22.512-.252.64a2.023,2.023,0,0,0,.317,1.983,7.011,7.011,0,0,0,1.574.61c1.5.207,2.142.039,3.646.247a24.709,24.709,0,0,0,3.554.435c.624.015,2.466-.133,2.571-.808A1.059,1.059,0,0,0,574.479,401.115Z" transform="translate(-516.687 -281.18)" fill="#2f3044"/><path d="M567.536,395.726l-3.651.021a24.179,24.179,0,0,1-.425,3.525c2.5,3.077,6.085,2.386,8.492,1.047a.924.924,0,0,0,.192-.365,18.57,18.57,0,0,1-3.5-2.146A2.871,2.871,0,0,1,567.536,395.726Z" transform="translate(-516.687 -281.18)" fill="#f27e72"/><path d="M569.729,326.972a41.436,41.436,0,0,1-11.705-1.631c-2.913,4.4-2.644,10.1-2.268,15.369.467,6.53,3.941,14.159,3.348,20.678-1.25,13.75-.141,24.218.762,36.872a15.788,15.788,0,0,0,8.578-1.024c-2.178-12.7,1.5-25.57,3.109-38.357C572.857,348.532,569.784,337.4,569.729,326.972Z" transform="translate(-516.687 -281.18)" fill="#2f3044"/><path d="M571.182,404.43a5.621,5.621,0,0,0-.952-.5c-.544-.254-1.3-.6-1.791-.831a1.8,1.8,0,0,1-.341.49c-3.069.981-6.25,1.769-8.974-1.321-.031.133-.242.511-.277.639-.184.668-.211,1.575.349,1.984a8.252,8.252,0,0,0,1.726.61c1.65.207,2.351.039,4,.246a29.812,29.812,0,0,0,3.9.436c.685.015,2.706-.133,2.821-.808A1.019,1.019,0,0,0,571.182,404.43Z" transform="translate(-516.687 -281.18)" fill="#2f3044"/><path d="M563.609,398.553c.024-.6-.02-1.184-.053-1.784.026-.281.05-.559.076-.839h-4.211c.089.85.155,1.747.184,2.728a22.7,22.7,0,0,1-.519,3.9c2.725,3.091,6.66,2.421,9.311,1.095a.916.916,0,0,0,.213-.364,20.844,20.844,0,0,1-3.823-2.165A2.647,2.647,0,0,1,563.609,398.553Z" transform="translate(-516.687 -281.18)" fill="#ff998b"/><path d="M563.609,398.553c.024-.6-.02-1.184-.053-1.784.026-.281.05-.559.076-.839h-1.218a22.767,22.767,0,0,0,1.884,8.831,10.191,10.191,0,0,0,4.1-1.1.916.916,0,0,0,.213-.364,20.844,20.844,0,0,1-3.823-2.165A2.647,2.647,0,0,1,563.609,398.553Z" transform="translate(-516.687 -281.18)" fill="#f27e72"/><path d="M569.458,327.806c-4.974-.2-10.3,1.987-15.1.666-2,7.5-2.626,8.318-2.25,13.583.466,6.53,4.3,12.98,3.708,19.5-1.25,13.75-.141,24.218.763,36.872,2.88.465,5.84,1.008,8.529-.122-2.178-12.7,1.547-26.473,3.158-39.26C569.565,348.7,569.513,338.235,569.458,327.806Z" transform="translate(-516.687 -281.18)" fill="#de7a51"/><path d="M559.261,398.748c-2.186-7.253-1.615-14.978-1.063-22.451a105.162,105.162,0,0,0,.415-13.808c-.144-2.465-.472-4.956-.791-7.365-.281-2.132-.572-4.337-.735-6.518-.437-5.847.122-10.253,1.757-13.866l.228.1c-1.617,3.573-2.169,7.94-1.735,13.743.162,2.175.452,4.376.733,6.5.319,2.414.648,4.91.793,7.384a105.439,105.439,0,0,1-.415,13.84c-.551,7.45-1.121,15.153,1.053,22.361Z" transform="translate(-516.687 -281.18)" fill="#2f3044"/><path d="M556.75,336.5c5.135-.734,8.49.367,12.727-2.054q0-3.321-.019-6.64c-4.974-.2-10.3,1.987-15.1.666-2,7.5-2.626,8.318-2.25,13.583.466,6.53,4.3,12.98,3.708,19.5-1.25,13.75-.141,24.218.763,36.872.534.086,1.072.172,1.61.253-2.289-11.414-.746-24.633-.629-37.291C557.633,353.06,552.917,344.917,556.75,336.5Z" transform="translate(-516.687 -281.18)" fill="#c15833"/><path d="M566.806,320.092a30.948,30.948,0,0,1-7.3-5.452c-2.037-2.269-3.4-5.339-2.923-8.351a5.106,5.106,0,0,1,1.328-2.84,3.068,3.068,0,0,1,2.914-.865,5.048,5.048,0,0,1,2.418,2.105l8.076,10.91a34.407,34.407,0,0,0,6.288-11.711c.889.017,2.572,1.117,2.667,2s-.45,1.256-.688,2.112c-1.25,4.5-1.152,6.924-2.812,11.138-.345.876-2.722,4.059-3.649,4.224a2.81,2.81,0,0,1-1.855-.582Z" transform="translate(-516.687 -281.18)" fill="#f27e72"/><path d="M590.351,313.709a34.979,34.979,0,0,0-1.158-7.366,14.942,14.942,0,0,1-.111-7.038h-11.4a2.41,2.41,0,0,0-.867,1.68c-.494,3.025.284,6.091.71,9.127a40.058,40.058,0,0,1-.631,14.517l13.232-.062a10.692,10.692,0,0,1-.438-5.411A48.688,48.688,0,0,0,590.351,313.709Z" transform="translate(-516.687 -281.18)" fill="#fff"/><path d="M576.016,303.409c-.248-.435-.553-.96-.311-1.4a1.531,1.531,0,0,1,.669-.517,5.22,5.22,0,0,0,1.731-1.526.482.482,0,0,1,.466.468,1.107,1.107,0,0,1-.243.68,2.929,2.929,0,0,0-.383.626,2.556,2.556,0,0,0,.4,1.817,2.848,2.848,0,0,1,.214,2.082,1.436,1.436,0,0,1-1.683.957A6.619,6.619,0,0,0,576.016,303.409Z" transform="translate(-516.687 -281.18)" fill="#f27e72"/><path d="M555.026,294.837a30.751,30.751,0,0,1-2.2,9.594,20.5,20.5,0,0,1,8.881,1.586c-1.025-3.384-1.937-6.934-1.666-10.5A15.675,15.675,0,0,0,555.026,294.837Z" transform="translate(-516.687 -281.18)" fill="#ff998b"/><path d="M560.039,295.514a16.118,16.118,0,0,0-4.5-.695c.691,3.628,2.864,6.987,4.2,10.488a19.926,19.926,0,0,1,1.967.71C560.68,302.633,559.768,299.083,560.039,295.514Z" transform="translate(-516.687 -281.18)" fill="#f27e72"/><path d="M560.039,295.514a15.793,15.793,0,0,0-4.045-.684,8.311,8.311,0,0,0,4.2,4.8A19.515,19.515,0,0,1,560.039,295.514Z" transform="translate(-516.687 -281.18)" fill="#2f3044"/><path d="M564.763,291.589a12.037,12.037,0,0,1-1.72-1.735,9.463,9.463,0,0,1-.133-2.239,3.353,3.353,0,0,0-2.863-2.566c-2.046-.354-4.592.048-5.611,2.093-1.265,2.537-.846,6.391,1.448,8.236,1.574,1.265,4.359,1.819,6.375,1.935.715.041,1.071-2.25,1.174-2.7.124-.536.289-1.178.375-1.822a4.447,4.447,0,0,0,.953-.4c.12-.07.185-.4.189-.535S564.856,291.687,564.763,291.589Z" transform="translate(-516.687 -281.18)" fill="#ff998b"/><path d="M560.047,285.049c-2.046-.354-4.592.048-5.611,2.093a7.245,7.245,0,0,0,1.075,7.9c.348-.422.724-.829,1.108-1.23a3.953,3.953,0,0,1-.074-3.854c1.021-.511,2.042.294,3.063.908a18.841,18.841,0,0,0,3.128-3.851A3.575,3.575,0,0,0,560.047,285.049Z" transform="translate(-516.687 -281.18)" fill="#f27e72"/><path d="M564.763,291.589a12.037,12.037,0,0,1-1.72-1.735,9.463,9.463,0,0,1-.133-2.239,2.4,2.4,0,0,0-.174-.6c-1.845,3.191-5,5.324-7.225,8.027a4.765,4.765,0,0,0,.373.337c1.574,1.265,4.359,1.819,6.375,1.935.715.041,1.071-2.25,1.174-2.7.124-.536.289-1.178.375-1.822a4.447,4.447,0,0,0,.953-.4c.12-.07.185-.4.189-.535S564.856,291.687,564.763,291.589Z" transform="translate(-516.687 -281.18)" fill="#ff998b"/><path d="M558.675,290.979a.367.367,0,0,1,.055.329c-.055.122-.216.187-.235.319-.029.212.314.3.351.509a.3.3,0,0,1-.154.283,2.83,2.83,0,0,1-.312.141.874.874,0,0,0-.455.54,1.794,1.794,0,0,1-.382-.551.606.606,0,0,1,.1-.631c.128-.125.339-.184.391-.356a.456.456,0,0,1-.579-.183.538.538,0,0,1,.084-.619.655.655,0,0,1,.616-.174A.844.844,0,0,1,558.675,290.979Z" transform="translate(-516.687 -281.18)" fill="#f27e72"/><path d="M562.812,283.93a66.96,66.96,0,0,0-6.954-.249,9.229,9.229,0,0,0-2.6.344l-.263-.017a2.778,2.778,0,0,0-2.739,1.105,6.168,6.168,0,0,0-1.1,2.939c-.158,1.049-.2,2.118-.436,3.152-.294,1.288-.888,2.551-.753,3.867a4.577,4.577,0,0,0,3.138,3.609,10.432,10.432,0,0,0,4.928.218,3.237,3.237,0,0,1-.589-1.78,2.523,2.523,0,0,0,.481.864,1.649,1.649,0,0,0,1.805.526,2.236,2.236,0,0,1-1.433-2.123,3.374,3.374,0,0,1,1.135-2.419.759.759,0,0,0,.3-.444.807.807,0,0,0-.208-.492,2.77,2.77,0,0,1-.24-.485c-.013-.044-.035-.084-.048-.128a4.6,4.6,0,0,1-.18-.9,3.021,3.021,0,0,1,.021-.521,1.1,1.1,0,0,1,.927-.938c.343-.014,1,.507,1.4.863.154-.335.306-.7.456-1.11.345-.94,1.306-1.475,1.875-2.293C562.408,286.535,563.285,285.031,562.812,283.93Z" transform="translate(-516.687 -281.18)" fill="#2f3044"/><path d="M554.738,286.231l-.694.391a9.114,9.114,0,0,0-2.939.016q.2-.466.4-.935c.169.158.443.087.649-.017a.948.948,0,0,1,.652-.176,2.411,2.411,0,0,1,.3.15c.381.169.808-.08,1.151-.318-.01.174.242.231.4.165s.312-.195.484-.169c.212.031.33.281.537.336s.4-.1.579-.209.452-.177.575,0c.049.069.058.159.105.23.13.194.435.12.625-.014s.385-.321.616-.288c.011.261.352.4.6.31a1.267,1.267,0,0,0,.555-.533c-.035.274.311.468.578.395a1.279,1.279,0,0,0,.62-.524l.029,1.052A5.329,5.329,0,0,0,562.053,285a6.3,6.3,0,0,1-2.892,3.743l.639-1.895a3.019,3.019,0,0,1-1.3.787c-.011-.349-.022-.7-.034-1.048l-.849.378c.1-.188-.134-.4-.344-.393a1.214,1.214,0,0,0-.562.272.62.62,0,0,1-.592.116l-.117-.52a1.5,1.5,0,0,1-.727.246A.518.518,0,0,1,554.738,286.231Z" transform="translate(-516.687 -281.18)" fill="#45667c"/><path d="M570.521,332.388c-1.056-3.434-3.1-10.987-2.478-14.468.4-2.245,1.378-4.479.975-6.724a14.44,14.44,0,0,0-1.914-4.279,7.337,7.337,0,0,0-6.4-3.746h-6.22l-1.1.117a6.229,6.229,0,0,0-2.631.677c-1.648,1.017-1.64,3.188-1.172,4.926.9,3.345,2.83,6.409,3.824,9.733.865,2.89-3.807,12.348-.557,15.848C557.663,336,565.422,333.23,570.521,332.388Z" transform="translate(-516.687 -281.18)" fill="#f4e7b0"/><path d="M570.521,332.388c.948-4.044-2.779-9.836-2.99-13.95-.116-2.278,1.89-5,1.487-7.242a14.44,14.44,0,0,0-1.914-4.279,7.337,7.337,0,0,0-6.4-3.746h-6.22l-1.1.117c-.321.034-.646.076-.967.129.147,2.168.7,7.665,2.244,9.208,2.376,2.376,7.819.5,7.225,3.47-.867,4.915-1.763,14.666-.121,18.21C563.745,334.3,568.54,332.716,570.521,332.388Z" transform="translate(-516.687 -281.18)" fill="#e0cc75"/><path d="M557.518,334.981a4.1,4.1,0,0,1-1.534-3.392,27.664,27.664,0,0,1,.411-4.325,24.967,24.967,0,0,0,.4-4.7,29.162,29.162,0,0,0-.6-4.529,22.029,22.029,0,0,1-.528-5.625l.25.012a21.779,21.779,0,0,0,.524,5.567,29.471,29.471,0,0,1,.6,4.564,25.213,25.213,0,0,1-.4,4.746,27.537,27.537,0,0,0-.409,4.287,3.86,3.86,0,0,0,1.414,3.182Z" transform="translate(-516.687 -281.18)" fill="#2f3044"/><path d="M554.19,311.842a7,7,0,0,0,4.673,1.314,17.486,17.486,0,0,0,4.817-1.107,33.43,33.43,0,0,1,4.743-1.432q-.063-.582-.125-1.163c-2.372.4-4.651,1.207-6.977,1.814A16.543,16.543,0,0,1,554.19,311.842Z" transform="translate(-516.687 -281.18)" fill="#2f3044"/><path d="M555.1,300.112q1.645-.135,3.293-.261a4.461,4.461,0,0,1,2.02.157c1.215.492,1.737,1.9,2.125,3.148-2.569-.116-6.218.566-10.548.463.2-.794.852-2.658,1.535-3.108A3.3,3.3,0,0,1,555.1,300.112Z" transform="translate(-516.687 -281.18)" fill="#fff"/><path d="M566.875,302.317q-1.935-.109-3.854-.342a35.424,35.424,0,0,0-6.661-.483c-2.078.139-4.532.777-5.8,2.574a2.81,2.81,0,0,0-.52,1.269c-.25,2,2.853,6.251,4.422,6.707,4.729,1.373,8.72-1.2,13.656-2.049A12.023,12.023,0,0,0,566.875,302.317Z" transform="translate(-516.687 -281.18)" fill="#f4e7b0"/><path d="M567.394,310.522l-.249-.038a14.216,14.216,0,0,0-1.216-8.17l.226-.108A14.488,14.488,0,0,1,567.394,310.522Z" transform="translate(-516.687 -281.18)" fill="#2f3044"/><path d="M593.57,296.783c.048-.322.4-.573.649-.76a1.181,1.181,0,0,0,.4-.392c.194-.254.421-.695.223-.948-1.155.247-1.188.942-2.4,1.363a.963.963,0,0,0-.647.75,3.492,3.492,0,0,1-1.183,2.1,59.182,59.182,0,0,1-23.74,3.418,12.023,12.023,0,0,1,1.239,7.676c1.292-.221,2.577-.46,3.845-.689,6.115-1.1,9.678-3.038,15.418-5.416a40.3,40.3,0,0,0,3.94-1.977,6.478,6.478,0,0,1,1.155-.437c.333-.09,1.424-.163,1.883-.215a2.015,2.015,0,0,0,1.132-.548c.465-.431.863-.731.512-1.207.269-.274.566-.406.665-.677s0-.4-.194-.608a.629.629,0,0,0,.288-.6,1.079,1.079,0,0,0-.614-.64,20.184,20.184,0,0,1,2.069-.814c.6-.287,1.172-.325,1.287-1A32.419,32.419,0,0,0,593.57,296.783Z" transform="translate(-516.687 -281.18)" fill="#ff998b"/><path d="M568.114,309.993c1.292-.221,2.577-.46,3.845-.689,6.115-1.1,9.678-3.038,15.419-5.416.456-.189,1.262-.562,2.173-1.026-7.239,1.926-14.216,4.379-21.29,4.674A13.421,13.421,0,0,1,568.114,309.993Z" transform="translate(-516.687 -281.18)" fill="#f27e72"/></svg>