<svg xmlns="http://www.w3.org/2000/svg" viewBox="0 0 500 500"><g id="BACKGROUND"><rect width="500" height="500" fill="#fff"/></g><g id="OBJECTS"><path d="M430.53,409.572c47.49-36.11,68.64-136.24-8.47-185.34-51.05-32.5-82.8-13.96-140.23-35.46-70.11-26.24-80.56-105.52-165.84-66.51-45.18,20.66-76.5,78.89-82.01,145.07-5.4,64.81,17.57,109.28,64.51,139.71C208.72,411.732,319.17,410.882,430.53,409.572Z" fill="#dff3fc"/><path d="M235.432,124.76c-7.173,28.8,19.464,57.31,47.526,69.13s60.243,10.42,90.307,4.78c12.972-2.43,26.306-5.85,36.384-14.12s15.92-22.63,10.4-34.23c-4.874-10.23-16.74-15.47-28.052-18.16s-23.327-3.79-33.405-9.45c-9.556-5.37-16.335-14.26-24.646-21.3-15.356-12.99-36.927-19.43-56.891-15.32S241.529,100.28,235.432,124.76Z" fill="#dff3fc"/><path d="M450.3,257.226V235.439h-8.262a42.266,42.266,0,0,0-4.442-10.71l5.841-5.851L428.025,203.47l-5.851,5.842a42.284,42.284,0,0,0-10.71-4.443v-8.261H389.676v8.261a42.277,42.277,0,0,0-10.709,4.443l-5.851-5.842-15.408,15.408,5.842,5.851a42.6,42.6,0,0,0-4.443,10.71h-8.261v21.787h8.261a42.6,42.6,0,0,0,4.443,10.71l-5.842,5.851,15.408,15.407,5.851-5.841a42.606,42.606,0,0,0,10.709,4.443v8.261h21.788V287.8a42.613,42.613,0,0,0,10.71-4.443l5.851,5.841,15.407-15.407-5.841-5.851a42.266,42.266,0,0,0,4.442-10.71Zm-49.719,7.983a18.877,18.877,0,1,1,18.871-18.882A18.883,18.883,0,0,1,400.576,265.209Z" fill="#a2c7eb"/><path d="M384.455,311.817l-4.145-10.805-4.1,1.572a22.444,22.444,0,0,0-4.24-4.466l1.783-4.013-10.572-4.71-1.79,4.01a22.462,22.462,0,0,0-6.157-.165l-1.571-4.1-10.806,4.145,1.572,4.1a22.447,22.447,0,0,0-4.466,4.241l-4.013-1.784-4.71,10.572,4.011,1.791a22.609,22.609,0,0,0-.166,6.156l-4.1,1.572,4.145,10.805,4.1-1.572a22.647,22.647,0,0,0,4.241,4.466l-1.784,4.013,10.573,4.71,1.79-4.01a22.651,22.651,0,0,0,6.156.165l1.572,4.1,10.805-4.145-1.571-4.1a22.645,22.645,0,0,0,4.466-4.241l4.013,1.784,4.709-10.572-4.01-1.791a22.453,22.453,0,0,0,.166-6.156Zm-23.138,13.419a10.027,10.027,0,1,1,5.766-12.955A10.031,10.031,0,0,1,361.317,325.236Z" fill="none" stroke="#a2c7eb" stroke-miterlimit="10"/><path d="M349.053,273.916l-2.8-7.3-2.768,1.063a15.2,15.2,0,0,0-2.866-3.018l1.206-2.712-7.144-3.182-1.21,2.71a15.177,15.177,0,0,0-4.16-.112l-1.062-2.769-7.3,2.8,1.062,2.769a15.165,15.165,0,0,0-3.018,2.865l-2.712-1.2-3.182,7.144,2.71,1.209a15.3,15.3,0,0,0-.112,4.16l-2.768,1.062,2.8,7.3,2.769-1.062a15.272,15.272,0,0,0,2.865,3.017l-1.205,2.712,7.144,3.182,1.209-2.709a15.3,15.3,0,0,0,4.16.112l1.062,2.768,7.3-2.8-1.062-2.768a15.277,15.277,0,0,0,3.017-2.866l2.712,1.206,3.182-7.144-2.709-1.21a15.177,15.177,0,0,0,.112-4.16Zm-15.634,9.067a6.775,6.775,0,1,1,3.9-8.753A6.778,6.778,0,0,1,333.419,282.983Z" fill="none" stroke="#a2c7eb" stroke-miterlimit="10"/><path d="M346.511,146.088a34.426,34.426,0,1,1-34.426-34.426A34.391,34.391,0,0,1,346.511,146.088Z" fill="#0097d8" stroke="#0097d8" stroke-miterlimit="10"/><circle cx="312.085" cy="134.757" r="11.269" transform="translate(-14.159 39.25) rotate(-7.037)" fill="#fff"/><path d="M333.433,168.759a34.449,34.449,0,0,1-42.7,0c2.2-9.687,4.228-18.05,6.337-20.17,2.978-2.977,10.886-4.714,15-4.714s12.4,2.109,13.925,3.639C329.122,150.626,331.81,159.217,333.433,168.759Z" fill="#fff"/><path d="M262.61,230.952v-17a8.4,8.4,0,0,1,8.4-8.4h53.56a8.4,8.4,0,0,1,8.4,8.4v17a8.4,8.4,0,0,1-8.4,8.4H271.02A8.4,8.4,0,0,1,262.61,230.952Z" fill="#0097d8"/><polyline points="285.23 230.062 259.31 255.312 301.32 234.082" fill="#0097d8"/><path d="M269.11,213.532v-.09a1.25,1.25,0,0,1,1.25-1.25h26.48a1.25,1.25,0,0,1,1.25,1.25v.09a1.25,1.25,0,0,1-1.25,1.25H270.36A1.25,1.25,0,0,1,269.11,213.532Z" fill="#fff"/><path d="M299.28,213.532v-.09a1.25,1.25,0,0,1,1.25-1.25h23.11a1.25,1.25,0,0,1,1.25,1.25v.09a1.25,1.25,0,0,1-1.25,1.25H300.53A1.25,1.25,0,0,1,299.28,213.532Z" fill="#fff"/><path d="M289.19,219.222v-.09a1.25,1.25,0,0,1,1.25-1.25h33.2a1.25,1.25,0,0,1,1.25,1.25v.09a1.25,1.25,0,0,1-1.25,1.25h-33.2A1.25,1.25,0,0,1,289.19,219.222Z" fill="#fff"/><path d="M269.11,219.222v-.09a1.25,1.25,0,0,1,1.25-1.25h14.83a1.25,1.25,0,0,1,1.25,1.25v.09a1.25,1.25,0,0,1-1.25,1.25H270.36A1.25,1.25,0,0,1,269.11,219.222Z" fill="#fff"/><path d="M293.8,224.912v-.09a1.25,1.25,0,0,1,1.25-1.25h28.59a1.25,1.25,0,0,1,1.25,1.25v.09a1.25,1.25,0,0,1-1.25,1.25H295.05A1.25,1.25,0,0,1,293.8,224.912Z" fill="#fff"/><path d="M269.11,224.912v-.09a1.25,1.25,0,0,1,1.25-1.25h19.75a1.25,1.25,0,0,1,1.25,1.25v.09a1.25,1.25,0,0,1-1.25,1.25H270.36A1.25,1.25,0,0,1,269.11,224.912Z" fill="#fff"/><path d="M269.11,230.6v-.09a1.25,1.25,0,0,1,1.25-1.25h7.33a1.25,1.25,0,0,1,1.25,1.25v.09a1.25,1.25,0,0,1-1.25,1.25h-7.33A1.25,1.25,0,0,1,269.11,230.6Z" fill="#fff"/><path d="M281.53,230.6v-.09a1.25,1.25,0,0,1,1.25-1.25h40.86a1.25,1.25,0,0,1,1.25,1.25v.09a1.25,1.25,0,0,1-1.25,1.25H282.78A1.25,1.25,0,0,1,281.53,230.6Z" fill="#fff"/><circle cx="100.368" cy="192.915" r="33.12" transform="translate(-116.882 202.527) rotate(-65.047)" fill="#0097d8"/><circle cx="92.563" cy="209.171" r="8.026" transform="translate(-64.087 42.494) rotate(-19.353)" fill="#fff"/><polygon points="88.349 212.051 87.961 206.961 92.176 204.081 96.778 206.29 97.165 211.38 92.951 214.261 88.349 212.051" fill="#0097d8"/><circle cx="108.173" cy="176.659" r="8.026" transform="translate(-53.155 46.723) rotate(-19.671)" fill="#fff"/><polygon points="104.192 179.054 104.468 172.582 109.345 168.319 113.947 170.529 113.671 177.001 108.793 181.263 104.192 179.054" fill="#0097d8"/><path d="M98.122,205.461l-6.14-2.948,4.537-10.467q.432-1,.94-1.956L102.789,180l6.14,2.948-4.376,10.307q-.507,1.2-1.124,2.342Z" fill="#fff"/><path d="M123.374,210.734c1.184-.548,20.186.318,20.186.318l-13.7-12.576Z" fill="#0097d8"/><circle cx="177.363" cy="123.988" r="32.553" transform="translate(-6.852 237.547) rotate(-66.607)" fill="#0097d8"/><rect x="176.276" y="96.247" width="2.174" height="27.338" fill="#fff"/><rect x="164.265" y="118.51" width="2.174" height="27.71" transform="translate(150.623 343.658) rotate(-124.69)" fill="#fff"/><path d="M180.359,123.988a3,3,0,1,1-3-3A3,3,0,0,1,180.359,123.988Z" fill="#fff"/><path d="M265.74,344.412c-1.93-29.76,11.09-60.56,33.02-78.18C299.44,296.142,286.55,326.412,265.74,344.412Z" fill="#a2c7eb"/><path d="M295.18,274.242a394.734,394.734,0,0,0-23.87,53.83c-8.07,22.57-14.42,46.55-28.24,65.47" fill="none" stroke="#6f8bbf" stroke-linecap="round" stroke-miterlimit="10"/><path d="M258.82,363.132c11.1-24.83,33.13-43.59,57.42-48.9C305.9,340.842,282.64,361.142,258.82,363.132Z" fill="#a2c7eb"/><path d="M310.28,319.7q-24.885,21.9-50.61,42.56" fill="none" stroke="#6f8bbf" stroke-linecap="round" stroke-miterlimit="10"/><path d="M252.27,384.762c14.83-22.15,42.19-33.71,64.83-27.39C300.45,379.242,273.03,390.832,252.27,384.762Z" fill="#a2c7eb"/><path d="M311.67,358.972a215.857,215.857,0,0,1-62.03,26.54" fill="none" stroke="#6f8bbf" stroke-linecap="round" stroke-miterlimit="10"/><path d="M260.28,355.6c4.74-24.94-2.37-52.74-18.2-71.13C235.59,308.982,241.78,337.7,260.28,355.6Z" fill="#a2c7eb"/><path d="M243.71,290.832A269.979,269.979,0,0,0,260.98,357" fill="none" stroke="#6f8bbf" stroke-linecap="round" stroke-miterlimit="10"/><path d="M252.14,376.842c-2.02-25.64-15.16-49.72-34.38-63.01a109.573,109.573,0,0,0,10.45,38.57C234.8,366.072,244.48,374.742,252.14,376.842Z" fill="#a2c7eb"/><path d="M220.61,319.022a203.692,203.692,0,0,0,32.01,58.36" fill="none" stroke="#6f8bbf" stroke-linecap="round" stroke-miterlimit="10"/><path d="M400.57,370.692c10.49-27.29,34.62-49.43,61.23-56.17C450.14,341.442,426.34,363.142,400.57,370.692Z" fill="#a2c7eb"/><path d="M455.35,320.192a387.736,387.736,0,0,0-43.16,38.21c-16.38,16.82-31.83,35.58-51.8,46.8" fill="none" stroke="#6f8bbf" stroke-linecap="round" stroke-miterlimit="10"/><path d="M386.78,384.542c19.99-17.59,47.15-25.31,70.79-20.13C437.53,383.9,408.65,392.492,386.78,384.542Z" fill="#a2c7eb"/><path d="M450.06,366.862q-30.975,9.36-62.18,17.26" fill="none" stroke="#6f8bbf" stroke-linecap="round" stroke-miterlimit="10"/><path d="M372.12,401.142c22.19-13.68,51.11-12.81,68.53,2.06C416.97,415.882,387.98,415.012,372.12,401.142Z" fill="#a2c7eb"/><path d="M435.2,402.4a209.064,209.064,0,0,1-65.7-1.67" fill="none" stroke="#6f8bbf" stroke-linecap="round" stroke-miterlimit="10"/><path d="M391.16,378.432c14.41-20.28,19.52-47.95,13.07-70.79C388.44,326.822,382.14,354.932,391.16,378.432Z" fill="#a2c7eb"/><path d="M403.06,313.962a265.893,265.893,0,0,0-11.85,66" fill="none" stroke="#6f8bbf" stroke-linecap="round" stroke-miterlimit="10"/><path d="M375.26,394.032c8.72-23.66,6.98-50.48-4.56-70.16a108.18,108.18,0,0,0-6.57,38.62C364.34,377.352,369.34,389.032,375.26,394.032Z" fill="#a2c7eb"/><path d="M371.08,329.652a200.538,200.538,0,0,0,4.37,65.05" fill="none" stroke="#6f8bbf" stroke-linecap="round" stroke-miterlimit="10"/><path d="M103.267,322.978C92.573,290.269,62.73,263.84,28.013,256.339,42.609,284.637,69.082,307.158,103.267,322.978Z" fill="#a2c7eb"/><path d="M105.078,328.052a98.924,98.924,0,0,0-78.218-7.794A110.454,110.454,0,0,0,105.078,328.052Z" fill="#a2c7eb"/><path d="M111.557,335.145c-25.317-3.508-51.829,2.732-72.389,17.037C62.482,360.657,90.453,355.161,111.557,335.145Z" fill="#a2c7eb"/><path d="M119.451,350.64c-25.071-.1-49.721,11.811-64.458,31.157a55.11,55.11,0,0,0,33.243-3.736C98.473,373.425,107.049,365.514,119.451,350.64Z" fill="#a2c7eb"/><path d="M137.126,376.565c-24.721-4.238-51.061,3.422-68.887,20.037a55.354,55.354,0,0,0,33.439,1.816C112.564,395.548,122.365,389.173,137.126,376.565Z" fill="#a2c7eb"/><path d="M110.437,324.528c-16.324-22-20.755-51.653-11.48-76.878,7.082,11.994,13.192,24.674,16.045,38.151S117.3,313.65,110.437,324.528Z" fill="#a2c7eb"/><path d="M120.41,345.756a75.834,75.834,0,0,1,21.01-65.083C143.363,304.858,135.963,329.5,120.41,345.756Z" fill="#a2c7eb"/><path d="M35.613,262.2c49.684,31.789,88.54,79.172,109.051,133.006" fill="none" stroke="#6f8bbf" stroke-linecap="round" stroke-miterlimit="10"/><path d="M100.5,259.25a394.21,394.21,0,0,1,10.964,74.719" fill="none" stroke="#6f8bbf" stroke-linecap="round" stroke-miterlimit="10"/><path d="M137.708,290.165a145.576,145.576,0,0,1-17.872,56.577" fill="none" stroke="#6f8bbf" stroke-linecap="round" stroke-miterlimit="10"/><path d="M37.318,320.829a402.022,402.022,0,0,0,69.086,7.024" fill="none" stroke="#6f8bbf" stroke-linecap="round" stroke-miterlimit="10"/><path d="M51.044,350.237a185.473,185.473,0,0,0,60.766-14.972" fill="none" stroke="#6f8bbf" stroke-linecap="round" stroke-miterlimit="10"/><path d="M63.627,378.266q29.07-14.5,58.143-29.013" fill="none" stroke="#6f8bbf" stroke-linecap="round" stroke-miterlimit="10"/><path d="M76.232,395.337c25.3-4.882,32.821-10.708,60.905-18.77" fill="none" stroke="#6f8bbf" stroke-linecap="round" stroke-miterlimit="10"/><path d="M236.42,348.992s2.19,20.07,4.64,21.68c4.38,2.89,55.08,9.57,55.08,9.57l-1.66,13.19s-69.44,6.24-72.39,2.77c-5.12-6.02-14.12-35.06-14.12-35.06Z" fill="#e06a58"/><path d="M202.94,297.322l5.61-13.47s15.22,7.15,20.24,15.98c5.37,9.44,11.94,59.63,11.94,59.63s-26.87,6.19-31.81,3.56S202.94,297.322,202.94,297.322Z" fill="#f2ae30"/><path d="M160.21,234.8c-3.93-1.44-8.09-2.7-12.3-2.38s-8.51,2.55-9.94,6.25c-1.02,2.62-.55,5.71-2.16,8.07-1.54,2.26-4.6,3.2-7.46,3.39s-5.76-.18-8.61.19c-8.8,1.17-15.08,10.73-12.19,18.56,1.15,3.12,3.51,6.1,2.97,9.35-.57,3.48-4.22,5.77-5.72,9-1.99,4.3.39,9.51,4.32,12.44s9.04,4.03,14,4.77c6.83,1.02,13.88,1.5,20.63.06s13.2-5,16.69-10.56c1.55-2.46,2.49-5.24,4.29-7.55,3.72-4.77,10.31-6.62,15.5-10,5.67-3.71,9.83-10.93,6.49-16.58-3.22-5.43-11.6-6.64-14.96-11.99-1.39-2.21-1.72-4.84-2.62-7.25C168.22,238.152,166.02,236.932,160.21,234.8Z" fill="#0a2240"/><path d="M183.11,301.412c.99,1.14,2.16,2.39,3.78,2.5,1.71.12,3.14-1.09,4.24-2.26a43.04,43.04,0,0,0,10.95-21c-1.41-.8-2.77-1.57-4-2.29a6.073,6.073,0,0,1-2.49-2.74,5.264,5.264,0,0,1-.37-2.58,73.743,73.743,0,0,1,4.15-19.34c-12.54-2.83-24.37-6.19-31.17-11.87-.83,3.5-1.81,10.35-3.9,17.14-2.23,7.19-5.71,14.3-11.61,17.36A124.417,124.417,0,0,1,183.11,301.412Z" fill="#f9a07b"/><path d="M195.22,273.052a5.247,5.247,0,0,0,.37,2.58c-7.42,9-24.01-2.76-31.29-16.65,2.09-6.79,3.07-13.64,3.9-17.14,6.79,5.68,18.63,9.05,31.17,11.87A73.658,73.658,0,0,0,195.22,273.052Z" fill="#e06a58"/><path d="M215.88,381.852c-1.64,10.86,10.08,22.55,10.37,28.35-24.89,0-77.03,1.52-103.58-2.09-1.21-6.7,11.9-21.77,11.9-36.65,0-1.97-.08-4.13-.24-6.45-.42-6.64-1.4-14.54-2.49-22.64-2.96-21.73-6.9-44.97-3.99-49.79,5.7-9.39,19.03-15.77,25.64-18.51,2.27-.94,3.75-1.45,3.86-1.51,8.29,14.14,25.16,26.2,31.53,25.66,1.77-.14,7.02-1.97,10.49-19.44,1.35.77,2.7,1.48,4.04,2.17,6.59,3.43,12.77,6.26,14.55,10.67,4.7,11.61,9.31,40.88,8.29,51.291-1.03,10.5-5.25,18.519-8.21,29.059-.69,2.47-1.32,5.09-1.83,7.91C216.08,380.512,215.98,381.172,215.88,381.852Z" fill="#ffc73c"/><path d="M226.25,410.2c-24.89,0-77.03,1.52-103.58-2.09-1.21-6.7,11.9-21.77,11.9-36.65,0-1.97-.08-4.13-.24-6.45-.42-6.64-1.4-14.54-2.49-22.64,4.71,4.97,11.58-16.03,14.62-9.88,16.45,33.2,29.42,41.93,51.96,41.93a86.538,86.538,0,0,0,19.62-2.45c-.69,2.47-1.32,5.09-1.83,7.91q-.18.96-.33,1.98C214.24,392.7,225.96,404.392,226.25,410.2Z" fill="#fb3"/><path d="M203.41,280.952c-1.07,7.77-4.24,18.24-13.46,21-12.46,3.73-30.49-19.55-36.46-27.88,2.27-.94,3.75-1.45,3.86-1.51,8.29,14.14,25.16,26.2,31.53,25.66,1.77-.14,7.02-1.97,10.49-19.44C200.72,279.542,202.07,280.252,203.41,280.952Z" fill="#fce172"/><polygon points="208.53 398.512 208.44 407.182 363.44 408.102 363.76 398.272 208.53 398.512" fill="#325f73"/><polygon points="430.62 321.162 427.17 317.662 314.27 316.922 257.63 398.832 260.59 401.212 430.62 321.162" fill="#325f73"/><polygon points="316.45 319.952 260.59 401.212 367.29 401.742 430.62 321.162 316.45 319.952" fill="#0b2d50"/><ellipse cx="343.41" cy="365.612" rx="12.42" ry="6.21" fill="#3c738c"/><ellipse cx="222.099" cy="241.836" rx="17.39" ry="11.47" transform="translate(-56.332 415.872) rotate(-79.444)" fill="#56c4f9"/><path d="M233.39,214.3c-1.16,8.22-4.83,17.28-10.18,27.29-1.88-8.2-3.08-18.19-4.74-28.18-1.69-10.01-3.84-20.02-7.57-28.2a48.957,48.957,0,0,0-2.74-5.14,18.247,18.247,0,0,1,6.58.59,22.046,22.046,0,0,1,9,4.91,31.556,31.556,0,0,1,8.77,14.33A32.159,32.159,0,0,1,233.39,214.3Z" fill="#0b2d50"/><path d="M227.11,222.8c-.06,1.62-.17,3.27-.32,4.91-2.28,26.6-13.45,44.85-30.54,44.85-24.13,0-39.77-27.06-39.77-53.57,0-26.15,16.02-45.08,34.77-42.89,10.81,1.24,18.71,4.83,24.32,10.09a33.147,33.147,0,0,1,8.22,12.54,54.825,54.825,0,0,1,3.31,18.06c0,.02.02.04.02.06C227.2,218.792,227.18,220.772,227.11,222.8Z" fill="#f9a07b"/><path d="M227.11,222.8a26.733,26.733,0,0,0-3.25-7.33,75.934,75.934,0,0,1-47.27,7.59c-3.06,2.55-6.05,5.06-9.06,7.57.06-12.1.23-20.29,4.95-26.15,4.43-5.5,11.82-7.57,18.82-8.47a87.053,87.053,0,0,1,23.75.15,24.034,24.034,0,0,1,8.75,2.59,54.825,54.825,0,0,1,3.31,18.06c0,.02.02.04.02.06C227.2,218.792,227.18,220.772,227.11,222.8Z" fill="#e06a58"/><path d="M230.59,206.422a44.577,44.577,0,0,1-12.12,7c-13.26,5.35-30.49,7.12-43.92,6.47-6.6,14.5-9.27,19.7-10.96,32.35-6.45-6.05-11.7-17.13-13.26-25.84a59.1,59.1,0,0,1,1.03-26.32,39.364,39.364,0,0,1,20.08-24.15,37.742,37.742,0,0,1,4.32-2c8.51-3.29,18.1-2.99,26.83-.32a31.954,31.954,0,0,1,12.14,7.06c6.81,6.15,11.02,14.48,13.74,20.72C229.33,203.3,230.02,205.032,230.59,206.422Z" fill="#0b2d50"/><path d="M233.39,214.3a40.714,40.714,0,0,0-2.53-8.45,29.116,29.116,0,0,0-2.38-4.47,24.511,24.511,0,0,0-12.77-10.41,46.992,46.992,0,0,0-4.8-5.75,37.041,37.041,0,0,0-20.67-10.9,39.269,39.269,0,0,0-18.78,1.6,37.742,37.742,0,0,1,4.32-2c8.51-3.29,18.1-2.99,26.83-.32a31.954,31.954,0,0,1,12.14,7.06,22.046,22.046,0,0,1,9,4.91,31.556,31.556,0,0,1,8.77,14.33A32.3,32.3,0,0,1,233.39,214.3Z" fill="#225570"/><path d="M182.24,230.612c4.46-2.55,9.09-3.7,15.58-1.33" fill="none" stroke="#0b2d50" stroke-linecap="round" stroke-miterlimit="10" stroke-width="2"/><path d="M212.78,230.432c3.82-2.85,9.48-3.14,12.43,0" fill="none" stroke="#0b2d50" stroke-linecap="round" stroke-miterlimit="10" stroke-width="2"/><path d="M208.17,244.972c.39,2.02.18,6.49-.78,8.5" fill="none" stroke="#cc454e" stroke-linecap="round" stroke-miterlimit="10" stroke-width="2"/><ellipse cx="193.1" cy="243.432" rx="1.84" ry="2.9" fill="#262d40"/><ellipse cx="217.15" cy="242.082" rx="1.84" ry="2.9" fill="#262d40"/><path d="M205.89,257.422a14.134,14.134,0,0,1-1.05,1.65,11.42,11.42,0,0,1-5.43,4.23h-.01a7.091,7.091,0,0,1-3.49.23c-3.76-.67-4.75-4.14-4.93-6.81a14.294,14.294,0,0,1-.03-1.44,13.63,13.63,0,0,1,.14-1.8C197.08,256.782,205.89,257.422,205.89,257.422Z" fill="#cc454e"/><path d="M205.89,257.422a14.134,14.134,0,0,1-1.05,1.65c-3.06-.04-9.32-1.61-13.89-3.79a13.63,13.63,0,0,1,.14-1.8C197.08,256.782,205.89,257.422,205.89,257.422Z" fill="#fff"/><path d="M199.4,263.292a7.091,7.091,0,0,1-3.49.23c-3.76-.67-4.75-4.14-4.93-6.81a10.239,10.239,0,0,1,8.42,6.58Z" fill="#e8729b"/><path d="M163.65,226.022a69.128,69.128,0,0,1,4.98-24.86c6.51-15.55,19.78-22.2,32.65-22.65a35.068,35.068,0,0,1,25.22,9.86s-5.05-8.91-15.01-11.47c-6.54-1.68-16.41-1.95-24.33,1.27-8.16,3.31-18.33,12.5-22.01,22.21s-5.46,24.83-5.46,24.83Z" fill="#3d86e0"/><ellipse cx="161.498" cy="240.27" rx="12.09" ry="18.319" transform="matrix(0.995, -0.103, 0.103, 0.995, -23.98, 17.988)" fill="#56c4f9"/><ellipse cx="158.283" cy="241.599" rx="7.85" ry="13.81" transform="translate(-34.144 26.203) rotate(-8.546)" fill="#3d86e0"/><ellipse cx="201.38" cy="268.922" rx="6.44" ry="4.01" fill="#3a92c9"/><path d="M169.03,255.512s9.46,12.16,25.91,13.41" fill="none" stroke="#3a92c9" stroke-linecap="round" stroke-miterlimit="10" stroke-width="2"/><path d="M208.44,375.362l-.62,15.99s-57.83,17.33-67.38,11.85c-4.66-2.68-9.01-17.42-12.26-31.81-3.4-15.12-5.58-29.84-5.58-29.84l33.9-6.64s.02,20.67,1.17,32.62c.41,4.45,1,7.69,1.79,8.22C162.45,377.722,208.44,375.362,208.44,375.362Z" fill="#f9a07b"/><path d="M157.67,367.512c-6.16,2-18.05,5.09-29.49,3.87-3.4-15.12-5.58-29.84-5.58-29.84l33.9-6.64C156.5,334.892,156.52,355.562,157.67,367.512Z" fill="#e06a58"/><path d="M206.79,375.522c8.6-1.84,23.16-6.26,29.2-7.78,4.29-1.08,15.46,4.7,18.41,10.15,1.29,2.38,2.51,15.86-1.96,14.47-2.24-.7-1.87-6.48-2.57-8.84-.57-1.92-2.39-3.78-5.16-5.38,1.85,4.61,1.78,8.63,1.58,13.61a7.057,7.057,0,0,1-.64,3.2,2.3,2.3,0,0,1-2.7,1.21c-1.02-.42-1.37-1.69-1.6-2.8a91.033,91.033,0,0,1-1.91-12.02c.08,4.27-.01,8.55-.28,12.81-.2,3.26-1.82,5.05-3.81,4.48-.89-.25-1.25-1.07-1.63-2.15-.6,2.09-2.1,4.4-4.04,3.52-1.18-.53-1.91-4.79-1.7-9.17a25.66,25.66,0,0,1-12.76,3.51c-4.34.2-8.78-.61-11.39-3.56A76.719,76.719,0,0,1,206.79,375.522Z" fill="#f9a07b"/><path d="M233.81,395.822a30.575,30.575,0,0,0-.89-10.31" fill="none" stroke="#cc454e" stroke-linecap="round" stroke-miterlimit="10"/><path d="M152.69,301.372c-2.46-6.93-11.47-21.11-11.47-21.11s-13.75,5.72-18.63,15.43c-8.26,16.44-4.06,63.64-4.06,63.64,11.13,4.66,33.47,4.73,42.98,3.39C161.51,362.722,157.62,315.222,152.69,301.372Z" fill="#ffc73c"/><path d="M154.44,304.272a305.747,305.747,0,0,1,6.4,51.09" fill="none" stroke="#f2ae30" stroke-linecap="round" stroke-miterlimit="10"/><rect x="54.46" y="405.252" width="394.28" height="9.89" fill="#0b2d50"/></g></svg>