<svg id="Layer_3" data-name="Layer 3" xmlns="http://www.w3.org/2000/svg" viewBox="0 0 699.555 602.209"><rect x="3" y="10.347" width="686.208" height="588.862" fill="none" stroke="gray" stroke-miterlimit="10" stroke-width="6"/><rect x="10.347" y="3" width="686.208" height="588.862" fill="none" stroke="#1a1a1a" stroke-miterlimit="10" stroke-width="6"/><path d="M210.626,767.226V252.9H330.389l179.279,475.38h9.551V252.9H580.2V767.226H460.439L281.9,291.11H271.61V767.226Z" transform="translate(-176.48 -200.632)" fill="gray"/><path d="M522.527,767.226V252.9h310.8v42.615H569.551v192.5h243.2v42.616h-243.2V724.61H836.264v42.616Z" transform="translate(-176.48 -200.632)" fill="gray"/><path d="M219.806,752.531V238.209H339.569L518.848,713.59h9.55V238.209h60.985V752.531H469.619L291.076,276.416H280.79V752.531Z" transform="translate(-176.48 -200.632)" fill="#333"/><path d="M531.709,752.531V238.209h310.8v42.616H578.732v192.5h243.2v42.615h-243.2V709.916H845.445v42.615Z" transform="translate(-176.48 -200.632)" fill="#333"/></svg>