<svg id="_лой_1" data-name="‘лой_1" xmlns="http://www.w3.org/2000/svg" viewBox="0 0 2896.097 1368.74"><path d="M2990.411,1568.475c-.395,1.217-.811,2.435-1.218,3.665q-5.318,15.586-11.709,31.646-.887,2.238-1.81,4.478-7.785,19.125-17.217,38.943c0,.011,0,.011-.011.022-.065.154-.142.318-.219.472l-2671.85,3.632c.626-10.687-244.032-356.112,11.972-692.3S853.68,804.017,915.1,567.468c13.267-51.113,34.62-94.2,62.031-130.043q2.173-2.882,4.445-5.685,5.76-7.226,11.862-14.034,1.7-1.893,3.4-3.753a335.864,335.864,0,0,1,32.931-31.131c2.326-1.92,4.674-3.819,7.056-5.673h.01C1179.057,265.87,1402.6,270.621,1562.3,336.8c212.079,87.884,600.244-64.874,931.92,46.745q8.247,2.766,16.437,5.772h.012q17.232,6.288,34.214,13.6a358.357,358.357,0,0,1,65.038,35.97c2.678,1.887,5.3,3.808,7.868,5.739h.022c229.767,173.354,25.5,536.841,144.176,593.046,74.464,35.267,184.394,114.461,231.941,243.034q.9,2.452,1.777,4.916.972,2.748,1.9,5.508c.559,1.657,1.108,3.325,1.634,4.993C3023.21,1370.8,3026.107,1461.267,2990.411,1568.475Z" transform="translate(-134.88 -289.751)" fill="#ebf3fa"/><g opacity="0.4"><rect x="1451.185" y="537.208" width="206.634" height="170.383" transform="translate(2974.123 955.049) rotate(180)" fill="#c3dafc"/><rect x="1554.502" y="537.208" width="206.634" height="170.383" transform="translate(3180.758 955.049) rotate(180)" fill="#d4e4f8"/><polygon points="1316.425 374.63 1349.168 374.63 1346.284 365.417 1349.168 358.833 1316.425 358.833 1316.425 374.63" fill="#9dc3f3"/><polygon points="1419.622 300.186 1452.365 300.186 1449.48 290.972 1452.365 284.389 1419.622 284.389 1419.622 300.186" fill="#e3f0ff"/><polygon points="1419.622 284.389 1386.879 284.389 1389.763 293.602 1386.879 300.186 1419.622 300.186 1419.622 284.389" fill="#9dc3f3"/><polygon points="1626.261 376.459 1593.518 376.459 1596.401 385.673 1593.518 392.256 1626.261 392.256 1626.261 376.459" fill="#e3f0ff"/><rect x="1553.265" y="259.01" width="59.462" height="23.133" fill="#fff"/><rect x="1086.27" y="537.208" width="206.634" height="170.383" transform="translate(2244.294 955.049) rotate(180)" fill="#c3dafc"/><rect x="1189.587" y="537.208" width="206.634" height="170.383" transform="translate(2450.928 955.049) rotate(180)" fill="#d4e4f8"/><polygon points="951.511 374.63 984.253 374.63 981.369 365.417 984.253 358.833 951.511 358.833 951.511 374.63" fill="#9dc3f3"/><polygon points="1054.707 300.186 1087.45 300.186 1084.566 290.972 1087.45 284.389 1054.707 284.389 1054.707 300.186" fill="#e3f0ff"/><polygon points="1054.707 284.389 1021.964 284.389 1024.848 293.602 1021.964 300.186 1054.707 300.186 1054.707 284.389" fill="#9dc3f3"/><polygon points="1261.345 376.459 1228.602 376.459 1231.486 385.673 1228.602 392.256 1261.345 392.256 1261.345 376.459" fill="#e3f0ff"/><rect x="1188.35" y="259.01" width="59.462" height="23.133" fill="#fff"/><rect x="817.73" y="417.84" width="79.475" height="947.958" fill="#c3dafc"/><rect x="1689.085" y="417.84" width="66.065" height="947.958" fill="#c3dafc"/><rect x="897.205" y="417.84" width="857.944" height="24.671" fill="#c3dafc"/><rect x="897.205" y="867.148" width="857.944" height="24.671" fill="#c3dafc"/><rect x="897.205" y="1243.987" width="857.944" height="24.672" fill="#c3dafc"/><rect x="1465.494" y="980.745" width="213.633" height="176.155" transform="translate(3009.741 1847.893) rotate(180)" fill="#a9c8ed"/><rect x="1572.31" y="980.745" width="213.633" height="176.155" transform="translate(3223.374 1847.893) rotate(180)" fill="#d4e4f8"/><polygon points="1330.738 822.474 1364.591 822.474 1361.608 812.949 1364.591 806.142 1330.738 806.142 1330.738 822.474" fill="#9dc3f3"/><polygon points="1437.431 745.508 1471.282 745.508 1468.301 735.982 1471.282 729.175 1437.431 729.175 1437.431 745.508" fill="#e3f0ff"/><polygon points="1437.431 729.175 1403.578 729.175 1406.561 738.702 1403.578 745.508 1437.431 745.508 1437.431 729.175" fill="#9dc3f3"/><polygon points="1651.068 824.365 1617.217 824.365 1620.198 833.891 1617.217 840.698 1651.068 840.698 1651.068 824.365" fill="#e3f0ff"/><rect x="1575.6" y="702.937" width="61.477" height="23.917" fill="#fff"/><rect x="1191.333" y="980.745" width="213.633" height="176.155" transform="translate(2461.42 1847.893) rotate(180)" fill="#c3dafc"/><rect x="1298.15" y="980.745" width="213.633" height="176.155" transform="translate(2675.054 1847.893) rotate(180)" fill="#d4e4f8"/><polygon points="1056.578 822.474 1090.431 822.474 1087.448 812.949 1090.431 806.142 1056.578 806.142 1056.578 822.474" fill="#9dc3f3"/><polygon points="1163.271 745.508 1197.123 745.508 1194.141 735.982 1197.123 729.175 1163.271 729.175 1163.271 745.508" fill="#e3f0ff"/><polygon points="1163.271 729.175 1129.418 729.175 1132.4 738.702 1129.418 745.508 1163.271 745.508 1163.271 729.175" fill="#9dc3f3"/><polygon points="1376.908 824.365 1343.056 824.365 1346.038 833.891 1343.056 840.698 1376.908 840.698 1376.908 824.365" fill="#e3f0ff"/><polygon points="1376.908 726.854 1343.056 726.854 1346.038 736.379 1343.056 743.186 1376.908 743.186 1376.908 726.854" fill="#e3f0ff"/><rect x="1184.848" y="809.3" width="100.199" height="38.981" fill="#fff"/><rect x="1465.494" y="1380.92" width="184.646" height="152.252" transform="translate(2980.754 2624.34) rotate(180)" fill="#c3dafc"/><rect x="1557.816" y="1380.92" width="184.646" height="152.252" transform="translate(3165.398 2624.34) rotate(180)" fill="#d4e4f8"/><polygon points="1330.722 1204.808 1359.98 1204.808 1357.403 1196.575 1359.98 1190.692 1330.722 1190.692 1330.722 1204.808" fill="#9dc3f3"/><polygon points="1422.936 1138.286 1452.195 1138.286 1449.618 1130.052 1452.195 1124.169 1422.936 1124.169 1422.936 1138.286" fill="#e3f0ff"/><polygon points="1422.936 1124.169 1393.678 1124.169 1396.255 1132.403 1393.678 1138.286 1422.936 1138.286 1422.936 1124.169" fill="#9dc3f3"/><polygon points="1607.587 1206.443 1578.328 1206.443 1580.905 1214.676 1578.328 1220.559 1607.587 1220.559 1607.587 1206.443" fill="#e3f0ff"/><rect x="1542.358" y="1101.491" width="53.135" height="20.672" fill="#fff"/><rect x="1114.81" y="1357.018" width="213.633" height="176.154" transform="translate(2308.374 2600.438) rotate(180)" fill="#c3dafc"/><rect x="1221.627" y="1357.018" width="213.633" height="176.154" transform="translate(2522.006 2600.438) rotate(180)" fill="#d4e4f8"/><polygon points="980.055 1198.747 1013.907 1198.747 1010.925 1189.221 1013.907 1182.415 980.055 1182.415 980.055 1198.747" fill="#2a4e96"/><polygon points="1086.747 1121.781 1120.599 1121.781 1117.617 1112.254 1120.599 1105.448 1086.747 1105.448 1086.747 1121.781" fill="#618dc1"/><polygon points="1086.747 1105.448 1052.895 1105.448 1055.876 1114.974 1052.895 1121.781 1086.747 1121.781 1086.747 1105.448" fill="#2a4e96"/><polygon points="1300.385 1200.637 1266.533 1200.637 1269.515 1210.164 1266.533 1216.97 1300.385 1216.97 1300.385 1200.637" fill="#618dc1"/><rect x="1224.916" y="1079.209" width="61.477" height="23.917" fill="#fff"/><rect x="1174.941" y="845.269" width="163.321" height="134.669" transform="translate(2378.323 1535.456) rotate(180)" fill="#c3dafc"/><rect x="1256.602" y="845.269" width="163.321" height="134.669" transform="translate(2541.645 1535.456) rotate(180)" fill="#d4e4f8"/><polygon points="1040.156 656.034 1066.036 656.034 1063.756 648.751 1066.036 643.548 1040.156 643.548 1040.156 656.034" fill="#9dc3f3"/><polygon points="1121.722 597.194 1147.602 597.194 1145.322 589.911 1147.602 584.708 1121.722 584.708 1121.722 597.194" fill="#e3f0ff"/><polygon points="1121.722 584.708 1095.842 584.708 1098.122 591.99 1095.842 597.194 1121.722 597.194 1121.722 584.708" fill="#9dc3f3"/><polygon points="1285.047 657.48 1259.167 657.48 1261.446 664.762 1259.167 669.965 1285.047 669.965 1285.047 657.48" fill="#e3f0ff"/><rect x="1227.352" y="564.648" width="46.998" height="18.284" fill="#fff"/><rect x="1466.744" y="845.269" width="163.321" height="134.669" transform="translate(2961.928 1535.456) rotate(180)" fill="#c3dafc"/><rect x="1548.404" y="845.269" width="163.321" height="134.669" transform="translate(3125.25 1535.456) rotate(180)" fill="#d4e4f8"/><polygon points="1331.959 656.034 1357.839 656.034 1355.559 648.751 1357.839 643.548 1331.959 643.548 1331.959 656.034" fill="#9dc3f3"/><polygon points="1413.524 597.194 1439.404 597.194 1437.124 589.911 1439.404 584.708 1413.524 584.708 1413.524 597.194" fill="#e3f0ff"/><polygon points="1413.524 584.708 1387.645 584.708 1389.924 591.99 1387.645 597.194 1413.524 597.194 1413.524 584.708" fill="#9dc3f3"/><polygon points="1576.85 657.48 1550.97 657.48 1553.249 664.762 1550.97 669.965 1576.85 669.965 1576.85 657.48" fill="#e3f0ff"/><rect x="1519.154" y="564.648" width="46.998" height="18.284" fill="#fff"/></g><path d="M2774.757,1392.281l-4.064-1.195c10.738-36.49-8.747-74.479-43.434-84.686l-87.372-25.71c-17.984-5.292-28.085-24.988-22.518-43.906,17.991-61.143-14.658-124.8-72.781-141.9l1.258-4.276c60.364,17.763,94.271,83.875,75.587,147.376-4.874,16.561,3.969,33.8,19.712,38.435l87.372,25.71C2765.443,1312.991,2786.188,1353.435,2774.757,1392.281Z" transform="translate(-134.88 -289.751)" fill="#2b478b"/><path d="M2765.933,1422.269l-4.064-1.2c10.737-36.489-8.746-74.48-43.434-84.687l-87.371-25.71c-17.984-5.292-28.085-24.987-22.519-43.9,17.992-61.144-14.657-124.8-72.78-141.907l1.257-4.275c60.365,17.763,94.272,83.876,75.586,147.377-4.873,16.56,3.971,33.8,19.713,38.433l87.372,25.71C2756.62,1342.977,2777.364,1383.422,2765.933,1422.269Z" transform="translate(-134.88 -289.751)" fill="#2b478b"/><rect x="1993.182" y="689.517" width="183.964" height="151.69" fill="#ed823a"/><rect x="1901.2" y="689.517" width="183.963" height="151.69" fill="#ff9e55"/><polygon points="2177.038 802.737 2147.888 802.737 2150.455 794.535 2147.888 788.673 2177.038 788.673 2177.038 802.737" fill="#dd732c"/><polygon points="2085.163 736.46 2056.013 736.46 2058.581 728.257 2056.013 722.396 2085.163 722.396 2085.163 736.46" fill="#ffb27d"/><polygon points="2085.163 722.396 2114.314 722.396 2111.747 730.599 2114.314 736.46 2085.163 736.46 2085.163 722.396" fill="#dd732c"/><polygon points="1901.196 804.366 1930.347 804.366 1927.778 812.569 1930.347 818.43 1901.196 818.43 1901.196 804.366" fill="#ffb27d"/><rect x="2048.125" y="989.553" width="52.939" height="20.595" transform="translate(4014.309 1709.95) rotate(180)" fill="#fff"/><path d="M2318.63,566.781c-26.377,0-54.039-4.186-69.386-13.042-24.421-14.092-55.4-8.116-55.709-8.055l-.752-3.744c1.324-.266,32.677-6.335,58.371,8.492,25.319,14.61,88.233,15.906,116.713,6.211,28.056-9.552,65.311-19.832,80.8-19.832v3.819c-15.061,0-51.8,10.174-79.574,19.627C2356.508,564.543,2337.911,566.78,2318.63,566.781Z" transform="translate(-134.88 -289.751)" fill="#2b478b"/><rect x="2020.06" y="549.702" width="12.066" height="78.702" fill="#2b478b"/><rect x="2043.946" y="549.702" width="12.066" height="78.702" fill="#2b478b"/><path d="M2318.63,558.306c-26.377,0-54.039-4.186-69.386-13.042-24.421-14.093-55.4-8.117-55.709-8.056l-.752-3.743c1.324-.266,32.677-6.335,58.371,8.491,25.319,14.61,88.233,15.907,116.713,6.211,28.056-9.551,65.311-19.831,80.8-19.831v3.819c-15.061,0-51.8,10.174-79.574,19.627C2356.508,556.067,2337.911,558.3,2318.63,558.306Z" transform="translate(-134.88 -289.751)" fill="#2b478b"/><path d="M2572.7,1018.338h-5.01v-3.818h5.01a42.123,42.123,0,0,0,42.076-42.076V536.884a42.123,42.123,0,0,0-42.076-42.076h-37.143v-3.819H2572.7a45.947,45.947,0,0,1,45.9,45.9v435.56A45.946,45.946,0,0,1,2572.7,1018.338Z" transform="translate(-134.88 -289.751)" fill="#2b478b"/><path d="M2567.691,981.457v-3.819a29.3,29.3,0,0,0,29.265-29.264V543.5a28.412,28.412,0,0,0-28.38-28.38h-29.439V511.3h29.439a32.235,32.235,0,0,1,32.2,32.2V948.374A33.121,33.121,0,0,1,2567.691,981.457Z" transform="translate(-134.88 -289.751)" fill="#2b478b"/><path d="M1984.239,280.615h104.229a26.852,26.852,0,0,1,26.852,26.852V540.321a26.852,26.852,0,0,1-26.852,26.852H1984.239a26.851,26.851,0,0,1-26.851-26.851V307.467A26.851,26.851,0,0,1,1984.239,280.615Z" fill="#aec3ff"/><circle cx="2000.683" cy="321.39" r="13.744" fill="#dde7fe"/><path d="M2121.818,807.1a13.745,13.745,0,1,1,13.744,13.744A13.744,13.744,0,0,1,2121.818,807.1Z" transform="translate(-134.88 -289.751)" fill="#dde7fe"/><path d="M2193.16,611.142a13.745,13.745,0,1,1,13.745,13.744A13.745,13.745,0,0,1,2193.16,611.142Z" transform="translate(-134.88 -289.751)" fill="#dde7fe"/><path d="M2193.16,807.1a13.745,13.745,0,1,1,13.745,13.744A13.745,13.745,0,0,1,2193.16,807.1Z" transform="translate(-134.88 -289.751)" fill="#dde7fe"/><path d="M2229.891,931.668a19.915,19.915,0,0,1-1.8,8.194H2120.147a19.915,19.915,0,0,1-1.8-8.194c0-17.882,24.977-32.386,55.773-32.386S2229.891,913.786,2229.891,931.668Z" transform="translate(-134.88 -289.751)" fill="#ff9e55"/><path d="M2323.373,968.591v146.687a35.785,35.785,0,0,1-15.468,29.461l-44.736,30.852a7.051,7.051,0,0,1-9.809-1.8l0,0a7.052,7.052,0,0,1,1.8-9.808l44.737-30.853a21.688,21.688,0,0,0,9.367-17.846V968.591a28.73,28.73,0,0,0-28.729-28.729H2067.7a28.729,28.729,0,0,0-28.728,28.729v145.851a21.536,21.536,0,0,0,10.192,18.378l49.982,31.25a7.052,7.052,0,0,1,2.244,9.714h0a7.051,7.051,0,0,1-9.719,2.245l-49.986-31.236a35.588,35.588,0,0,1-16.825-30.351V968.591a42.84,42.84,0,0,1,42.84-42.84h212.832A42.84,42.84,0,0,1,2323.373,968.591Z" transform="translate(-134.88 -289.751)" fill="#2b478b"/><rect x="2032.084" y="192.413" width="293.27" height="8.825" fill="#2b478b"/><rect x="2032.084" y="217.138" width="293.27" height="8.825" fill="#2b478b"/><path d="M2209.264,570.367h-87.446V509.016a45.146,45.146,0,0,1,45.146-45.146h0a45.146,45.146,0,0,1,45.145,45.146v58.5A2.846,2.846,0,0,1,2209.264,570.367Z" transform="translate(-134.88 -289.751)" fill="#ff9e55"/><path d="M2340.26,174.119h44.574a37.964,37.964,0,0,1,37.964,37.964v795.464a37.965,37.965,0,0,1-37.965,37.965H2340.26a37.965,37.965,0,0,1-37.965-37.965V212.083a37.965,37.965,0,0,1,37.965-37.965Z" fill="#aec3ff"/><circle cx="2362.546" cy="216.453" r="7.007" fill="#2b478b"/><path d="M2306.455,296.9h107.807a18.551,18.551,0,0,1,18.551,18.551V859.6a18.55,18.55,0,0,1-18.55,18.55H2306.455a18.55,18.55,0,0,1-18.55-18.55V315.447A18.55,18.55,0,0,1,2306.455,296.9Z" fill="#98b5f4"/><path d="M2305.852,991.737h117.442a17.946,17.946,0,0,1,17.946,17.946v79.875a0,0,0,0,1,0,0H2305.853a17.947,17.947,0,0,1-17.947-17.947v-61.927A17.947,17.947,0,0,1,2305.852,991.737Z" fill="#98b5f4"/><circle cx="2166.964" cy="506.889" r="26.691" transform="translate(1476.115 2372.032) rotate(-88.699)" fill="#ff9e55"/><path d="M2166.964,534.408a27.519,27.519,0,1,1,27.518-27.519A27.55,27.55,0,0,1,2166.964,534.408Zm0-53.382a25.863,25.863,0,1,0,25.862,25.863A25.891,25.891,0,0,0,2166.964,481.026Z" transform="translate(-134.88 -289.751)" fill="#2b478b"/><circle cx="2166.964" cy="506.889" r="16.29" transform="translate(1040.89 2209.674) rotate(-76.718)" fill="#ed823a"/><rect x="2775.761" y="1260.73" width="114.694" height="94.573" transform="translate(5818.655 1036.917) rotate(155.56)" fill="#c3dafc"/><rect x="2827.97" y="1237.003" width="114.694" height="94.573" transform="translate(5908.577 969.962) rotate(155.56)" fill="#d4e4f8"/><polygon points="2690.773 1001.86 2707.319 994.34 2703.745 990.347 2703.691 986.358 2687.146 993.877 2690.773 1001.86" fill="#618dc1"/><polygon points="2687.146 993.877 2670.6 1001.397 2674.173 1005.391 2674.228 1009.379 2690.773 1001.86 2687.146 993.877" fill="#2a4e96"/><polygon points="2812.709 992.949 2796.163 1000.468 2799.737 1004.461 2799.791 1008.451 2816.337 1000.931 2812.709 992.949" fill="#618dc1"/><rect x="2884.907" y="1232.71" width="33.005" height="12.84" transform="translate(-387.578 1021.677) rotate(-24.439)" fill="#fff"/><path d="M2990.411,1568.475c-.395,1.217-.811,2.435-1.218,3.665q-5.318,15.586-11.709,31.646-.887,2.238-1.81,4.478-7.785,19.125-17.217,38.943h-140.4l-8.044-75.067-.395-3.665-.307-2.875-19.982-186.292-.154-1.438,10.556-4.707,52.353-23.395,52.364-23.395,52.354-23.384,38.9-17.37q.972,2.748,1.9,5.508c.559,1.657,1.108,3.325,1.634,4.993C3023.21,1370.8,3026.107,1461.267,2990.411,1568.475Z" transform="translate(-134.88 -289.751)" fill="#2b478b"/><path d="M2990.411,1568.475c-.395,1.217-.811,2.435-1.218,3.665H2824.035l-.361-3.665-.285-2.875-18.04-182.561,8.329-3.731,185.555-83.188C3023.21,1370.8,3026.107,1461.267,2990.411,1568.475Z" transform="translate(-134.88 -289.751)" fill="#d2e0ff"/><path d="M2824.042,1572.138H1410.766a96.412,96.412,0,0,1-96.412-96.413h0a96.413,96.413,0,0,1,96.412-96.413H2824.042a96.413,96.413,0,0,1,96.412,96.413h0A96.412,96.412,0,0,1,2824.042,1572.138Z" transform="translate(-134.88 -289.751)" fill="#aec3ff"/><path d="M2920.451,1475.72a96.405,96.405,0,0,1-96.41,96.421H2584.4a9.3,9.3,0,0,1-9.3-9.3V1388.609a9.3,9.3,0,0,1,9.3-9.3h239.637A96.411,96.411,0,0,1,2920.451,1475.72Z" transform="translate(-134.88 -289.751)" fill="#c5d7ff"/><path d="M2990.411,1568.475c-.395,1.217-.811,2.435-1.218,3.665q-5.318,15.586-11.709,31.646-.887,2.238-1.81,4.478-7.785,19.125-17.217,38.943c0,.011,0,.011-.011.022l-152.966.066-1404.37.647v-79.467Z" transform="translate(-134.88 -289.751)" fill="#c5d7ff"/><path d="M1824.861,1465.315l-10.874-5.047a2.635,2.635,0,0,1-1.514-2.315c-.033-1.273-.12-2.557-.263-3.841a43.662,43.662,0,0,0-1.3-6.957,2.62,2.62,0,0,1,.954-2.8l9.964-7.593a2.585,2.585,0,0,0,.614-3.447l-6.133-9.677a2.542,2.542,0,0,0-3.259-.922l-10.348,5.081a2.569,2.569,0,0,1-3.029-.538,46.147,46.147,0,0,0-11.654-8.79,2.632,2.632,0,0,1-1.3-2.941l1.678-6.814a2.662,2.662,0,0,0-1.657-3.106l-10.687-3.862a2.015,2.015,0,0,0-.669-.153,2.531,2.531,0,0,0-2.568,1.481l-3.786,8.12-.911,1.986a44.154,44.154,0,0,0-6.473.242,46.057,46.057,0,0,0-8.472,1.723,2.565,2.565,0,0,1-2.8-.9l-6.1-8.032a2.645,2.645,0,0,0-3.533-.625l-7.395,4.675-2.118,1.349a2.668,2.668,0,0,0-.977,3.446l4.235,8.658a2.543,2.543,0,0,1-.471,2.973,46.823,46.823,0,0,0-6.123,7.692,8.07,8.07,0,0,0-.451.692.866.866,0,0,1-.164.23,2.588,2.588,0,0,1-2.732.955l-11.072-2.711c-.12-.032-.252-.044-.373-.066a2.653,2.653,0,0,0-2.721,1.723l-3.874,10.655a2.655,2.655,0,0,0,1.372,3.3l11.346,5.256a2.548,2.548,0,0,1,1.492,2.48,47,47,0,0,0,.23,7.1c.143,1.284.33,2.534.571,3.774a2.7,2.7,0,0,1-1.02,2.645l-9.58,7.309a2.565,2.565,0,0,0-.614,3.412l6.079,9.569a2.7,2.7,0,0,0,3.468.976l8.185-4.016a2.638,2.638,0,0,1,3.194.67,46.5,46.5,0,0,0,10.666,9.436,2.6,2.6,0,0,1,1.152,2.853l-2.447,9.975a2.742,2.742,0,0,0,1.7,3.193l10.622,3.863a2.6,2.6,0,0,0,3.248-1.361l.219-.472,4.389-9.436a2.649,2.649,0,0,1,2.612-1.526h.01a47.117,47.117,0,0,0,8.143-.165c1.471-.153,2.9-.394,4.334-.68a2.606,2.606,0,0,1,2.612.965l6.2,8.154a2.7,2.7,0,0,0,3.588.658l9.525-6.046a2.884,2.884,0,0,0,.68-.626,2.675,2.675,0,0,0,.286-2.765l-3.414-6.913a2.694,2.694,0,0,1,.176-2.623,3.46,3.46,0,0,1,.494-.549,45.94,45.94,0,0,0,11.379-14.209,2.609,2.609,0,0,1,2.48-1.4,2.131,2.131,0,0,1,.45.077l8.954,2.195a2.64,2.64,0,0,0,3.106-1.647l.087-.252,3.786-10.381A2.687,2.687,0,0,0,1824.861,1465.315Zm-35.234,3.435a25.041,25.041,0,0,1-6.693,9.283,16.218,16.218,0,0,1-1.944,1.449,28.632,28.632,0,0,1-8.921,3.731,24.828,24.828,0,0,1-29.9-28.6,30.034,30.034,0,0,1,1.471-5.542,24.16,24.16,0,0,1,8.273-10.282c.34-.219.692-.428,1.031-.636C1774.144,1425.725,1798.022,1445.278,1789.627,1468.75Z" transform="translate(-134.88 -289.751)" fill="#98b5f4"/><path d="M1898.459,1512.116l-7.824-3.632a1.908,1.908,0,0,1-1.086-1.668c-.023-.921-.088-1.833-.187-2.765a31.872,31.872,0,0,0-.932-4.992,1.913,1.913,0,0,1,.679-2.02l7.166-5.465a1.851,1.851,0,0,0,.45-2.479l-4.41-6.957a1.845,1.845,0,0,0-2.349-.67l-7.441,3.665a1.843,1.843,0,0,1-2.171-.395,33.436,33.436,0,0,0-8.395-6.32,1.889,1.889,0,0,1-.933-2.108l1.207-4.9a1.927,1.927,0,0,0-1.185-2.238l-7.693-2.776a1.529,1.529,0,0,0-.482-.11,1.838,1.838,0,0,0-1.854,1.065l-2.71,5.848-.66,1.415a35.338,35.338,0,0,0-4.663.176,33.558,33.558,0,0,0-6.09,1.24,1.835,1.835,0,0,1-2.008-.647l-4.39-5.772a1.92,1.92,0,0,0-2.545-.46l-5.322,3.368-1.515.976a1.942,1.942,0,0,0-.713,2.481l3.05,6.221a1.84,1.84,0,0,1-.329,2.14,33.414,33.414,0,0,0-4.411,5.53c-.12.165-.219.329-.329.5a.7.7,0,0,1-.11.165,1.874,1.874,0,0,1-1.964.681l-7.966-1.942a1.222,1.222,0,0,0-.275-.056,1.914,1.914,0,0,0-1.953,1.24l-2.787,7.659a1.918,1.918,0,0,0,.987,2.382l8.164,3.775a1.872,1.872,0,0,1,1.076,1.788,33.387,33.387,0,0,0,.165,5.114c.1.91.23,1.821.4,2.71a1.919,1.919,0,0,1-.734,1.9l-6.881,5.256a1.839,1.839,0,0,0-.45,2.458l4.379,6.881a1.918,1.918,0,0,0,2.48.7l5.9-2.887a1.89,1.89,0,0,1,2.293.484,33.241,33.241,0,0,0,7.671,6.781,1.885,1.885,0,0,1,.822,2.064l-1.755,7.165a1.955,1.955,0,0,0,1.229,2.293l7.638,2.776a1.847,1.847,0,0,0,2.326-.965l.164-.341,3.16-6.792a1.9,1.9,0,0,1,1.877-1.1h.011a32.894,32.894,0,0,0,5.848-.12c1.054-.111,2.085-.287,3.117-.484a1.863,1.863,0,0,1,1.887.692l4.455,5.871a1.941,1.941,0,0,0,2.58.46l6.857-4.345a2.1,2.1,0,0,0,.483-.45,1.934,1.934,0,0,0,.208-1.987l-2.458-4.97a1.93,1.93,0,0,1,.132-1.888,1.713,1.713,0,0,1,.352-.395,33.058,33.058,0,0,0,8.185-10.226,1.869,1.869,0,0,1,1.789-1,1.717,1.717,0,0,1,.319.044l6.44,1.58a1.894,1.894,0,0,0,2.229-1.186l.065-.175,2.722-7.472A1.923,1.923,0,0,0,1898.459,1512.116Zm-25.337,2.469a18.01,18.01,0,0,1-4.817,6.672,10.415,10.415,0,0,1-1.4,1.043,20.578,20.578,0,0,1-6.409,2.688,17.863,17.863,0,0,1-21.507-20.575,21.654,21.654,0,0,1,1.053-3.983,17.446,17.446,0,0,1,5.948-7.4c.252-.154.505-.307.746-.461C1861.984,1483.641,1879.157,1497.7,1873.122,1514.585Z" transform="translate(-134.88 -289.751)" fill="#d2e0ff"/><path d="M2241.936,1465.315l-10.874-5.047a2.651,2.651,0,0,1-1.514-2.315c-.033-1.273-.11-2.557-.253-3.841a44.809,44.809,0,0,0-1.3-6.957,2.616,2.616,0,0,1,.943-2.8l9.964-7.593a2.562,2.562,0,0,0,.615-3.447l-6.123-9.677a2.544,2.544,0,0,0-3.258-.922l-10.36,5.081a2.551,2.551,0,0,1-3.017-.538,46.038,46.038,0,0,0-11.664-8.79,2.647,2.647,0,0,1-1.307-2.941l1.69-6.814a2.675,2.675,0,0,0-1.657-3.106l-10.7-3.862a1.964,1.964,0,0,0-.659-.153,2.553,2.553,0,0,0-2.578,1.481l-3.776,8.12-.91,1.986a44.186,44.186,0,0,0-6.475.242,46.069,46.069,0,0,0-8.47,1.723,2.567,2.567,0,0,1-2.8-.9l-6.111-8.032a2.634,2.634,0,0,0-3.524-.625l-7.406,4.675-2.106,1.349a2.682,2.682,0,0,0-.989,3.446l4.247,8.658a2.56,2.56,0,0,1-.471,2.973,45.689,45.689,0,0,0-6.123,7.692,8.07,8.07,0,0,0-.451.692,1.261,1.261,0,0,1-.164.23,2.6,2.6,0,0,1-2.732.955l-11.072-2.711c-.121-.032-.252-.044-.374-.066a2.654,2.654,0,0,0-2.721,1.723l-3.873,10.655a2.644,2.644,0,0,0,1.371,3.3l11.347,5.256a2.552,2.552,0,0,1,1.492,2.48,45.485,45.485,0,0,0,.23,7.1c.132,1.284.329,2.534.56,3.774a2.7,2.7,0,0,1-1.01,2.645l-9.579,7.309a2.564,2.564,0,0,0-.615,3.412l6.08,9.569a2.678,2.678,0,0,0,3.456.976l8.2-4.016a2.645,2.645,0,0,1,3.194.67,46.289,46.289,0,0,0,10.665,9.436,2.619,2.619,0,0,1,1.152,2.853l-2.446,9.975a2.732,2.732,0,0,0,1.7,3.193l10.611,3.863a2.6,2.6,0,0,0,3.248-1.361l.231-.472,4.389-9.436a2.632,2.632,0,0,1,2.6-1.526h.021a47,47,0,0,0,8.131-.165c1.471-.153,2.908-.394,4.335-.68a2.614,2.614,0,0,1,2.622.965l6.2,8.154a2.7,2.7,0,0,0,3.589.658l9.525-6.046a3.162,3.162,0,0,0,.68-.626,2.671,2.671,0,0,0,.274-2.765l-3.4-6.913a2.692,2.692,0,0,1,.176-2.623,2.639,2.639,0,0,1,.493-.549,46.07,46.07,0,0,0,11.379-14.209,2.6,2.6,0,0,1,2.481-1.4,2.024,2.024,0,0,1,.438.077l8.966,2.195a2.633,2.633,0,0,0,3.095-1.647l.087-.252,3.786-10.381A2.688,2.688,0,0,0,2241.936,1465.315Zm-35.223,3.435a25.168,25.168,0,0,1-6.694,9.283,16.132,16.132,0,0,1-1.943,1.449,28.692,28.692,0,0,1-8.931,3.731,24.833,24.833,0,0,1-29.9-28.6,31.071,31.071,0,0,1,1.482-5.542,24.15,24.15,0,0,1,8.262-10.282c.352-.219.692-.428,1.043-.636C2191.229,1425.725,2215.1,1445.278,2206.713,1468.75Z" transform="translate(-134.88 -289.751)" fill="#98b5f4"/><path d="M2315.545,1512.116l-7.824-3.632a1.89,1.89,0,0,1-1.086-1.668c-.033-.921-.088-1.833-.188-2.765a31.756,31.756,0,0,0-.931-4.992,1.874,1.874,0,0,1,.679-2.02l7.166-5.465a1.85,1.85,0,0,0,.439-2.479l-4.4-6.957a1.846,1.846,0,0,0-2.348-.67l-7.45,3.665a1.851,1.851,0,0,1-2.173-.395,33.393,33.393,0,0,0-8.383-6.32,1.894,1.894,0,0,1-.944-2.108l1.217-4.9a1.921,1.921,0,0,0-1.2-2.238l-7.692-2.776a1.4,1.4,0,0,0-.472-.11,1.839,1.839,0,0,0-1.854,1.065l-2.721,5.848-.658,1.415a35.2,35.2,0,0,0-4.654.176,33.4,33.4,0,0,0-6.09,1.24,1.83,1.83,0,0,1-2.008-.647l-4.4-5.772a1.906,1.906,0,0,0-2.535-.46l-5.321,3.368-1.526.976a1.928,1.928,0,0,0-.7,2.481l3.051,6.221a1.827,1.827,0,0,1-.34,2.14,33.821,33.821,0,0,0-4.4,5.53,4.8,4.8,0,0,0-.329.5c-.034.055-.077.111-.111.165a1.889,1.889,0,0,1-1.974.681l-7.955-1.942a1.241,1.241,0,0,0-.276-.056,1.907,1.907,0,0,0-1.953,1.24l-2.787,7.659a1.907,1.907,0,0,0,.988,2.382l8.153,3.775a1.839,1.839,0,0,1,1.076,1.788,33.385,33.385,0,0,0,.164,5.114c.1.91.242,1.821.417,2.71a1.94,1.94,0,0,1-.735,1.9l-6.891,5.256a1.847,1.847,0,0,0-.439,2.458l4.367,6.881a1.932,1.932,0,0,0,2.491.7l5.892-2.887a1.888,1.888,0,0,1,2.294.484,33.31,33.31,0,0,0,7.681,6.781,1.9,1.9,0,0,1,.823,2.064l-1.755,7.165a1.949,1.949,0,0,0,1.217,2.293l7.638,2.776a1.855,1.855,0,0,0,2.337-.965l.165-.341,3.149-6.792a1.91,1.91,0,0,1,1.876-1.1h.011a33.007,33.007,0,0,0,5.86-.12c1.053-.111,2.085-.287,3.117-.484a1.845,1.845,0,0,1,1.875.692l4.467,5.871a1.936,1.936,0,0,0,2.578.46l6.848-4.345a1.9,1.9,0,0,0,.692-2.437l-2.448-4.97a1.927,1.927,0,0,1,.121-1.888,1.758,1.758,0,0,1,.362-.395,33.206,33.206,0,0,0,8.186-10.226,1.841,1.841,0,0,1,1.778-1,1.58,1.58,0,0,1,.318.044l6.452,1.58a1.893,1.893,0,0,0,2.228-1.186l.066-.175,2.71-7.472A1.917,1.917,0,0,0,2315.545,1512.116Zm-25.349,2.469a17.977,17.977,0,0,1-4.806,6.672,11.927,11.927,0,0,1-1.4,1.043,20.638,20.638,0,0,1-6.419,2.688,17.867,17.867,0,0,1-21.507-20.575,22.541,22.541,0,0,1,1.064-3.983,17.362,17.362,0,0,1,5.947-7.4c.242-.154.495-.307.746-.461C2279.069,1483.641,2296.231,1497.7,2290.2,1514.585Z" transform="translate(-134.88 -289.751)" fill="#d2e0ff"/><path d="M2007.993,1455.319l-11.808-2.085a2.644,2.644,0,0,1-2.051-1.854c-.362-1.23-.78-2.447-1.24-3.654a45.4,45.4,0,0,0-3.029-6.386,2.62,2.62,0,0,1,.2-2.952l7.693-9.887a2.582,2.582,0,0,0-.3-3.49l-8.4-7.79a2.546,2.546,0,0,0-3.38-.056l-8.713,7.571a2.551,2.551,0,0,1-3.051.242,46.265,46.265,0,0,0-13.529-5.5,2.65,2.65,0,0,1-2.009-2.512l-.12-7.012a2.664,2.664,0,0,0-2.393-2.59l-11.335-1a2.388,2.388,0,0,0-.68.023,2.575,2.575,0,0,0-2.107,2.106l-1.569,8.813-.373,2.15a46.214,46.214,0,0,0-6.2,1.887,47.6,47.6,0,0,0-7.747,3.84,2.561,2.561,0,0,1-2.93-.153l-7.967-6.2a2.63,2.63,0,0,0-3.566.3l-5.958,6.419-1.7,1.844a2.684,2.684,0,0,0-.067,3.587l6.32,7.287a2.533,2.533,0,0,1,.308,2.984,46.253,46.253,0,0,0-3.95,9.01c-.11.262-.176.515-.264.778a.977.977,0,0,1-.088.264,2.618,2.618,0,0,1-2.4,1.624l-11.4.22a1.376,1.376,0,0,0-.372.033,2.669,2.669,0,0,0-2.2,2.358l-1.01,11.292a2.636,2.636,0,0,0,2.173,2.831l12.313,2.184a2.549,2.549,0,0,1,2.074,2.008,46.477,46.477,0,0,0,2.04,6.814c.461,1.2.966,2.359,1.515,3.5a2.7,2.7,0,0,1-.3,2.819l-7.4,9.515a2.572,2.572,0,0,0,.286,3.456l8.329,7.692a2.685,2.685,0,0,0,3.588.066l6.891-5.991a2.656,2.656,0,0,1,3.259-.176,46.207,46.207,0,0,0,12.728,6.4,2.614,2.614,0,0,1,1.844,2.469l.2,10.271a2.7,2.7,0,0,0,2.458,2.634l11.248,1.02a2.61,2.61,0,0,0,2.8-2.14l.1-.515,1.821-10.238a2.641,2.641,0,0,1,2.129-2.151l.012-.011a45.773,45.773,0,0,0,7.823-2.238c1.383-.527,2.711-1.119,4.017-1.767a2.6,2.6,0,0,1,2.776.263l8.087,6.3a2.692,2.692,0,0,0,3.632-.285l7.659-8.285a3.006,3.006,0,0,0,.494-.779,2.692,2.692,0,0,0-.438-2.755l-5.059-5.8a2.663,2.663,0,0,1-.5-2.579,3.192,3.192,0,0,1,.34-.659,46.162,46.162,0,0,0,7.363-16.645,2.568,2.568,0,0,1,2.03-1.986,2.839,2.839,0,0,1,.45-.055l9.228-.165a2.636,2.636,0,0,0,2.569-2.393l.021-.262,1-11.006A2.687,2.687,0,0,0,2007.993,1455.319Zm-33.172,12.356a25.327,25.327,0,0,1-4.092,10.677,17.893,17.893,0,0,1-1.515,1.9,28.445,28.445,0,0,1-7.67,5.893,24.841,24.841,0,0,1-36.234-19.983,31.436,31.436,0,0,1,.011-5.738,24.114,24.114,0,0,1,5.367-12.049c.274-.308.547-.593.834-.889C1948.837,1430.037,1976.917,1442.832,1974.821,1467.675Z" transform="translate(-134.88 -289.751)" fill="#98b5f4"/><path d="M2990.411,1568.475c-.395,1.217-.811,2.435-1.218,3.665q-5.318,15.586-11.709,31.646-.887,2.238-1.81,4.478-7.785,19.125-17.217,38.943c0,.011,0,.011-.011.022l-152.966.066v-78.82Z" transform="translate(-134.88 -289.751)" fill="#d2e0ff"/><path d="M2824.041,1576.467H1410.77a100.742,100.742,0,0,1,0-201.484H2824.041a100.742,100.742,0,0,1,0,201.484ZM1410.77,1383.635a92.09,92.09,0,1,0,0,184.18H2824.041a92.09,92.09,0,0,0,0-184.18Z" transform="translate(-134.88 -289.751)" fill="#2b478b"/><path d="M401.065,584.708h93.609a7.813,7.813,0,0,1,7.813,7.813V682.87a7.814,7.814,0,0,1-7.814,7.814H401.064a7.813,7.813,0,0,1-7.813-7.813V592.521A7.814,7.814,0,0,1,401.065,584.708Z" fill="#c0d8fb"/><path d="M405.121,589.3h85.5a7.136,7.136,0,0,1,7.136,7.136v82.521a7.137,7.137,0,0,1-7.137,7.137h-85.5a7.136,7.136,0,0,1-7.136-7.136V596.435A7.137,7.137,0,0,1,405.121,589.3Z" fill="#dfebfd"/><circle cx="447.869" cy="598.971" r="2.263" fill="#b7d3f3"/><path d="M598.745,891.92a2.263,2.263,0,1,1,.878,3.078A2.263,2.263,0,0,1,598.745,891.92Z" transform="translate(-134.88 -289.751)" fill="#b7d3f3"/><path d="M614.387,904.348a2.263,2.263,0,1,1-.675,3.128A2.262,2.262,0,0,1,614.387,904.348Z" transform="translate(-134.88 -289.751)" fill="#b7d3f3"/><path d="M622.135,923.583a2.263,2.263,0,1,1-2.262,2.263A2.263,2.263,0,0,1,622.135,923.583Z" transform="translate(-134.88 -289.751)" fill="#b7d3f3"/><path d="M618.179,945.906a2.262,2.262,0,1,1-3.2,0A2.261,2.261,0,0,1,618.179,945.906Z" transform="translate(-134.88 -289.751)" fill="#b7d3f3"/><path d="M603.97,960.152a2.263,2.263,0,1,1-3.2,0A2.262,2.262,0,0,1,603.97,960.152Z" transform="translate(-134.88 -289.751)" fill="#b7d3f3"/><path d="M580.486,967.5a2.263,2.263,0,1,1,2.263,2.263A2.263,2.263,0,0,1,580.486,967.5Z" transform="translate(-134.88 -289.751)" fill="#b7d3f3"/><path d="M566.681,891.92A2.263,2.263,0,1,0,565.8,895,2.263,2.263,0,0,0,566.681,891.92Z" transform="translate(-134.88 -289.751)" fill="#b7d3f3"/><path d="M551.039,904.348a2.263,2.263,0,1,0,.674,3.128A2.262,2.262,0,0,0,551.039,904.348Z" transform="translate(-134.88 -289.751)" fill="#b7d3f3"/><circle cx="408.411" cy="636.094" r="2.263" fill="#b7d3f3"/><path d="M547.247,945.906a2.262,2.262,0,1,0,3.2,0A2.261,2.261,0,0,0,547.247,945.906Z" transform="translate(-134.88 -289.751)" fill="#b7d3f3"/><path d="M561.456,960.152a2.263,2.263,0,1,0,3.2,0A2.262,2.262,0,0,0,561.456,960.152Z" transform="translate(-134.88 -289.751)" fill="#b7d3f3"/><circle cx="449.522" cy="636.094" r="2.263" fill="#b7d3f3"/><rect x="449.213" y="607.826" width="0.618" height="28.268" fill="#b7d3f3"/><rect x="582.084" y="918.997" width="19.052" height="1.854" transform="translate(-576.667 271.908) rotate(-38.134)" fill="#b7d3f3"/><rect x="1541.28" y="1108.156" width="139.749" height="115.231" transform="translate(3087.43 2041.793) rotate(180)" fill="#d8702a"/><rect x="1611.155" y="1108.156" width="139.749" height="115.231" transform="translate(3227.18 2041.793) rotate(180)" fill="#ff9e55"/><polygon points="1406.482 904.414 1428.626 904.414 1426.676 898.182 1428.626 893.729 1406.482 893.729 1406.482 904.414" fill="#c15e1b"/><polygon points="1476.275 854.065 1498.42 854.065 1496.469 847.834 1498.42 843.381 1476.275 843.381 1476.275 854.065" fill="#ffb27d"/><polygon points="1476.275 843.381 1454.131 843.381 1456.081 849.613 1454.131 854.065 1476.275 854.065 1476.275 843.381" fill="#c15e1b"/><polygon points="1616.027 905.65 1593.883 905.65 1595.833 911.881 1593.883 916.334 1616.027 916.334 1616.027 905.65" fill="#ffb27d"/><rect x="1566.659" y="826.217" width="40.215" height="15.645" fill="#fff"/><path d="M1684.979,1218.483c3.394-2.2,11.08-7.043,11.425-5.885.248.833-.2,2.214-1.16,3.632,4.6-1.516,9.238-2.449,20.033.062a8.153,8.153,0,0,1,5.215,3.729c1.041,1.77,1.372,3.944-1.47,5.562-5.683,3.237-3.994,1.232-11.9,5.958s-17.4,5.644-22.908,1.9l-7.522-1.554-.459-12.491S1680.567,1219.047,1684.979,1218.483Z" transform="translate(-134.88 -289.751)" fill="#ffc299"/><path d="M1531.287,1094.5c-20.729,12.9-42.192-4.631-42.192-4.631s8.219-21.047,3.083-48.808c-.208-1.13,36.157,13.859,37.254,14.1h.022s.011.088.033.252l.066.528c.57,4.893.966,9.754,1.229,14.287C1531.583,1083.789,1531.287,1094.5,1531.287,1094.5Z" transform="translate(-134.88 -289.751)" fill="#ffb27d"/><path d="M1530.782,1070.227c-16.515-1.494-29.211-10.754-33.425-15.967-1.283-1.569,31.109.823,32.075.9h.022s.011.088.033.252q.033.2.066.528C1530.123,1060.833,1530.519,1065.694,1530.782,1070.227Z" transform="translate(-134.88 -289.751)" fill="#ed975d"/><path d="M1536.212,1052.852s-35.653,15.761-45.127-6.593-20.456-35.375,1.907-46.384,30.43-4.365,35.407,2.327S1545.242,1048.176,1536.212,1052.852Z" transform="translate(-134.88 -289.751)" fill="#ffb27d"/><path d="M1493.552,1052.371c-.448.422-8.012,4.392-28.887-23.036-3.277-4.306-6.83-14.283-2.973-24.41s22.24-20.969,38.04-27.149a31.918,31.918,0,0,1,19.892-.92,12.379,12.379,0,0,1,8.691,15.347c-2.987,10.462-10.4,16.885-19.781,16.6-6.286-.19-5.888,12.643-5.771,15.7s-.1,5.664-8.012,4.393c-6.78-1.088-2.955,7.865-.678,11.893a11.889,11.889,0,0,1,1.615,6.52A7.343,7.343,0,0,1,1493.552,1052.371Z" transform="translate(-134.88 -289.751)" fill="#2a4e96"/><path d="M1438.988,1647.8h-22.977c-4.817,0-10.17-4.823-11.509-13.653s-11.242-13.653-13.385-20.88,8.836-17.4,8.836-17.4l1.835-2.358,1.909-2.459,18.2,4.281s.449,4.334.73,9.855a126.069,126.069,0,0,1,.074,12.634c-.536,9.64,2.7,20.017,11.261,21.893S1438.988,1647.8,1438.988,1647.8Z" transform="translate(-134.88 -289.751)" fill="#2c3a64"/><path d="M1598.95,1647.8h-60.908a5.467,5.467,0,0,1-1.293-.375c-4.066-2.036-2.794-17.606-2.305-22.415.094-.891.161-1.413.161-1.413s21.418-17.13,24.365-4.014c.094.409.2.812.315,1.206v.007c3.717,12.273,20.338,17.847,29.938,19.4C1596.559,1641.391,1598.461,1645.664,1598.95,1647.8Z" transform="translate(-134.88 -289.751)" fill="#2c3a64"/><path d="M1586.674,1296.562s-3.253,40.583-7.076,89.365c-5.2,66.266-11.445,147.664-12.063,163.084-1.068,26.776-5.357,69.607-5.357,69.607s-10.167,10.175-30.519,5.887c0,0-18.135-61.143-23.314-125.835-.081-1.06-.161-2.128-.241-3.2-4.819-65.858-12.312-204.534-12.312-204.534Z" transform="translate(-134.88 -289.751)" fill="#ff9e55"/><path d="M1577.64,1290.941c-8.586.519-99.18-2.907-99.2-7.966-.083-17.6-3.762-46.082-8.354-80.678q-1.26-9.671-1.992-19.168a291.5,291.5,0,0,1-.1-46.65c2.282-26.614,9.2-43.7,20.731-53.706,0,0,10.853.895,20.849,2.4,11.319,1.7,15.5.991,23.279-1.183l13.827,11.906c8.273,7.709,14.9,15.759,17.568,26.9C1564.25,1122.791,1578.406,1290.888,1577.64,1290.941Z" transform="translate(-134.88 -289.751)" fill="#2a4e96"/><path d="M1483.013,1169.234s9.535,30.206,41.357,44.836,12.8-27.8,12.8-27.8Z" transform="translate(-134.88 -289.751)" fill="#1b407a"/><path d="M1564.25,1122.791l-24.744,5.753-34.052,92.222c-4.89,13.243-16.161,21.418-30.279,21.418l-.047,2.2,1.68,43.946,109.726,9.973s.519-55-1.446-72.619C1582.178,1199.6,1564.25,1122.791,1564.25,1122.791Z" transform="translate(-134.88 -289.751)" fill="#ff9e55"/><path d="M1682.909,1225.475c.781-7.2-2.913-8.553-2.913-8.553s-72.932-16.151-79.1-18.357-57.408-59.81-57.408-59.81-19.571-23.871-36.525-19.423c-14.732,3.865-20.863,15-23.219,25.748-2.808,12.805-11.633,16.874-.731,24.154,24.469,16.344,87.743,57.712,99.427,61.633,26,8.73,96.948,4.37,96.948,4.37A22.813,22.813,0,0,0,1682.909,1225.475Z" transform="translate(-134.88 -289.751)" fill="#2a4e96"/><path d="M1513.863,1101.832c-5.761-5.353-25.136-19.059-25.136-19.059a14.482,14.482,0,0,1,1.923-2.439,15.021,15.021,0,0,1,2.459-1.935c2.466-.521,21.558,13.841,27.915,19.5,7.656,6.819,28.905,28.218,28.905,28.218l-10.423,2.424S1520.646,1108.133,1513.863,1101.832Z" transform="translate(-134.88 -289.751)" fill="#ed823a"/><path d="M1537.729,1000.074s-14.214,8-19.458,9.338c-1.561.4-24.787,6.239-24.787,6.239l-33.266,12.229s-11.285-24.3,2.638-43.338l.005-.006c.348-.48.715-.957,1.1-1.424,3.837-4.734,9.334-9.08,17.074-12.572C1520.258,952.844,1537.289,998.617,1537.729,1000.074Z" transform="translate(-134.88 -289.751)" fill="#ff9e55"/><path d="M1518.6,1008.609l-6.335,2.032c-6.283-5.8-29.24-25.7-49.662-25.594a5,5,0,0,1,.255-.5l.005-.006c.266-.477.5-.734.885-1.44l.211.016C1490.375,984.626,1513.24,1003.413,1518.6,1008.609Z" transform="translate(-134.88 -289.751)" fill="#e27830"/><path d="M1493.484,1015.651s-3.525,5.8-3.816,10.811-22.081,11.907-24.068,9.684-5.382-8.266-5.382-8.266Z" transform="translate(-134.88 -289.751)" fill="#ff9e55"/><path d="M1493.484,1015.651s41.238-6.616,58.246-19.881a1.785,1.785,0,0,0-.967-3.195,81.2,81.2,0,0,0-15.872,1.047S1522.371,1008.478,1493.484,1015.651Z" transform="translate(-134.88 -289.751)" fill="#e27830"/><path d="M1574.555,1293.86s2.105,25.321-9.606,72.83c-8.593,34.859-56.6,131.98-56.6,131.98-.081-1.06-.161-2.128-.241-3.2-4.819-65.858-12.312-204.534-12.312-204.534Z" transform="translate(-134.88 -289.751)" fill="#ed823a"/><path d="M1574.555,1293.86s-61.364,154.494-99.914,223.564-50.6,88.345-50.6,88.345-22.086-8.835-24.094-14.859c0,0,14.741-133.342,40.558-165.845,14.588-18.368,31.723-73.487,32.527-92.762s2.952-65.452,2.952-65.452Z" transform="translate(-134.88 -289.751)" fill="#ff9e55"/><g opacity="0.5"><path d="M2494.215,383.546q8.247,2.766,16.437,5.772l-35.223-.153h-.011l-9.272-.033h-.011l-108.2-.483-9.294-.033h-.011l-108.206-.483-9.3-.033h-.011l-108.207-.483-9.294-.033h-.011L2005.4,387.1l-9.294-.033h-.011l-108.206-.483-9.294-.033h-.012l-108.195-.483-9.294-.033h-.011l-108.207-.483-9.306-.043h-.011l-108.195-.472-9.305-.044h-.011l-108.2-.472-9.305-.044h-.011l-108.184-.472-9.306-.044h-.011l-108.195-.471-9.305-.044h-.012l-108.2-.472-9.306-.044h-.01l-26.248-.11c2.326-1.92,4.674-3.819,7.056-5.673h.01l19.544.077h.011l117.489.526h.034l117.479.516h.032l117.469.516h.032l117.479.516h.033l117.479.515h.033l117.479.516h.033l117.468.516h.033l117.479.516h.033l117.478.515h.033l117.479.516h.032l117.48.516h.033l117.478.516Z" transform="translate(-134.88 -289.751)" fill="#c3dafc"/><path d="M2609.916,438.884c2.678,1.887,5.3,3.808,7.868,5.739l-1640.656-7.2q2.173-2.882,4.445-5.685l33.928.143,9.306.044,108.207.472,9.294.044,108.206.472h.011l9.294.043,108.207.473h.011l9.3.043,108.206.472h.011l9.294.044h.011l108.2.472h.01l9.3.044h.011l108.185.471h.01l9.3.044h.011l108.195.472h.011l9.295.044h.011l108.2.472h.011l9.3.044h.011l108.195.472h.012l9.294.044h.01l108.185.472h.011l9.294.043h.011l108.206.483h.012l9.283.033h.011l108.206.483h.012l9.283.033h.011l108.206.483h.012l9.283.033h.011Z" transform="translate(-134.88 -289.751)" fill="#c3dafc"/><path d="M1024.829,431.938l-2.7,4.2-6.628-4.258-22.066-14.177q1.7-1.893,3.4-3.753l27.971,17.974Z" transform="translate(-134.88 -289.751)" fill="#c3dafc"/><rect x="1095.51" y="355.855" width="4.993" height="102.169" transform="translate(27.268 821.025) rotate(-57.282)" fill="#c3dafc"/><rect x="1213.019" y="356.371" width="4.993" height="102.168" transform="translate(80.828 920.127) rotate(-57.282)" fill="#c3dafc"/><rect x="1330.528" y="356.887" width="4.993" height="102.168" transform="translate(134.388 1019.229) rotate(-57.282)" fill="#c3dafc"/><rect x="1448.038" y="357.403" width="4.993" height="102.168" transform="translate(187.949 1118.332) rotate(-57.282)" fill="#c3dafc"/><rect x="1565.547" y="357.92" width="4.993" height="102.168" transform="matrix(0.541, -0.841, 0.841, 0.541, 241.507, 1217.432)" fill="#c3dafc"/><rect x="1683.057" y="358.436" width="4.993" height="102.168" transform="translate(295.069 1316.537) rotate(-57.282)" fill="#c3dafc"/><rect x="1800.566" y="358.952" width="4.993" height="102.168" transform="translate(348.629 1415.639) rotate(-57.282)" fill="#c3dafc"/><rect x="1918.075" y="359.468" width="4.993" height="102.169" transform="translate(402.188 1514.74) rotate(-57.282)" fill="#c3dafc"/><rect x="2035.585" y="359.984" width="4.993" height="102.169" transform="translate(455.742 1613.836) rotate(-57.281)" fill="#c3dafc"/><rect x="2153.094" y="360.5" width="4.993" height="102.169" transform="translate(509.303 1712.939) rotate(-57.281)" fill="#c3dafc"/><rect x="2270.603" y="361.016" width="4.993" height="102.168" transform="translate(562.863 1812.041) rotate(-57.281)" fill="#c3dafc"/><rect x="2388.113" y="361.532" width="4.993" height="102.168" transform="matrix(0.541, -0.841, 0.841, 0.541, 616.413, 1911.134)" fill="#c3dafc"/><rect x="2505.622" y="362.048" width="4.993" height="102.169" transform="translate(669.982 2010.244) rotate(-57.281)" fill="#c3dafc"/></g><rect x="1786.982" y="1219.424" width="188.606" height="155.519" transform="translate(3627.691 2304.615) rotate(180)" fill="#8db0ff"/><rect x="1881.285" y="1219.424" width="188.607" height="155.519" transform="translate(3816.298 2304.615) rotate(180)" fill="#aec3ff"/><polygon points="1652.213 1045.751 1682.099 1045.751 1679.466 1037.341 1682.099 1031.332 1652.213 1031.332 1652.213 1045.751" fill="#2a4e96"/><polygon points="1746.405 977.801 1776.292 977.801 1773.659 969.391 1776.292 963.382 1746.405 963.382 1746.405 977.801" fill="#618dc1"/><polygon points="1746.405 963.382 1716.52 963.382 1719.152 971.792 1716.52 977.801 1746.405 977.801 1746.405 963.382" fill="#2a4e96"/><polygon points="1935.017 1047.42 1905.131 1047.42 1907.763 1055.83 1905.131 1061.839 1935.017 1061.839 1935.017 1047.42" fill="#618dc1"/><rect x="1868.39" y="940.217" width="54.274" height="21.115" fill="#fff"/><g id="P297LW"><path d="M2402.089,1119.66s-8.94,50.856-18.719,103.982c-10.622,57.747-22.235,118.18-24.429,118.936-4.211,1.454-3.872-7.74-6.763-14.753-2.324-5.637-9.39-53.922-7.067-84.036.565-7.349,2.454-97.957,15.018-108.656S2402.089,1119.66,2402.089,1119.66Z" transform="translate(-134.88 -289.751)" fill="#ffb27d"/><path d="M2349.428,1314.335a29.813,29.813,0,0,1-.985,16.474c-3.159,8.149-3.83,10.475,2.016,15.05s12.175,11,16.56,9.1,1.67-39.205,1.67-39.205Z" transform="translate(-134.88 -289.751)" fill="#ffb27d"/><path d="M2361.582,1647.8c5.426-3.312,2.339-28.019,2.339-28.019s-25.284-20.226-28.761-4.74-24.018,22.439-35.712,24.335c-8.073,1.309-10.571,5.78-11.345,8.424Z" transform="translate(-134.88 -289.751)" fill="#2a4e96"/><path d="M2473.85,1647.8c5.425-3.312,2.339-28.019,2.339-28.019s-25.285-20.226-28.761-4.74-24.019,22.439-35.712,24.335c-8.073,1.309-10.571,5.78-11.346,8.424Z" transform="translate(-134.88 -289.751)" fill="#2a4e96"/><path d="M2438.717,1361.039c-9,38.023-20.333,81.441-24.762,105.918-.516,2.837-.935,5.419-1.252,7.7s-.515,4.289-.607,5.953c-2.352,45.849-38.588,150.673-45.071,153.115-10.029,3.785-25.824-4.258-34.092-6.889a7.093,7.093,0,0,1-4.97-8.056c17.945-82.5,29.009-200.582,31.408-270.925,1.209-35.428,2.824-60.63,2.824-60.63s88.392-23.583,88.92,6.251C2451.316,1305.04,2445.727,1331.4,2438.717,1361.039Z" transform="translate(-134.88 -289.751)" fill="#ff9843"/><path d="M2438.717,1361.039c-9,38.023-20.333,81.441-24.762,105.918-.516,2.837-3.226,26.892-3.541,29.176l-15.474-175.815,21.943,2.024Z" transform="translate(-134.88 -289.751)" fill="#e27830"/><path d="M2403.921,1303.714l31.185,325.822s23.085,7.493,43.943,1.719c0,0,12.124-178.138,10.984-221.683s9.819-116.517-2.5-124.565S2403.921,1303.714,2403.921,1303.714Z" transform="translate(-134.88 -289.751)" fill="#ff9843"/><path d="M2486.918,1216.6c.34,3.719,1.756,73.169,1.854,75.78.11,2.875-7.747,8.6-35.487,12.718a259.812,259.812,0,0,1-35.169,2.645c-34.588.384-47.81-14.155-47.81-14.155-2.36.043,2.634-16.866,3.434-126.653a5,5,0,0,1-1.81-.11c-12.257-4.763-23.669-14.715-23.669-14.715s13.891-38.6,27.026-58.256c3.2-4.8,11.83-8.559,23.318-11.018,3.018-.646,6.245-1.207,9.613-1.668a194.946,194.946,0,0,1,52.123.33c3.05.428,6.057.944,9,1.547,12.981,2.634,24.667,6.858,32.964,12.893,12.213,8.878,21.305,54.318,21.305,54.318s-11.506,13.057-37.4,19.422C2484.844,1195.825,2485.393,1199.381,2486.918,1216.6Z" transform="translate(-134.88 -289.751)" fill="#2a4e96"/><path d="M2362.2,1287.227l10.56-131.535a14.105,14.105,0,0,1,14.693-12.962l71.929,2.818a11.462,11.462,0,0,1,11.007,10.858c.883,17.276,4.184,50.835,16.535,60.191l6.517,95.217-80.386,72.777s-9.132-53.337-21.687-68.156C2384.342,1308.144,2362.2,1287.227,2362.2,1287.227Z" transform="translate(-134.88 -289.751)" fill="#ff9843"/><path d="M2469.339,1083.043l-8.68,67.211-9.02-1.427,8.7-67.331C2463.391,1081.924,2466.4,1082.44,2469.339,1083.043Z" transform="translate(-134.88 -289.751)" fill="#ff9843"/><path d="M2408.218,1081.166l-11.138,60.3-.933,5.058-1-.23-7.933-1.777,11.389-61.681C2401.623,1082.188,2404.85,1081.627,2408.218,1081.166Z" transform="translate(-134.88 -289.751)" fill="#ff9843"/><path d="M2523.608,1221.934s-5.395,16.407-74.819,39.105c0,0-.789-18.543,3.432-21.02,13.047-7.661,44.137-30.52,45.2-34.544.709-2.673-6.371-22.862-15.332-43.161,16.459-1.83,27.062-3.309,39.191-9.815C2525.8,1184.426,2532.022,1206.77,2523.608,1221.934Z" transform="translate(-134.88 -289.751)" fill="#ffb27d"/><path d="M2440.884,1240.909s-5.79-4.428-10.239-5.085-11.942-3.492-10.727-.859,9.417,6.784,9.417,6.784Z" transform="translate(-134.88 -289.751)" fill="#ffb27d"/><path d="M2429.777,1270.164l-22.623,2.762a5.177,5.177,0,0,1-5.584-3.645l-15.476-51.325a5.178,5.178,0,0,1,4.33-6.635l22.623-2.761a5.176,5.176,0,0,1,5.584,3.644l15.476,51.326A5.177,5.177,0,0,1,2429.777,1270.164Z" transform="translate(-134.88 -289.751)" fill="#233862"/><path d="M2421.766,1271.143l-22.623,2.761a5.178,5.178,0,0,1-5.585-3.645l-15.476-51.325a5.178,5.178,0,0,1,4.33-6.635l22.622-2.762a5.178,5.178,0,0,1,5.585,3.646l15.477,51.325A5.179,5.179,0,0,1,2421.766,1271.143Z" transform="translate(-134.88 -289.751)" fill="#192e4f"/><path d="M2405.772,1219.415h0a1.564,1.564,0,0,1-1.589-1.021l-15.157-45.032a.955.955,0,0,1,.805-1.313h0a1.565,1.565,0,0,1,1.591,1.021l15.156,45.032A.956.956,0,0,1,2405.772,1219.415Z" transform="translate(-134.88 -289.751)" fill="#192e4f"/><path d="M2452.221,1240.019s-4.028,2.492-6.892,1.739c-2.368-.623-4.445-.849-7.177-2.707-2.884-1.963-9.263.633-11.146,1.888-5.276,3.517-23.085,3.375-23.085,6.891s7.747,13.4,17.126,16.335,27.747-3.127,27.747-3.127Z" transform="translate(-134.88 -289.751)" fill="#ffb27d"/><path d="M2452.44,1079.883c.384,10.446-8.878,15.538-22.758,13.552s-14.157-12.751-14.157-12.751l.341-10.425.4-12.333.361-11.018,33.6,4.554a40.861,40.861,0,0,0,.044,5.322v.011C2450.586,1063.4,2451.529,1074.056,2452.44,1079.883Z" transform="translate(-134.88 -289.751)" fill="#ffb27d"/><path d="M2450.278,1056.784l-.01.011c-.319.45-7.989,10.918-34.4,13.464l.4-12.333,34.006-1.142Z" transform="translate(-134.88 -289.751)" fill="#ed975d"/><path d="M2409.8,1063.742s41.345,8.353,46.149-17.474,13.377-42.145-12.817-48.569-33.171,2.474-36.872,10.7S2399.164,1060.9,2409.8,1063.742Z" transform="translate(-134.88 -289.751)" fill="#ffb27d"/><path d="M2454.041,1052.007s14.376,3.239,15.737-22.927c.525-10.076,3.031-45.45-25.755-44.238s-41.9,18.037-44.519,20.994c-19.647,22.172,28.158,5.67,34.52,10.821s.3,13.635,7.576,16.665,13.029,3.03,11.816,9.7S2454.041,1052.007,2454.041,1052.007Z" transform="translate(-134.88 -289.751)" fill="#233862"/><path d="M2395.653,1006.349s15.405,5.359,20.8,5.751c1.607.116,25.5,1.758,25.5,1.758l34.9,6.156s6.812-25.91-10.258-42.189l-.006-.006q-.642-.616-1.331-1.208c-4.614-3.98-10.791-7.286-19.028-9.356C2404.5,956.774,2395.829,1004.837,2395.653,1006.349Z" transform="translate(-134.88 -289.751)" fill="#ff9e55"/><path d="M2415.991,1011.367l6.595.879c5.158-6.817,24.236-30.465,44.354-33.97a5.012,5.012,0,0,0-.339-.451l-.006-.006c-.346-.423-.627-.634-1.126-1.26l-.2.052C2439.53,982.772,2420.347,1005.306,2415.991,1011.367Z" transform="translate(-134.88 -289.751)" fill="#e27830"/><path d="M2441.955,1013.858s4.494,5.081,5.666,9.965,23.84,7.817,25.4,5.277,3.836-9.086,3.836-9.086Z" transform="translate(-134.88 -289.751)" fill="#ff9e55"/><path d="M2441.955,1013.858s-41.758.779-60.844-9.27a1.785,1.785,0,0,1,.388-3.316,81.223,81.223,0,0,1,15.808-1.776S2412.254,1011.9,2441.955,1013.858Z" transform="translate(-134.88 -289.751)" fill="#e27830"/></g><rect x="155.165" y="1041.721" width="446.271" height="324.6" fill="#aec3ff"/><polygon points="657.96 673.993 597.106 673.993 597.106 1358.049 700.294 1358.049 700.294 1020.664 657.96 847.329 657.96 673.993" fill="#aec3ff"/><rect x="657.96" y="673.993" width="337.344" height="173.336" fill="#d2e0ff"/><rect x="700.294" y="1020.664" width="337.343" height="337.386" fill="#d2e0ff"/><polygon points="1037.637 1020.664 700.294 1020.664 657.96 847.329 995.304 847.329 1037.637 1020.664" fill="#c1d4f7"/><polygon points="705.861 881.758 697.041 881.758 693.668 869.198 702.488 869.198 705.861 881.758" fill="#aec3ff"/><polygon points="725.927 881.758 717.107 881.758 713.733 869.198 722.553 869.198 725.927 881.758" fill="#aec3ff"/><polygon points="745.992 881.758 737.172 881.758 733.798 869.198 742.618 869.198 745.992 881.758" fill="#aec3ff"/><polygon points="766.057 881.758 757.237 881.758 753.864 869.198 762.684 869.198 766.057 881.758" fill="#aec3ff"/><polygon points="786.122 881.758 777.303 881.758 773.929 869.198 782.749 869.198 786.122 881.758" fill="#aec3ff"/><polygon points="806.187 881.758 797.368 881.758 793.994 869.198 802.814 869.198 806.187 881.758" fill="#aec3ff"/><polygon points="712.159 905.207 703.339 905.207 699.965 892.645 708.785 892.645 712.159 905.207" fill="#aec3ff"/><polygon points="732.224 905.207 723.404 905.207 720.031 892.645 728.851 892.645 732.224 905.207" fill="#aec3ff"/><polygon points="752.289 905.207 743.469 905.207 740.096 892.645 748.915 892.645 752.289 905.207" fill="#aec3ff"/><polygon points="772.354 905.207 763.535 905.207 760.161 892.645 768.981 892.645 772.354 905.207" fill="#aec3ff"/><polygon points="792.42 905.207 783.6 905.207 780.226 892.645 789.046 892.645 792.42 905.207" fill="#aec3ff"/><polygon points="812.485 905.207 803.665 905.207 800.291 892.645 809.111 892.645 812.485 905.207" fill="#aec3ff"/><polygon points="718.681 929.491 709.861 929.491 706.488 916.93 715.308 916.93 718.681 929.491" fill="#aec3ff"/><polygon points="738.747 929.491 729.927 929.491 726.553 916.93 735.373 916.93 738.747 929.491" fill="#aec3ff"/><polygon points="758.811 929.491 749.992 929.491 746.618 916.93 755.438 916.93 758.811 929.491" fill="#aec3ff"/><polygon points="778.877 929.491 770.057 929.491 766.684 916.93 775.503 916.93 778.877 929.491" fill="#aec3ff"/><polygon points="798.942 929.491 790.122 929.491 786.748 916.93 795.568 916.93 798.942 929.491" fill="#aec3ff"/><polygon points="819.007 929.491 810.187 929.491 806.814 916.93 815.634 916.93 819.007 929.491" fill="#aec3ff"/><polygon points="724.978 952.939 716.159 952.939 712.785 940.377 721.605 940.377 724.978 952.939" fill="#aec3ff"/><polygon points="745.044 952.939 736.224 952.939 732.85 940.377 741.67 940.377 745.044 952.939" fill="#aec3ff"/><polygon points="765.109 952.939 756.289 952.939 752.915 940.377 761.735 940.377 765.109 952.939" fill="#aec3ff"/><polygon points="785.174 952.939 776.354 952.939 772.981 940.377 781.801 940.377 785.174 952.939" fill="#aec3ff"/><polygon points="805.239 952.939 796.419 952.939 793.046 940.377 801.866 940.377 805.239 952.939" fill="#aec3ff"/><polygon points="825.305 952.939 816.485 952.939 813.111 940.377 821.931 940.377 825.305 952.939" fill="#aec3ff"/><polygon points="845.504 881.758 836.684 881.758 833.31 869.198 842.13 869.198 845.504 881.758" fill="#aec3ff"/><polygon points="865.569 881.758 856.749 881.758 853.375 869.198 862.195 869.198 865.569 881.758" fill="#aec3ff"/><polygon points="885.634 881.758 876.814 881.758 873.44 869.198 882.261 869.198 885.634 881.758" fill="#aec3ff"/><polygon points="905.699 881.758 896.879 881.758 893.506 869.198 902.326 869.198 905.699 881.758" fill="#aec3ff"/><polygon points="925.765 881.758 916.945 881.758 913.571 869.198 922.391 869.198 925.765 881.758" fill="#aec3ff"/><polygon points="945.83 881.758 937.01 881.758 933.636 869.198 942.456 869.198 945.83 881.758" fill="#aec3ff"/><polygon points="851.801 905.207 842.981 905.207 839.607 892.645 848.428 892.645 851.801 905.207" fill="#aec3ff"/><polygon points="871.866 905.207 863.046 905.207 859.673 892.645 868.493 892.645 871.866 905.207" fill="#aec3ff"/><polygon points="891.932 905.207 883.111 905.207 879.738 892.645 888.558 892.645 891.932 905.207" fill="#aec3ff"/><polygon points="911.997 905.207 903.177 905.207 899.803 892.645 908.623 892.645 911.997 905.207" fill="#aec3ff"/><polygon points="932.062 905.207 923.242 905.207 919.869 892.645 928.688 892.645 932.062 905.207" fill="#aec3ff"/><polygon points="952.127 905.207 943.307 905.207 939.934 892.645 948.753 892.645 952.127 905.207" fill="#aec3ff"/><polygon points="858.323 929.491 849.503 929.491 846.13 916.93 854.95 916.93 858.323 929.491" fill="#aec3ff"/><polygon points="878.389 929.491 869.569 929.491 866.195 916.93 875.015 916.93 878.389 929.491" fill="#aec3ff"/><polygon points="898.454 929.491 889.634 929.491 886.26 916.93 895.08 916.93 898.454 929.491" fill="#aec3ff"/><polygon points="918.519 929.491 909.699 929.491 906.326 916.93 915.145 916.93 918.519 929.491" fill="#aec3ff"/><polygon points="938.584 929.491 929.765 929.491 926.391 916.93 935.211 916.93 938.584 929.491" fill="#aec3ff"/><polygon points="958.649 929.491 949.83 929.491 946.456 916.93 955.276 916.93 958.649 929.491" fill="#aec3ff"/><polygon points="864.621 952.939 855.801 952.939 852.427 940.377 861.247 940.377 864.621 952.939" fill="#aec3ff"/><polygon points="884.686 952.939 875.866 952.939 872.493 940.377 881.312 940.377 884.686 952.939" fill="#aec3ff"/><polygon points="904.751 952.939 895.931 952.939 892.558 940.377 901.377 940.377 904.751 952.939" fill="#aec3ff"/><polygon points="924.816 952.939 915.997 952.939 912.623 940.377 921.443 940.377 924.816 952.939" fill="#aec3ff"/><polygon points="944.882 952.939 936.061 952.939 932.688 940.377 941.508 940.377 944.882 952.939" fill="#aec3ff"/><polygon points="964.947 952.939 956.127 952.939 952.753 940.377 961.573 940.377 964.947 952.939" fill="#aec3ff"/><rect x="683.856" y="729.35" width="125.242" height="100.908" fill="#2b478b"/><rect x="800.291" y="729.35" width="8.948" height="100.908" fill="#699dee"/><path d="M1160.579,1613.351H858.873V1489.283h301.706Zm-299.735-1.971h297.763V1491.254H860.844Z" transform="translate(-134.88 -289.751)" fill="#aec3ff"/><path d="M1020.9,992.723c0,3.761-2.141,6.81-4.782,6.81s-4.781-3.049-4.781-6.81,2.14-6.81,4.781-6.81S1020.9,988.962,1020.9,992.723Z" transform="translate(-134.88 -289.751)" fill="#fff"/><path d="M1043.265,992.723c0,3.761-2.141,6.81-4.782,6.81s-4.781-3.049-4.781-6.81,2.14-6.81,4.781-6.81S1043.265,988.962,1043.265,992.723Z" transform="translate(-134.88 -289.751)" fill="#ff9e55"/><path d="M1065.627,992.723c0,3.761-2.141,6.81-4.782,6.81s-4.782-3.049-4.782-6.81,2.141-6.81,4.782-6.81S1065.627,988.962,1065.627,992.723Z" transform="translate(-134.88 -289.751)" fill="#699dee"/><path d="M1087.989,992.723c0,3.761-2.141,6.81-4.782,6.81s-4.782-3.049-4.782-6.81,2.141-6.81,4.782-6.81S1087.989,988.962,1087.989,992.723Z" transform="translate(-134.88 -289.751)" fill="#fff"/><path d="M1110.351,992.723c0,3.761-2.141,6.81-4.782,6.81s-4.782-3.049-4.782-6.81,2.141-6.81,4.782-6.81S1110.351,988.962,1110.351,992.723Z" transform="translate(-134.88 -289.751)" fill="#ff9e55"/><path d="M1111.336,1101.525h-99.053v-83.409h99.053Zm-97.082-1.97h95.111v-79.468h-95.111Z" transform="translate(-134.88 -289.751)" fill="#aec3ff"/><rect x="718.18" y="740.131" width="15.288" height="2.826" fill="#e9f3fe"/><rect x="688.486" y="740.131" width="24.098" height="2.826" fill="#e9f3fe"/><rect x="688.486" y="747.668" width="36.456" height="2.826" fill="#e9f3fe"/><rect x="729.866" y="747.668" width="24.181" height="2.826" fill="#e9f3fe"/><rect x="736.775" y="740.131" width="26.401" height="2.826" fill="#e9f3fe"/><rect x="688.486" y="760.661" width="24.098" height="2.826" fill="#e9f3fe"/><rect x="688.486" y="768.198" width="36.456" height="2.826" fill="#e9f3fe"/><rect x="729.866" y="768.198" width="24.181" height="2.826" fill="#e9f3fe"/><rect x="718.18" y="760.661" width="15.288" height="2.826" fill="#e9f3fe"/><rect x="736.775" y="760.661" width="26.401" height="2.826" fill="#e9f3fe"/><rect x="688.486" y="783.271" width="24.098" height="2.826" fill="#e9f3fe"/><rect x="688.486" y="790.807" width="36.456" height="2.826" fill="#e9f3fe"/><rect x="729.866" y="790.807" width="24.181" height="2.826" fill="#e9f3fe"/><rect x="718.18" y="783.271" width="15.288" height="2.826" fill="#e9f3fe"/><rect x="736.775" y="783.271" width="26.401" height="2.826" fill="#e9f3fe"/><rect x="688.486" y="805.043" width="24.098" height="2.826" fill="#e9f3fe"/><rect x="688.486" y="812.581" width="36.456" height="2.826" fill="#e9f3fe"/><rect x="729.866" y="812.581" width="24.181" height="2.826" fill="#e9f3fe"/><rect x="718.18" y="805.043" width="15.288" height="2.826" fill="#e9f3fe"/><rect x="736.775" y="805.043" width="26.401" height="2.826" fill="#e9f3fe"/><rect x="143.357" y="1041.721" width="556.936" height="19.823" fill="#d2e0ff"/><path d="M406.151,1195.305,395.459,1322.44s-1.12,7.707,4.612,7.72c9.426.023,46.913,0,46.913,0s-7.093-1.6-7.007-5.214c.1-4.255,12.5-130.844,12.5-130.844Z" transform="translate(-134.88 -289.751)" fill="#d86713"/><path d="M450.026,1327.853c-1.854,0-37.659.118-46.838,0-4-.049-4.7-3.556-4.735-5.826a11.393,11.393,0,0,1,.122-1.892l.277-3.305.709-8.422.626-7.441.805-9.562.677-8.07,7.6-90.339,46.322-1.2s-5.22,52.977-8.913,91.54c-.413,4.3-.805,8.416-1.168,12.262q-.175,1.842-.34,3.6c-.342,3.649-.655,7-.928,9.957-.143,1.56-.276,3.008-.4,4.336-.471,5.2-.747,8.522-.751,9.153a5.3,5.3,0,0,0,.091,1.029C443.944,1327.721,449.33,1327.853,450.026,1327.853Z" transform="translate(-134.88 -289.751)" fill="#ee9849"/><polygon points="158.775 836.371 184.82 940.987 188.386 955.315 200.517 1004.042 425.88 1004.042 381.169 836.371 158.775 836.371" fill="#f1a34f"/><polygon points="158.775 836.371 155.165 837.574 195.718 1007.682 200.517 1004.042 158.775 836.371" fill="#ee9849"/><polygon points="195.718 1007.682 419.694 1007.682 425.879 1004.042 200.517 1004.042 195.718 1007.682" fill="#d86713"/><rect x="409.251" y="1327.904" width="48.495" height="2.305" transform="translate(732.118 2368.362) rotate(180)" fill="#f1a34f"/><polygon points="414.962 973.146 378.394 838.587 158.415 838.587 158.415 836.371 381.169 836.371 417.615 972.847 414.962 973.146" fill="#f1a34f"/><polygon points="310.539 1007.681 310.288 1009.443 264.682 1018.657 265.308 1011.215 265.606 1007.681 310.539 1007.681" fill="#d86713"/><path d="M450.026,1327.853c-1.854,0-37.659.118-46.838,0-4-.049-4.7-3.556-4.735-5.826l45.391-8.54c-.471,5.2-.747,8.522-.751,9.153a5.3,5.3,0,0,0,.091,1.029C443.944,1327.721,449.33,1327.853,450.026,1327.853Z" transform="translate(-134.88 -289.751)" fill="#d86713" opacity="0.4"/><polygon points="299.516 970.099 200.517 1004.042 188.386 955.315 299.516 970.099" fill="#d86713" opacity="0.4"/><polygon points="158.775 836.371 381.169 836.371 417.253 971.126 191.177 971.126 158.775 836.371" fill="#aec3ff"/><polygon points="406.764 965.287 198.536 965.287 174.954 871.345 173.147 864.141 171.604 857.997 167.987 843.588 373.215 843.588 377.186 857.997 378.88 864.141 380.866 871.345 406.764 965.287" fill="#8aa8ed"/><polygon points="353.183 850.158 343.82 850.29 343.612 849.476 352.975 849.344 353.183 850.158" fill="#f9ddbf"/><polygon points="351.117 852.401 344.385 852.496 344.177 851.682 350.909 851.587 351.117 852.401" fill="#f9ddbf"/><polygon points="358.851 852.292 352.119 852.387 351.911 851.573 358.642 851.478 358.851 852.292" fill="#f9ddbf"/><polygon points="364.446 852.213 360.274 852.272 360.065 851.459 364.238 851.4 364.446 852.213" fill="#f9ddbf"/><polygon points="360.696 850.052 354.92 850.133 354.711 849.32 360.488 849.239 360.696 850.052" fill="#f9ddbf"/><polygon points="368.587 849.941 362.81 850.022 362.602 849.209 368.378 849.127 368.587 849.941" fill="#f9ddbf"/><polygon points="378.158 956.93 368.795 957.062 368.587 956.248 377.95 956.116 378.158 956.93" fill="#f9ddbf"/><polygon points="376.092 959.173 369.36 959.268 369.152 958.454 375.883 958.359 376.092 959.173" fill="#f9ddbf"/><polygon points="383.826 959.064 377.094 959.159 376.886 958.345 383.617 958.251 383.826 959.064" fill="#f9ddbf"/><polygon points="389.421 958.985 385.249 959.044 385.04 958.23 389.213 958.171 389.421 958.985" fill="#f9ddbf"/><polygon points="385.671 956.824 379.894 956.906 379.686 956.091 385.462 956.01 385.671 956.824" fill="#f9ddbf"/><polygon points="393.561 956.713 387.785 956.794 387.577 955.981 393.353 955.899 393.561 956.713" fill="#f9ddbf"/><polygon points="206.897 856.363 184.948 856.309 184.515 854.466 206.463 854.52 206.897 856.363" fill="#f9ddbf"/><polygon points="201.905 861.344 186.124 861.305 185.69 859.462 201.471 859.501 201.905 861.344" fill="#f9ddbf"/><polygon points="220.034 861.388 204.254 861.35 203.82 859.506 219.601 859.545 220.034 861.388" fill="#f9ddbf"/><polygon points="233.152 861.42 223.371 861.397 222.937 859.553 232.718 859.578 233.152 861.42" fill="#f9ddbf"/><polygon points="224.509 856.406 210.968 856.374 210.534 854.53 224.075 854.563 224.509 856.406" fill="#f9ddbf"/><polygon points="243.006 856.452 229.465 856.418 229.032 854.576 242.572 854.609 243.006 856.452" fill="#f9ddbf"/><polygon points="207.31 872.59 188.77 872.545 188.336 870.703 206.876 870.748 207.31 872.59" fill="#f9ddbf"/><polygon points="221.031 872.625 210.676 872.599 210.243 870.756 220.598 870.782 221.031 872.625" fill="#f9ddbf"/><polygon points="241.606 872.674 225.729 872.635 225.296 870.792 241.172 870.832 241.606 872.674" fill="#f9ddbf"/><polygon points="211.859 877.444 189.911 877.39 189.476 875.547 211.425 875.601 211.859 877.444" fill="#f9ddbf"/><polygon points="206.867 882.424 191.086 882.386 190.653 880.543 206.433 880.582 206.867 882.424" fill="#f9ddbf"/><polygon points="224.997 882.469 209.216 882.43 208.782 880.587 224.562 880.626 224.997 882.469" fill="#f9ddbf"/><polygon points="238.114 882.501 228.332 882.477 227.899 880.634 237.68 880.659 238.114 882.501" fill="#f9ddbf"/><polygon points="229.471 877.487 215.93 877.454 215.497 875.611 229.038 875.644 229.471 877.487" fill="#f9ddbf"/><polygon points="247.968 877.533 234.427 877.5 233.994 875.657 247.535 875.69 247.968 877.533" fill="#f9ddbf"/><polygon points="212.742 895.668 194.202 895.623 193.768 893.78 212.308 893.826 212.742 895.668" fill="#163560"/><polygon points="226.463 895.702 216.108 895.676 215.675 893.834 226.03 893.859 226.463 895.702" fill="#163560"/><polygon points="247.038 895.752 231.162 895.713 230.728 893.871 246.604 893.91 247.038 895.752" fill="#163560"/><polygon points="217.291 900.522 195.343 900.468 194.909 898.626 216.857 898.679 217.291 900.522" fill="#163560"/><polygon points="212.299 905.502 196.518 905.463 196.085 903.622 211.865 903.66 212.299 905.502" fill="#163560"/><polygon points="230.429 905.547 214.648 905.508 214.214 903.666 229.995 903.704 230.429 905.547" fill="#163560"/><polygon points="243.546 905.579 233.765 905.555 233.331 903.712 243.112 903.736 243.546 905.579" fill="#163560"/><polygon points="234.903 900.565 221.362 900.532 220.929 898.689 234.47 898.722 234.903 900.565" fill="#163560"/><polygon points="253.4 900.61 239.859 900.577 239.426 898.734 252.967 898.767 253.4 900.61" fill="#163560"/><polygon points="217.938 917.746 199.399 917.701 198.965 915.858 217.505 915.903 217.938 917.746" fill="#f9ddbf"/><polygon points="231.66 917.78 221.305 917.754 220.872 915.912 231.226 915.937 231.66 917.78" fill="#f9ddbf"/><polygon points="252.235 917.83 236.358 917.791 235.924 915.948 251.801 915.987 252.235 917.83" fill="#f9ddbf"/><polygon points="222.488 922.599 200.539 922.545 200.105 920.703 222.054 920.756 222.488 922.599" fill="#f9ddbf"/><polygon points="217.496 927.581 201.715 927.542 201.281 925.699 217.062 925.737 217.496 927.581" fill="#f9ddbf"/><polygon points="235.625 927.625 219.845 927.585 219.411 925.743 235.191 925.782 235.625 927.625" fill="#f9ddbf"/><polygon points="248.743 927.657 238.961 927.632 238.528 925.79 248.309 925.814 248.743 927.657" fill="#f9ddbf"/><polygon points="240.1 922.642 226.559 922.609 226.125 920.766 239.666 920.799 240.1 922.642" fill="#f9ddbf"/><polygon points="258.597 922.688 245.056 922.655 244.622 920.812 258.163 920.845 258.597 922.688" fill="#f9ddbf"/><polygon points="223.275 940.419 204.736 940.374 204.302 938.531 222.842 938.577 223.275 940.419" fill="#163560"/><polygon points="236.997 940.453 226.642 940.427 226.208 938.584 236.563 938.61 236.997 940.453" fill="#163560"/><polygon points="257.572 940.503 241.695 940.464 241.261 938.622 257.138 938.661 257.572 940.503" fill="#163560"/><polygon points="227.825 945.273 205.876 945.219 205.442 943.376 227.391 943.43 227.825 945.273" fill="#163560"/><polygon points="222.832 950.253 207.052 950.215 206.618 948.372 222.399 948.411 222.832 950.253" fill="#163560"/><polygon points="240.962 950.297 225.182 950.259 224.748 948.417 240.528 948.456 240.962 950.297" fill="#163560"/><polygon points="254.08 950.331 244.298 950.306 243.864 948.463 253.646 948.487 254.08 950.331" fill="#163560"/><polygon points="245.437 945.316 231.896 945.283 231.462 943.44 245.003 943.473 245.437 945.316" fill="#163560"/><polygon points="263.934 945.361 250.393 945.328 249.959 943.485 263.5 943.518 263.934 945.361" fill="#163560"/><polygon points="303.179 857.903 281.23 857.849 280.797 856.006 302.746 856.06 303.179 857.903" fill="#f1a34f"/><polygon points="298.187 862.883 282.406 862.845 281.973 861.002 297.753 861.042 298.187 862.883" fill="#f1a34f"/><polygon points="316.316 862.928 300.536 862.889 300.102 861.047 315.883 861.085 316.316 862.928" fill="#f1a34f"/><polygon points="329.434 862.96 319.653 862.936 319.219 861.093 329 861.118 329.434 862.96" fill="#f1a34f"/><polygon points="320.791 857.946 307.25 857.913 306.816 856.07 320.357 856.103 320.791 857.946" fill="#f1a34f"/><polygon points="339.288 857.992 325.747 857.959 325.313 856.116 338.854 856.149 339.288 857.992" fill="#f1a34f"/><polygon points="303.592 874.13 285.052 874.085 284.618 872.243 303.158 872.288 303.592 874.13" fill="#f1a34f"/><polygon points="317.313 874.165 306.958 874.139 306.525 872.295 316.879 872.321 317.313 874.165" fill="#f1a34f"/><polygon points="337.888 874.214 322.012 874.175 321.578 872.333 337.455 872.372 337.888 874.214" fill="#f1a34f"/><polygon points="308.141 878.984 286.192 878.93 285.759 877.087 307.707 877.141 308.141 878.984" fill="#f1a34f"/><polygon points="303.149 883.964 287.369 883.926 286.935 882.084 302.715 882.122 303.149 883.964" fill="#f1a34f"/><polygon points="321.278 884.009 305.498 883.97 305.064 882.127 320.845 882.167 321.278 884.009" fill="#f1a34f"/><polygon points="334.396 884.042 324.615 884.017 324.181 882.174 333.962 882.199 334.396 884.042" fill="#f1a34f"/><polygon points="325.753 879.027 312.212 878.994 311.779 877.151 325.319 877.184 325.753 879.027" fill="#f1a34f"/><polygon points="344.25 879.073 330.709 879.04 330.276 877.196 343.816 877.23 344.25 879.073" fill="#f1a34f"/><polygon points="309.024 897.209 290.484 897.163 290.05 895.32 308.59 895.366 309.024 897.209" fill="#f9ddbf"/><polygon points="322.746 897.242 312.391 897.216 311.957 895.374 322.311 895.399 322.746 897.242" fill="#f9ddbf"/><polygon points="343.32 897.292 327.443 897.253 327.01 895.411 342.887 895.45 343.32 897.292" fill="#f9ddbf"/><polygon points="313.573 902.062 291.624 902.008 291.191 900.166 313.14 900.219 313.573 902.062" fill="#f9ddbf"/><polygon points="308.581 907.042 292.801 907.003 292.367 905.161 308.147 905.2 308.581 907.042" fill="#f9ddbf"/><polygon points="326.711 907.086 310.93 907.048 310.497 905.206 326.277 905.245 326.711 907.086" fill="#f9ddbf"/><polygon points="339.828 907.119 330.047 907.095 329.613 905.252 339.394 905.276 339.828 907.119" fill="#f9ddbf"/><polygon points="331.185 902.105 317.644 902.072 317.211 900.229 330.751 900.262 331.185 902.105" fill="#f9ddbf"/><polygon points="349.683 902.15 336.142 902.117 335.708 900.274 349.248 900.307 349.683 902.15" fill="#f9ddbf"/><polygon points="314.221 919.286 295.681 919.241 295.247 917.398 313.787 917.443 314.221 919.286" fill="#f9ddbf"/><polygon points="327.942 919.32 317.587 919.294 317.153 917.452 327.508 917.477 327.942 919.32" fill="#f9ddbf"/><polygon points="348.517 919.37 332.64 919.331 332.206 917.488 348.083 917.527 348.517 919.37" fill="#f9ddbf"/><polygon points="318.77 924.139 296.821 924.085 296.388 922.243 318.336 922.296 318.77 924.139" fill="#f9ddbf"/><polygon points="313.778 929.12 297.997 929.082 297.563 927.239 313.344 927.278 313.778 929.12" fill="#f9ddbf"/><polygon points="331.907 929.165 316.127 929.126 315.693 927.283 331.474 927.322 331.907 929.165" fill="#f9ddbf"/><polygon points="345.025 929.197 335.244 929.172 334.81 927.33 344.591 927.354 345.025 929.197" fill="#f9ddbf"/><polygon points="336.382 924.182 322.841 924.149 322.407 922.306 335.948 922.339 336.382 924.182" fill="#f9ddbf"/><polygon points="354.879 924.228 341.338 924.195 340.904 922.352 354.445 922.385 354.879 924.228" fill="#f9ddbf"/><polygon points="319.558 941.959 301.018 941.914 300.584 940.071 319.123 940.117 319.558 941.959" fill="#f9ddbf"/><polygon points="333.279 941.993 322.924 941.967 322.49 940.125 332.845 940.15 333.279 941.993" fill="#f9ddbf"/><polygon points="353.854 942.043 337.977 942.004 337.543 940.162 353.42 940.201 353.854 942.043" fill="#f9ddbf"/><polygon points="324.107 946.813 302.158 946.758 301.725 944.917 323.673 944.97 324.107 946.813" fill="#f9ddbf"/><polygon points="319.115 951.793 303.334 951.754 302.9 949.912 318.681 949.951 319.115 951.793" fill="#f9ddbf"/><polygon points="337.244 951.838 321.464 951.799 321.03 949.957 336.81 949.995 337.244 951.838" fill="#f9ddbf"/><polygon points="350.362 951.87 340.58 951.846 340.146 950.003 349.928 950.027 350.362 951.87" fill="#f9ddbf"/><polygon points="341.719 946.856 328.178 946.823 327.744 944.98 341.285 945.013 341.719 946.856" fill="#f9ddbf"/><polygon points="360.216 946.901 346.675 946.868 346.241 945.025 359.782 945.058 360.216 946.901" fill="#f9ddbf"/><path d="M555.8,1617.689s-2.007,31.27-8.058,31.706c-.8.057-30.688-.008-30.688-.008l-38.148-.3s.27-9.191,11.425-11.11,29.836-9.715,36.623-24.439C534.1,1598.046,555.8,1617.689,555.8,1617.689Z" transform="translate(-134.88 -289.751)" fill="#0e2c4f"/><path d="M665,1360.477c1.458,1.226,40.311,43.325,37.137,75.658a18.651,18.651,0,0,1-18.655,16.637H636.154s-48.29,8.629-49.442,19.065-11.033,66.689-30.616,146.63c0,0-14.431,4.968-23.183,1.421-11.575-4.693-13.255-9.671-13.255-9.671s11.672-179.005,20.887-191.6,104.149-50.049,134.889-53.778S665,1360.477,665,1360.477Z" transform="translate(-134.88 -289.751)" fill="#163560"/><path d="M390.531,1315.827s-27.459-6.386-34.484,0-9.259,15.646-9.259,15.646h43.743Z" transform="translate(-134.88 -289.751)" fill="#ffb27d"/><path d="M488.945,1617.689s-2.007,31.27-8.059,31.706c-.805.057-30.688-.008-30.688-.008l-38.147-.3s.269-9.191,11.425-11.11,29.835-9.715,36.622-24.439C467.238,1598.046,488.945,1617.689,488.945,1617.689Z" transform="translate(-134.88 -289.751)" fill="#163560"/><path d="M700.893,1360.477c1.105.929,9.512,23.555,15.128,49.251a35.457,35.457,0,0,1-34.624,43.044H571.3s-48.29,8.629-49.443,19.065-11.033,66.689-30.615,146.63c0,0-14.481,3.8-25.787-1.032-6.014-2.57-10.757-8.733-10.757-8.733s11.777-177.49,20.992-190.087,104.15-50.049,134.89-53.778S700.893,1360.477,700.893,1360.477Z" transform="translate(-134.88 -289.751)" fill="#2b478b"/><path d="M639.867,1200.446l-17.025,16.344-29.011.009c-.033-2.333.065-12.061.166-20.876.01-.519.019-1.036.022-1.546.023-1.957.05-3.846.07-5.567.058-4.857.107-8.376.107-8.376l7.458-5.1,16.569-11.344,8.96-6.125c0,.151.742,8.164.853,9.329C630.019,1187.942,639.867,1200.446,639.867,1200.446Z" transform="translate(-134.88 -289.751)" fill="#ffb27d"/><path d="M597.689,1197.5c.554-.233,31.943-14.313,35.614-13.1s8.246,12.423,8.246,12.423l-55.271,12.5S590.629,1200.47,597.689,1197.5Z" transform="translate(-134.88 -289.751)" fill="#163560"/><path d="M733.453,1291.56c-5.98-36.876-31.23-64.477-42.034-74.822-7.255-10.914-49.87-19.919-49.87-19.919l-55.271,12.5s-31.151,3.38-48.719,32.436c-10.864,17.969-41.98,59.069-62.415,60.347s-84.613,13.729-84.613,13.729v15.786l97.843,2.684a16.671,16.671,0,0,0,3.561-.281c8.42-1.589,44.509-8.761,62.457-18.1,2.866,46.219,6.252,116.794,22.394,128,17.074,11.855,137.141,13.439,149.856-4.629,6.506-9.246-1.472-64-11.44-116.789C727.593,1316.6,735.96,1307.022,733.453,1291.56Z" transform="translate(-134.88 -289.751)" fill="#2a4e96"/><path d="M622.541,1173.651l-1.478.919s-13.652,9.83-26.974,14.24c.058-4.857.107-8.376.107-8.376l7.458-5.1Z" transform="translate(-134.88 -289.751)" fill="#eaa16e"/><path d="M584.03,1180.686s44.636,5.282,47.5-22.567,10.548-45.921-17.83-50.47-35.015,5.508-38.231,14.571S572.493,1178.6,584.03,1180.686Z" transform="translate(-134.88 -289.751)" fill="#ffb27d"/><path d="M576.647,1119.367s8.426,30.211,14.529,27.692,11.678-4.583,12.477,4.848-6.012,21.768,13.868,19.749,38.593-57.754,31.431-66.308C628.286,1080.667,547.939,1089.912,576.647,1119.367Z" transform="translate(-134.88 -289.751)" fill="#163560"/><path d="M560.219,1433.7H781.012a0,0,0,0,1,0,0v25.057a0,0,0,0,1,0,0H545.035a0,0,0,0,1,0,0v-9.873A15.184,15.184,0,0,1,560.219,1433.7Z" transform="translate(1191.167 2602.711) rotate(180)" fill="#77a4e5"/><rect x="507.35" y="1433.703" width="189.493" height="25.057" rx="11.227" transform="translate(1069.312 2602.711) rotate(180)" fill="#f99746"/><polygon points="522.76 1350.237 537.002 1350.237 540.998 1169.008 519.242 1169.008 522.76 1350.237" fill="#2b478b"/><polygon points="460.865 1350.237 599.374 1350.237 599.374 1337.726 528.779 1331.36 460.865 1337.726 460.865 1350.237" fill="#2b478b"/><circle cx="736.316" cy="1638.024" r="11.394" transform="translate(-1024.617 585.884) rotate(-40.675)" fill="#2b478b"/><path d="M609.2,1638.024a11.394,11.394,0,1,0-11.393,11.394A11.393,11.393,0,0,0,609.2,1638.024Z" transform="translate(-134.88 -289.751)" fill="#2b478b"/><path d="M600.709,1470.649H729.29a11.89,11.89,0,0,0,11.89-11.889H588.82A11.889,11.889,0,0,0,600.709,1470.649Z" transform="translate(-134.88 -289.751)" fill="#2b478b"/><path d="M759.2,1458.76a10.842,10.842,0,0,0,10.841-10.842v-166.88c0-31.271-20.445-56.622-45.666-56.622H621.108c-25.22,0-45.665,25.351-45.665,56.622V1458.76Z" transform="translate(-134.88 -289.751)" fill="#f99746"/><path d="M761.24,1458.76a19.773,19.773,0,0,0,19.772-19.773V1281.038c0-31.271-20.445-56.622-45.665-56.622H632.08c-25.221,0-45.666,25.351-45.666,56.622V1458.76Z" transform="translate(-134.88 -289.751)" fill="#cc6a27"/><rect x="2723.131" y="1527.52" width="145.742" height="120.174" transform="translate(5457.124 2885.461) rotate(180)" fill="#7f9ef4"/><rect x="2796.002" y="1527.52" width="145.742" height="120.174" transform="translate(5602.866 2885.461) rotate(180)" fill="#aec3ff"/><polygon points="2588.336 1327.465 2611.431 1327.465 2609.396 1320.967 2611.431 1316.324 2588.336 1316.324 2588.336 1327.465" fill="#5d86e2"/><polygon points="2661.122 1274.959 2684.217 1274.959 2682.183 1268.459 2684.217 1263.817 2661.122 1263.817 2661.122 1274.959" fill="#7f9ef4"/><polygon points="2661.122 1263.817 2638.028 1263.817 2640.061 1270.315 2638.028 1274.959 2661.122 1274.959 2661.122 1263.817" fill="#5d86e2"/><polygon points="2806.868 1328.755 2783.773 1328.755 2785.808 1335.254 2783.773 1339.897 2806.868 1339.897 2806.868 1328.755" fill="#7f9ef4"/><rect x="2755.383" y="1245.917" width="41.939" height="16.316" fill="#fff"/><rect x="2525.635" y="1527.398" width="146.035" height="120.416" transform="translate(5062.425 2885.461) rotate(180)" fill="#7f9ef4"/><rect x="2598.652" y="1527.398" width="146.035" height="120.416" transform="translate(5208.46 2885.461) rotate(180)" fill="#d4e4f8"/><polygon points="2390.84 1327.525 2413.981 1327.525 2411.942 1321.013 2413.981 1316.361 2390.84 1316.361 2390.84 1327.525" fill="#2a4e96"/><polygon points="2463.772 1274.913 2486.913 1274.913 2484.875 1268.401 2486.913 1263.749 2463.772 1263.749 2463.772 1274.913" fill="#618dc1"/><polygon points="2463.772 1263.749 2440.632 1263.749 2442.671 1270.259 2440.632 1274.913 2463.772 1274.913 2463.772 1263.749" fill="#2a4e96"/><polygon points="2609.81 1328.818 2586.671 1328.818 2588.709 1335.329 2586.671 1339.982 2609.81 1339.982 2609.81 1328.818" fill="#618dc1"/><rect x="2558.222" y="1245.812" width="42.024" height="16.349" fill="#fff"/><rect x="2601.305" y="1414.613" width="136.923" height="112.902" transform="translate(5204.652 2652.377) rotate(180)" fill="#ed823a"/><rect x="2669.766" y="1414.613" width="136.923" height="112.902" transform="translate(5341.574 2652.377) rotate(180)" fill="#ff9e55"/><polygon points="2466.505 1209.131 2488.201 1209.131 2486.29 1203.026 2488.201 1198.664 2466.505 1198.664 2466.505 1209.131" fill="#dd732c"/><polygon points="2534.886 1159.801 2556.583 1159.801 2554.672 1153.696 2556.583 1149.334 2534.886 1149.334 2534.886 1159.801" fill="#ffb27d"/><polygon points="2534.886 1149.334 2513.189 1149.334 2515.101 1155.439 2513.189 1159.801 2534.886 1159.801 2534.886 1149.334" fill="#dd732c"/><polygon points="2671.813 1210.343 2650.115 1210.343 2652.026 1216.449 2650.115 1220.811 2671.813 1220.811 2671.813 1210.343" fill="#ffb27d"/><rect x="2623.442" y="1132.517" width="39.402" height="15.329" fill="#fff"/><rect x="819.007" y="761.026" width="6.084" height="6.085" fill="#aec3ff"/><rect x="834.808" y="761.026" width="6.085" height="6.085" fill="#aec3ff"/><rect x="850.607" y="761.026" width="6.085" height="6.085" fill="#aec3ff"/><rect x="819.007" y="774.581" width="6.084" height="6.085" fill="#aec3ff"/><rect x="834.808" y="774.581" width="6.085" height="6.085" fill="#aec3ff"/><rect x="850.607" y="774.581" width="6.085" height="6.085" fill="#aec3ff"/><rect x="819.007" y="789.599" width="6.084" height="6.084" fill="#aec3ff"/><rect x="834.808" y="789.599" width="6.085" height="6.084" fill="#aec3ff"/><rect x="850.607" y="789.599" width="6.085" height="6.084" fill="#aec3ff"/><path d="M1017.282,1217.491l9.855-1.457c1.089-.161,1.555-1.281,1.1-2.653l-9.6-29.206c-.575-1.75-2.371-3.163-3.76-2.957l-9.855,1.457c-1.09.161-1.556,1.281-1.1,2.653l9.595,29.2C1014.1,1216.284,1015.893,1217.7,1017.282,1217.491Z" transform="translate(-134.88 -289.751)" fill="#233862"/><path d="M1020.772,1216.976l9.855-1.458c1.089-.162,1.555-1.282,1.1-2.654l-9.594-29.2c-.576-1.751-2.372-3.163-3.762-2.958l-9.855,1.458c-1.088.161-1.555,1.281-1.1,2.653l9.595,29.206C1017.586,1215.768,1019.383,1217.181,1020.772,1216.976Z" transform="translate(-134.88 -289.751)" fill="#192e4f"/><path d="M1011.259,1187.49h0c.287-.043.431-.379.32-.747l-7.79-25.827a.757.757,0,0,0-.724-.593h0c-.287.043-.431.379-.32.747l7.79,25.827A.755.755,0,0,0,1011.259,1187.49Z" transform="translate(-134.88 -289.751)" fill="#192e4f"/><path d="M1008.657,1089.44s-7.116-12.107-12.763-16.592-20.56-5.738-21.138-4.589c-1.791,3.552,5.911,8.676,7.513,11.938s.915,7.955,8.5,11.8c7.836,3.966,12.383,6.569,12.383,6.569Z" transform="translate(-134.88 -289.751)" fill="#ffb27d"/><path d="M1002.644,1087.79c3.658-5.693,4.752-5.988,4.752-5.988s60.506,24.133,66.281,26.149,92.1,7.09,92.1,7.09l26.053,57.263s-115.042-26.238-129.573-31.63c-24.012-8.911-62.53-43.816-62.53-43.816A18.852,18.852,0,0,1,1002.644,1087.79Z" transform="translate(-134.88 -289.751)" fill="#233862"/><path d="M1152.959,1623.2s-1.317,21.239-5.262,26.234h-60.692c.384-2.118,2.1-7.346,9.69-8.671,9.591-1.668,25.643-8.407,31.447-21.081C1134.255,1606.35,1152.959,1623.2,1152.959,1623.2Z" transform="translate(-134.88 -289.751)" fill="#163560"/><path d="M1260.662,1620.24s3.782,27.589-1.413,28.066c-.691.063-23.082.051-31.846,0-10.913-.064-28.343.068-28.343.068a2.852,2.852,0,0,1-2.584-4.291c1.259-2.132,3.662-4.408,8.245-5.29,9.557-1.84,25.486-8.859,31.07-21.633C1241.666,1603.722,1260.662,1620.24,1260.662,1620.24Z" transform="translate(-134.88 -289.751)" fill="#163560"/><path d="M1124.422,1340.538s15.261,53.4,59,146.131,47.113,134.989,47.113,134.989l30.129-1.418s-2.833-110.374-23.493-157.17-24.869-174.851-24.869-174.851Z" transform="translate(-134.88 -289.751)" fill="#ed823a"/><path d="M1099.921,1294.593s-1.215,82.686,13.092,184.212,9.457,144.62,9.457,144.62l34.264,1.14s20.477-101.563,14.606-152.38,28.041-174.37,28.041-174.37Z" transform="translate(-134.88 -289.751)" fill="#ff9e55"/><path d="M1167.532,1101.094l-16.161,11.97-23.356-4.917c.323-2.13,1.865-10.957,3.269-18.954.085-.471.17-.943.249-1.4,1.2-6.8,2.241-12.647,2.241-12.647l21.815-10.873,8.133-4.054c-.021.143-.63,7.551-.715,8.632C1161.481,1088.049,1167.532,1101.094,1167.532,1101.094Z" transform="translate(-134.88 -289.751)" fill="#ffb27d"/><path d="M1129.649,1095.055c.512-.216,31.772-9.441,35.168-8.319s5.407,7.692,5.407,7.692l-48.262,13.747S1123.117,1097.805,1129.649,1095.055Z" transform="translate(-134.88 -289.751)" fill="#163560"/><path d="M1213.824,1304.8c-5.29,24.17-115.763-51.673-114.291-66.423.162-1.62.323-3.253.486-4.872,2.038-20.54,3.994-40.634,4.129-53.751a184.887,184.887,0,0,1,3.765-33.576c1.917-9.758,4.278-18.611,6.329-25.506a28.183,28.183,0,0,1,16.532-18.112,24.812,24.812,0,0,1,2.74-.957c13.306-3.86,31.713-8.637,36.707-7.179,13.522,3.98,23.562,27.772,30.674,58.109C1214.2,1209.321,1217.278,1289.051,1213.824,1304.8Z" transform="translate(-134.88 -289.751)" fill="#2a4e96"/><path d="M1161.37,1069.185c-4.79,9.168-22.641,17.094-30.086,20.008.085-.471.17-.943.249-1.4,1.2-6.8,2.241-12.647,2.241-12.647l21.815-10.873C1160.411,1064.194,1163.346,1065.413,1161.37,1069.185Z" transform="translate(-134.88 -289.751)" fill="#fca56b"/><path d="M1123.173,1073.864s39.356,12.278,46.624-12.349,17.243-39.627-7.577-48.507-32.5-.93-36.924,6.7S1113.123,1070.036,1123.173,1073.864Z" transform="translate(-134.88 -289.751)" fill="#ffb27d"/><path d="M1126.842,1017.335s2.51,28.657,8.436,27.413,11.3-2.166,10.434,6.473-9.086,18.613,9.179,20.141,44.52-45.575,39.5-54.493C1179.917,991.137,1105.917,985.943,1126.842,1017.335Z" transform="translate(-134.88 -289.751)" fill="#163560"/><path d="M1102.866,1294.593c10.942,3.954-.189-10.872,0-13.963.85-13.59-4.48-30.769-2.847-47.125l66.818-39.94S1182.69,1293.958,1102.866,1294.593Z" transform="translate(-134.88 -289.751)" fill="#233862"/><path d="M1213.824,1304.8c-28.525,52.865-33.068,73.053-33.068,73.053-24.825-2.83-67.366-51.637-80.86-64.665,0,0-1.835-60.061-.363-74.811l20.62-.594s37.274,9.446,46.937-3.374,5.479-75.749,5.479-75.749l28.326-6.127C1214.2,1209.321,1221.48,1290.61,1213.824,1304.8Z" transform="translate(-134.88 -289.751)" fill="#ff9e55"/><path d="M1051.081,1203.668s-8.146-1.589-10.268-3.331c-3.135-2.575-5.6-6.89-7.134-7.367-2.576-.8-8.9-8.749-9.431-9.311-.205-.218-1.912.609-1.5,1.917s1.365,4.161,1.7,5.187c1.5,4.515,1.424,5.91-3.979,4.157-.7-.226-13.181-4.187-14.461-1.355s3.889,16.46,10.4,19.4,22.589.284,23.749.621C1050,1216.444,1051.081,1203.668,1051.081,1203.668Z" transform="translate(-134.88 -289.751)" fill="#ffb27d"/><path d="M1044.445,1201.012s66.271,11.266,72.143,8.407c9.373-4.564-3.637-71.8-3.637-71.8s-.559-15.238,17.24-18.832c15.468-3.123,30.392,8.463,30.392,8.463s13.572,12.145,11.838,25.614c-3.844,29.859-9.823,90.587-29.794,99.9-25.758,12.007-100.294-33.294-100.294-33.294s-2.482-3.039-2.129-8.684C1040.515,1205.8,1044.445,1201.012,1044.445,1201.012Z" transform="translate(-134.88 -289.751)" fill="#2a4e96"/><path d="M1178.061,1157.473l-5.492,1.187s-11.606-50.242-50.607-50.485a27.9,27.9,0,0,1,8.812-5.615C1145.065,1106.394,1169.883,1118.606,1178.061,1157.473Z" transform="translate(-134.88 -289.751)" fill="#ff9e55"/><path d="M986.887,1082.9s-10.744-6.589-11.247-3.763c-.25,1.406,4.526,5.262,6.446,6.909s6.819,4.879,6.819,4.879Z" transform="translate(-134.88 -289.751)" fill="#ffb27d"/><path d="M3.87,1358.049H2892.226a3.871,3.871,0,0,1,3.871,3.871v2.949a3.871,3.871,0,0,1-3.871,3.871H3.87A3.87,3.87,0,0,1,0,1364.87v-2.95A3.87,3.87,0,0,1,3.87,1358.049Z" fill="#2e3552"/></svg>