<svg xmlns="http://www.w3.org/2000/svg" viewBox="0 0 593.89838 259.7378"><defs><style>.cls-1{fill:#dd6a57;}.cls-2{fill:#fff;}.cls-3{fill:#ffc727;}.cls-4{fill:#263238;}.cls-5{fill:#455a64;}.cls-6{fill:#ebebeb;}.cls-7{fill:#ff9bbc;}.cls-8{opacity:0.1;}.cls-9{fill:#a6a6a6;}.cls-10{fill:#37474f;}.cls-11{fill:#c7c7c7;}.cls-12{fill:#dbdbdb;}.cls-13{fill:#ac6359;}.cls-14{fill:none;stroke:#f4a69d;stroke-linecap:round;stroke-linejoin:round;stroke-width:0;}</style></defs><g id="Character_2" data-name="Character 2"><path class="cls-1" d="M498.33209,437.7447c1.5218.5051,44.9557.3789,46.6104-.6711.6247-.3921.9769-6.725,1.1829-14.3806q.06991-2.482.1064-5.097c.0333-2.0533.0598-4.1333.0731-6.1535.05311-9.071-.0731-17.0586-.0731-17.0586h-28.2761l.0134,17.0586.0066,6.1535.1462,5.097s-16.6067,7.4894-18.2946,8.8384C498.14609,432.8737,496.81689,437.2463,498.33209,437.7447Z" transform="translate(-78.0508 -178.7733)"/><path class="cls-2" d="M498.33209,437.7447c1.5218.5051,44.9557.3789,46.6104-.6711.6247-.3921.9769-6.725,1.1829-14.3806q.06991-2.482.1064-5.097c.0333-2.0533.0598-4.1333.0731-6.1535h-28.3358l.0066,6.1535.1462,5.097s-16.6067,7.4894-18.2946,8.8384C498.14609,432.8737,496.81689,437.2463,498.33209,437.7447Z" transform="translate(-78.0508 -178.7733)"/><path class="cls-3" d="M498.20089,437.8101c.9902.3256,19.4909.3921,32.96111.113,3.11669-.0665,5.96749-.1529,8.26689-.2526a27.15645,27.15645,0,0,0,5.6419-.5382c.76421-.4918,1.1296-9.782,1.3024-19.5839h-28.4155l.1462,5.1236s-16.6998,7.5292-18.4011,8.8848C498.015,432.9124,496.67919,437.2984,498.20089,437.8101Z" transform="translate(-78.0508 -178.7733)"/><path class="cls-4" d="M498.823,436.0614c7.32089-.201,36.86779-.3207,44.11989.037.059.0029.059.0431,0,.046-7.25189.3577-36.79889.2379-44.11989.0371C498.66859,436.1772,498.66829,436.0657,498.823,436.0614Z" transform="translate(-78.0508 -178.7733)"/><path class="cls-4" d="M517.06469,421.0494c2.8797-.546,6.4047-.114,8.6121,1.9323.0856.0794-.0283.1997-.12179.1705a40.52183,40.52183,0,0,0-8.47751-1.7388A.18428.18428,0,0,1,517.06469,421.0494Z" transform="translate(-78.0508 -178.7733)"/><path class="cls-4" d="M514.98889,422.3087c2.8795-.5461,6.4045-.1139,8.6119,1.9324.0856.0792-.0283.1996-.1219.1704a40.51129,40.51129,0,0,0-8.4775-1.7388A.18426.18426,0,0,1,514.98889,422.3087Z" transform="translate(-78.0508 -178.7733)"/><path class="cls-4" d="M512.91289,423.568c2.8795-.5461,6.4045-.1139,8.612,1.9323.0856.0794-.0284.1997-.122.1705a40.5098,40.5098,0,0,0-8.4775-1.7387A.18432.18432,0,0,1,512.91289,423.568Z" transform="translate(-78.0508 -178.7733)"/><path class="cls-4" d="M510.83689,424.8273c2.8795-.5461,6.4045-.1139,8.612,1.9324.0856.0792-.0283.1996-.12189.1705a40.50662,40.50662,0,0,0-8.47751-1.7389A.18427.18427,0,0,1,510.83689,424.8273Z" transform="translate(-78.0508 -178.7733)"/><path class="cls-4" d="M555.66309,273.8851s-7.6422,75.5843-7.8216,76.5412c-.0266.1262-.0797,1.5815-.1528,3.954-.412,13.0116-1.1063,66.4527-1.1063,66.4527h-31.18s1.7109-60.9238,2.8805-72.1346c1.4885-14.3008,10.8719-74.8133,10.8719-74.8133Z" transform="translate(-78.0508 -178.7733)"/><path class="cls-5" d="M544.12339,353.0907q1.44345-24.56475,4.3372-49.0143c1.0946-9.1837,2.4119-18.3351,3.7218-27.4898.0113-.0792.1371-.0766.1253.003-2.4128,16.2934-4.1229,32.7135-5.5945,49.1161q-2.205,24.5739-3.1693,49.2337c-.3802,9.3121-.667,29.768-.9677,39.0829a.1724.1724,0,0,1-.3445-.0085C542.67169,397.4132,543.14919,369.67,544.12339,353.0907Z" transform="translate(-78.0508 -178.7733)"/><path class="cls-5" d="M517.04769,415.7483c.816-.1072,1.7036-.0735,2.5321-.102.9361-.0321,1.8739-.0397,2.8095-.0757q2.70825-.1041,5.4183-.1439c3.63941-.0592,7.2881-.0384,10.9251.0761,1.0016.0315,2.0028.0701,3.0041.1069,1.0664.0392,2.137.1369,3.2039.1314.0807-.0004.0777.0962-.0031.0959-1.8325-.0065-3.6879.1584-5.5211.2247-1.80549.0652-3.6104.0979-5.4176.1231-3.63789.0508-7.2894.0183-10.9238-.1156-1.0014-.0369-2.0032-.0509-3.005-.0815-.5349-.0163-1.0677-.0473-1.6019-.0676-.4769-.0181-.9514.0139-1.4245-.0471A.06241.06241,0,0,1,517.04769,415.7483Z" transform="translate(-78.0508 -178.7733)"/><path class="cls-5" d="M555.66309,273.8851s-7.6422,75.5843-7.8216,76.5412c-.0266.1262-.0797,1.5815-.1528,3.954l-14.6995-80.4952Z" transform="translate(-78.0508 -178.7733)"/><path class="cls-1" d="M547.33389,437.9357c1.56811.3348,44.725-4.5645,46.2543-5.79.57781-.4583.23181-6.7916-.4048-14.4234-.1356-1.6498-7.0057-28.1493-7.0057-28.1493L557.073,392.6807l8.27659,28.1194s-15.683,9.2692-17.2124,10.7956C546.61369,433.1146,545.77309,437.6069,547.33389,437.9357Z" transform="translate(-78.0508 -178.7733)"/><path class="cls-2" d="M593.59119,432.1486c-1.53,1.22-44.69,6.12-46.26,5.79-1.56-.33-.7201-4.82.81-6.34,1.53-1.53,17.21-10.8,17.21-10.8l-2.7-9.18,28.1113-4.1048c1.24,4.94,2.3687,9.5848,2.4187,10.2048C593.82118,425.3586,594.16118,431.6886,593.59119,432.1486Z" transform="translate(-78.0508 -178.7733)"/><path class="cls-3" d="M547.21079,438.0151c1.0199.2148,19.4159-1.7525,32.7738-3.5104,3.0905-.4086,5.9145-.8078,8.189-1.1597a27.152,27.152,0,0,0,5.5485-1.155c.57059-.4632.29519-6.9671-.5387-14.4677a29.68961,29.68961,0,0,0-1.1632-5.1407l-27.9748,3.7772,1.2839,4.4224s-15.7711,9.319-17.313,10.8534C546.48769,433.1675,545.642,437.6738,547.21079,438.0151Z" transform="translate(-78.0508 -178.7733)"/><path class="cls-4" d="M547.63689,436.2086c7.2544-1.0044,36.6092-4.3708,43.8566-4.8124.059-.0036.06351.0364.0051.0457-7.1687,1.1526-36.5498,4.2811-43.8485,4.8861C547.49609,436.3407,547.48359,436.2299,547.63689,436.2086Z" transform="translate(-78.0508 -178.7733)"/><path class="cls-4" d="M564.11809,419.2827c2.8023-.8593,6.3533-.8172,8.7723.974.0938.0695-.0062.2016-.10239.1828a40.51768,40.51768,0,0,0-8.61721-.7964A.18429.18429,0,0,1,564.11809,419.2827Z" transform="translate(-78.0508 -178.7733)"/><path class="cls-4" d="M562.19329,420.7625c2.802-.8593,6.3531-.8171,8.7721.9741.0938.0694-.0062.2015-.10239.1828a40.511,40.511,0,0,0-8.61731-.7965A.18425.18425,0,0,1,562.19329,420.7625Z" transform="translate(-78.0508 -178.7733)"/><path class="cls-4" d="M560.26819,422.2423c2.8021-.8592,6.3532-.8171,8.7723.9741.0938.0694-.0063.2016-.10249.1829a40.511,40.511,0,0,0-8.61731-.7965A.18432.18432,0,0,1,560.26819,422.2423Z" transform="translate(-78.0508 -178.7733)"/><path class="cls-4" d="M558.34319,423.7221c2.8021-.8592,6.3532-.8171,8.7723.9742.0938.0694-.0062.2015-.10249.1828a40.51067,40.51067,0,0,0-8.61721-.7965A.18433.18433,0,0,1,558.34319,423.7221Z" transform="translate(-78.0508 -178.7733)"/><path class="cls-4" d="M528.77249,273.4677s1.3634,8.1128,5.7806,13.6622c1.0564,1.3271,4.3002,2.5646,5.9783,3.7881,0,0,5.55861,59.3946,6.3194,68.1457,1.0425,11.9917,14.92721,61.2216,14.92721,61.2216l32.15478-5.5049s-13.45778-50.3127-16.21189-61.8902c-.6343-2.6662-5.6295-57.3984-5.4723-58.5715,1.8728-13.9648-4.7902-22.6427-4.7902-22.6427Z" transform="translate(-78.0508 -178.7733)"/><path class="cls-5" d="M554.39749,274.7303a10.421,10.421,0,0,0,3.81651,5.4792,12.881,12.881,0,0,0,6.92719,2.3741c.421.0336.4545.6679.0141.6706-5.0842.0294-10.221-3.2195-10.96629-8.4911C554.172,274.6433,554.36709,274.6162,554.39749,274.7303Z" transform="translate(-78.0508 -178.7733)"/><path class="cls-5" d="M533.94829,286.898a28.2581,28.2581,0,0,1,5.2519,2.7868c1.7452,1.0797,3.3575,2.3453,5.0422,3.5118.0649.0449.0104.1506-.061.1095-1.766-1.0172-3.6069-1.8988-5.3552-2.9492a33.31468,33.31468,0,0,1-4.9543-3.3211C533.81309,286.9842,533.87079,286.8704,533.94829,286.898Z" transform="translate(-78.0508 -178.7733)"/><path class="cls-5" d="M533.23269,276.2996c.272,1.1645.61,2.314.9167,3.4698.2878,1.0843.5139,2.194.853,3.2634a5.61248,5.61248,0,0,0,1.6608,2.6922c.448.3798.9375.7116,1.4124,1.0565.2558.186.53141.3632.7972.5512-.0405-.1534-.0745-.31-.11-.4686q-.14745-.6624-.2892-1.3262-.3171-1.47225-.6115-2.9498c-.3868-1.9351-.75109-3.892-1.2458-5.8026a.06276.06276,0,0,1,.1202-.0359c.5729,1.8895,1.1952,3.7565,1.7059,5.6653.2505.9364,1.2034,5.5711,1.2513,5.9.0494.3398.0935.6807.1212,1.0228a4.085,4.085,0,0,1,.0489,1.0481c-.0161.0861-.1195.077-.1583.021l-.0046.0038a4.12594,4.12594,0,0,1-.3433-1.0012c-.1008-.3291-.1917-.6638-.267-.9999-.0272-.1211-.05-.2456-.0729-.3698-.4725-.2585-.9176-.6084-1.3616-.9-.4787-.3144-.9657-.6198-1.4205-.9686a5.26634,5.26634,0,0,1-1.7962-2.5434,19.10437,19.10437,0,0,1-.7031-3.3302c-.2088-1.3198-.37829-2.6486-.6237-3.962C533.09809,276.2576,533.21409,276.2199,533.23269,276.2996Z" transform="translate(-78.0508 -178.7733)"/><path class="cls-5" d="M563.13949,414.2424c.7814-.2582,8.7388-1.9659,10.5086-2.3338,3.5637-.7406,15.8412-2.699,16.8881-2.9043.0792-.0156.0943.0797.0149.0946-1.8013.3374-7.1137,1.5919-10.6793,2.3932-3.54979.7978-16.23679,2.8448-16.71279,2.8736A.06245.06245,0,0,1,563.13949,414.2424Z" transform="translate(-78.0508 -178.7733)"/><path class="cls-5" d="M579.17969,380.1221c-2.2666-8.7863-4.7348-17.5491-6.3099-26.4936-.7912-4.4931-1.2367-9.0274-1.5989-13.5723q-.5451-6.8406-1.0711-13.6826-.53715-6.858-1.084-13.7152c-.3702-4.6168-.7825-9.2384-.8212-13.8728-.0627-7.515,1.3015-15.6728-1.9294-22.7555a17.9859,17.9859,0,0,0-1.29019-2.3232.13686.13686,0,0,0-.23271.1438c3.9729,6.8723,2.935,15.1547,2.7851,22.7436-.0887,4.4899.21561,8.9695.5588,13.4434q.52621,6.8589,1.0692,13.7164.5421,6.8577,1.0852,13.7152c.3559,4.4958.68941,9.0019,1.3052,13.4714,1.2177,8.839,3.63221,17.4728,5.8756,26.0921,2.3083,8.8687,4.5819,17.7658,7.151,26.5631.3211,1.0999.6277,2.2041.9391,3.3067.0274.0974.17251.0522.14951-.0452Q582.59644,393.46,579.17969,380.1221Z" transform="translate(-78.0508 -178.7733)"/><path class="cls-1" d="M543.59419,228.9366c-1.1565,4.736-14.9109,49.1072-17.6349,49.7212-8.0188,1.8075-17.6488,3.1318-17.50629-3.4457.22359-10.3227,19.63209-37.4993,28.92809-46.5332C543.50109,222.7314,544.73539,224.2631,543.59419,228.9366Z" transform="translate(-78.0508 -178.7733)"/><path class="cls-6" d="M525.24369,241.2403l14.2809,3.4086s4.0937-13.8567,4.7588-17.4315-2.1338-3.5471-6.4568.6928S525.24369,241.2403,525.24369,241.2403Z" transform="translate(-78.0508 -178.7733)"/><path class="cls-4" d="M527.44259,239.6138c-.0985-.0222-.1445.0395-.0477.0645a103.57842,103.57842,0,0,0,12.6597,2.5339c.0322.0026.0358-.0443.0076-.0537C538.04489,241.4838,528.52529,239.8579,527.44259,239.6138Z" transform="translate(-78.0508 -178.7733)"/><path class="cls-6" d="M530.00159,258.1105l-2.6555,21.8811s35.549-.3164,44.3555-1.1466c0,0-8.1594-40.5943-17.8883-50.6687-4.8661-5.039-10.4274-4.5222-13.8922-.8369-.877.9326-11.26009,15.3517-12.2614,20.7901C526.78779,252.9278,530.00159,258.1105,530.00159,258.1105Z" transform="translate(-78.0508 -178.7733)"/><path class="cls-3" d="M527.34139,279.99l2.66-21.88s-3.21-5.18-2.34-9.98c1-5.44,11.38-19.86,12.26-20.79a9.57749,9.57749,0,0,1,1.05-.97l-4.55,13.1,13.502-14.1327a11.16537,11.16537,0,0,1,3.888,2.8427c9.73,10.07,17.89,50.67,17.89,50.67C562.89139,279.68,527.34139,279.99,527.34139,279.99Z" transform="translate(-78.0508 -178.7733)"/><path class="cls-6" d="M568.98,267l-40.21,1.24.42-3.49,38.92-1.19C568.42,264.75,568.71,265.9,568.98,267Z" transform="translate(-78.0508 -178.7733)"/><path class="cls-6" d="M570.44,273.06l-42.42,1.3.43-3.49,41.17-1.26C569.93,270.86,570.2,272.02,570.44,273.06Z" transform="translate(-78.0508 -178.7733)"/><path class="cls-4" d="M546.79449,213.4559c-1.3061,1.3803-3.2847,10.0824,4.3506,12.7084,7.52,2.5862,14.2123-7.7607,8.0122-13.3526A8.81159,8.81159,0,0,0,546.79449,213.4559Z" transform="translate(-78.0508 -178.7733)"/><path class="cls-1" d="M548.10359,226.7235c-.2103.6862-3.8445,4.9856-7.0207,4.6202-1.0342-.1209-.6268-5.7954-.6268-5.7954l-.0659-.4257-.915-5.9606,7.1972-3.958,1.0365-.5182s.1427,1.6473.3,3.7002c.0078.0953.0157.1905.0226.2924.0119.1159.0246.2252.0306.3338.0276.3063.0542.6193.0743.9317.0162.2375.0333.4685.0412.7186.0145.2509.0232.4944.0378.7452A38.84239,38.84239,0,0,1,548.10359,226.7235Z" transform="translate(-78.0508 -178.7733)"/><path class="cls-4" d="M548.00889,218.386a12.09715,12.09715,0,0,1-7.6187,6.7366l-.915-5.9606,7.1972-3.958,1.0365-.5182S547.85159,216.3331,548.00889,218.386Z" transform="translate(-78.0508 -178.7733)"/><path class="cls-1" d="M531.09759,209.1711c-1.9521,10.4019,4.0577,12.746,6.3012,13.1643,2.0367.3799,9.0196,1.4146,12.03621-8.73,3.01649-10.1447-1.20271-14.3406-5.81471-15.4559C539.00819,197.0342,533.04989,198.7688,531.09759,209.1711Z" transform="translate(-78.0508 -178.7733)"/><path class="cls-4" d="M533.86479,206.5851a6.90218,6.90218,0,0,0,.7297.04,1.18083,1.18083,0,0,0,.7523-.1011.37632.37632,0,0,0,.1187-.4441.93328.93328,0,0,0-.8321-.4496,1.37222,1.37222,0,0,0-.9573.2449A.40167.40167,0,0,0,533.86479,206.5851Z" transform="translate(-78.0508 -178.7733)"/><path class="cls-4" d="M541.00819,208.0992a6.94185,6.94185,0,0,1-.6809-.266,1.18256,1.18256,0,0,1-.6428-.4037.37688.37688,0,0,1,.0761-.4534.93335.93335,0,0,1,.9435-.0645,1.3715,1.3715,0,0,1,.7698.6197A.40159.40159,0,0,1,541.00819,208.0992Z" transform="translate(-78.0508 -178.7733)"/><path class="cls-4" d="M538.95349,210.5025c.0106-.026.049.0439.0427.0728-.15719.7036-.2186,1.5359.3772,1.8928.0184.0112.00961.0463-.0135.0384C538.59929,212.2479,538.692,211.1439,538.95349,210.5025Z" transform="translate(-78.0508 -178.7733)"/><path class="cls-4" d="M539.72629,209.8832c1.1551.1301.81,2.4307-.2602,2.3102C538.41309,212.0748,538.75819,209.7742,539.72629,209.8832Z" transform="translate(-78.0508 -178.7733)"/><path class="cls-4" d="M540.15979,210.0727c.1813.1602.3437.4196.5824.4797.2762.0698.524-.1392.7419-.3434.0226-.0212.0394.0018.0353.0323-.05939.4419-.2969.8686-.7793.8634-.4402-.0046-.69109-.4414-.7346-.9011C539.99729,210.1184,540.08679,210.0081,540.15979,210.0727Z" transform="translate(-78.0508 -178.7733)"/><path class="cls-4" d="M534.85569,209.7167c-.0016-.028-.0605.0257-.0638.0552-.0787.7167-.2896,1.5242-.9686,1.6695-.0211.0043-.0241.0404.0003.0406C534.627,211.483,534.89609,210.4082,534.85569,209.7167Z" transform="translate(-78.0508 -178.7733)"/><path class="cls-4" d="M534.32459,208.8811c-1.1353-.2501-1.5521,2.0385-.5005,2.2703C534.85909,211.3795,535.276,209.0908,534.32459,208.8811Z" transform="translate(-78.0508 -178.7733)"/><path class="cls-4" d="M533.81989,208.9447c-.20289.0883-.422.2762-.6407.251-.2533-.0291-.3933-.3104-.5101-.577-.01209-.0275-.0337-.0116-.04.0185-.0917.4352-.03009.9172.37491,1.0778.36939.1465.71929-.1778.90279-.5945C533.941,209.0434,533.90159,208.9091,533.81989,208.9447Z" transform="translate(-78.0508 -178.7733)"/><path class="cls-4" d="M538.07259,216.3009c-.1659.1754-.329.4143-.5894.4463a1.90213,1.90213,0,0,1-.7811-.151.0252.0252,0,0,0-.0298.038.9707.9707,0,0,0,.9293.3556.7671.7671,0,0,0,.5415-.6588C538.15259,216.2887,538.09669,216.2755,538.07259,216.3009Z" transform="translate(-78.0508 -178.7733)"/><path class="cls-4" d="M535.30109,213.1262s-.3188,1.0387-.4003,1.5398c-.0073.047.1103.0889.2789.1264.0076.0039.0117.0078.0195.0038a2.41276,2.41276,0,0,0,2.4579-.515c.0426-.0432-.0127-.1052-.0633-.0814a3.63757,3.63757,0,0,1-2.2764.2709c-.0129-.1446.60561-1.7607.5271-1.7796a4.42592,4.42592,0,0,0-1.1798.0735c.6017-2.1829,1.5484-4.2514,2.1149-6.4339a.0692.0692,0,0,0-.12559-.0536,36.6464,36.6464,0,0,0-2.57251,6.8328C533.99409,213.3881,535.08679,213.179,535.30109,213.1262Z" transform="translate(-78.0508 -178.7733)"/><path class="cls-4" d="M535.27069,214.7183a2.95467,2.95467,0,0,0,.9959,1.1163,1.32976,1.32976,0,0,0,.78441.1962c.60189-.0446.71369-.5687.69179-1.039a3.17925,3.17925,0,0,0-.1296-.7376A3.824,3.824,0,0,1,535.27069,214.7183Z" transform="translate(-78.0508 -178.7733)"/><path class="cls-7" d="M536.26659,215.8346a1.32976,1.32976,0,0,0,.78441.1962c.60189-.0446.71369-.5687.69179-1.039A1.37233,1.37233,0,0,0,536.26659,215.8346Z" transform="translate(-78.0508 -178.7733)"/><path class="cls-4" d="M548.84919,213.574c-2.5167-.3612-3.0894-8.2113-3.066-9.1741-.04619.6055-.3024,3.8121-.5601,3.9132a2.46022,2.46022,0,0,1-.7769-.2353l-.00619-.0016a7.58984,7.58984,0,0,0,.03149-1.1533c-.0014-.1794-.1084.3775-.2794,1.0577-.1388-.0549-.2886-.119-.4523-.1802a9.27044,9.27044,0,0,0,.0208-2.4564c-.04159-.309-.2684,1.0406-.6853,2.1964a30.67105,30.67105,0,0,0-6.4879-1.878c-.6273-.0916-1.1718-.1423-1.6556-.1711.0983-.9441.3151-1.9379.2227-1.7289a9.17282,9.17282,0,0,0-.5831,1.7111c-.2623-.0129-.5055-.0211-.7241-.0229.0785-1.3404.9416-3.3992.693-3.0968a9.43926,9.43926,0,0,0-1.6404,3.1437c-.9287.0781-1.199.2291-1.1985-.0097a11.18411,11.18411,0,0,1,4.1238-6.5265c3.4776-2.6325,9.8565-2.7019,12.9139,2.2609A6.16188,6.16188,0,0,1,551.026,205.86C551.15689,208.9784,550.30339,213.7808,548.84919,213.574Z" transform="translate(-78.0508 -178.7733)"/><path class="cls-3" d="M539.14489,214.7719a3.43906,3.43906,0,0,1-1.82-4.5031l.00011-.0002a3.436,3.436,0,1,1,1.81989,4.5033Zm-1.3974-4.3239a2.97384,2.97384,0,1,0,3.1898-1.7789A2.97972,2.97972,0,0,0,537.74749,210.448Z" transform="translate(-78.0508 -178.7733)"/><path class="cls-3" d="M532.15839,212.8246c-1.3585-.3747-2.0546-2.1648-1.5519-3.9903a4.10184,4.10184,0,0,1,1.337-2.122,2.13948,2.13948,0,0,1,3.5311.9732,4.09915,4.09915,0,0,1,.0618,2.5077c-.4762,1.7274-1.8585,2.8774-3.1575,2.6784A1.98161,1.98161,0,0,1,532.15839,212.8246Zm.072-5.7535a3.64452,3.64452,0,0,0-1.1816,1.8853c-.4351,1.5814.1171,3.1182,1.2321,3.4254,1.1187.3095,2.3769-.7294,2.8133-2.3108a3.65038,3.65038,0,0,0-.0489-2.2242,1.83185,1.83185,0,0,0-1.1837-1.2013,1.45729,1.45729,0,0,0-.1705-.0363A1.8915,1.8915,0,0,0,532.23039,207.0711Z" transform="translate(-78.0508 -178.7733)"/><path class="cls-3" d="M537.33039,210.6826l.3781-.2608c-.3859-.5599-1.391-1.4471-2.4378-.8046l.2401.3912C536.44779,209.4314,537.29459,210.6318,537.33039,210.6826Z" transform="translate(-78.0508 -178.7733)"/><path class="cls-3" d="M551.84819,215.6001l.4493-.0949c-.0448-.2095-.4599-2.0592-1.4042-2.4922-.8834-.4019-6.97-1.4812-7.2286-1.5267l-.0796.4522c1.7454.3076,6.4352,1.1794,7.1167,1.4921C551.32539,213.7163,551.74049,215.0935,551.84819,215.6001Z" transform="translate(-78.0508 -178.7733)"/><path class="cls-1" d="M547.63189,214.094s2.625-3.0592,4.0354-2.0913c1.4101.9678-.7914,5.5615-2.60729,6.0395a1.79,1.79,0,0,1-2.29151-1.1943Z" transform="translate(-78.0508 -178.7733)"/><path class="cls-4" d="M551.00339,213.3038a.02429.02429,0,0,1,.0047.0477,4.5245,4.5245,0,0,0-2.6068,2.5856.98815.98815,0,0,1,1.4979-.1228c.0296.026-.006.0731-.0399.0624a1.10065,1.10065,0,0,0-1.2435.2625,5.31113,5.31113,0,0,0-.6742.918c-.0684.1041-.2608.0256-.2065-.0967l.01291-.0274C547.87249,215.3644,549.30689,213.2945,551.00339,213.3038Z" transform="translate(-78.0508 -178.7733)"/><path class="cls-3" d="M532.41469,203.0709s2.79031-10.3771,12.0628-7.9619c9.2726,2.4152,6.6461,12.8349,6.6461,12.8349Z" transform="translate(-78.0508 -178.7733)"/><rect class="cls-3" x="531.38341" y="204.74591" width="20.77145" height="1.52293" transform="translate(-8.76023 -308.69264) rotate(14.59902)"/><polygon class="cls-3" points="463.761 25.958 459.576 24.868 463.216 14.931 467.401 16.021 463.761 25.958"/><polygon class="cls-8" points="463.761 25.958 459.576 24.868 463.216 14.931 467.401 16.021 463.761 25.958"/><rect class="cls-5" x="513.08475" y="244.36509" width="26.21358" height="34.12417" transform="translate(-131.97641 -10.54376) rotate(-17.29275)"/><rect class="cls-9" x="514.84138" y="243.41116" width="12.42386" height="3.76477" transform="translate(1013.50808 145.18967) rotate(162.64184)"/><polygon class="cls-9" points="439.205 65.737 440.666 65.28 440.148 63.623 443.696 62.514 444.214 64.171 445.674 63.715 444.73 60.696 438.241 62.725 439.205 65.737"/><path class="cls-1" d="M538.48479,253.6658a2.70876,2.70876,0,0,1,.5093,3.0502,4.01843,4.01843,0,0,1,2.3296,1.4286c.9706,1.3408-.7062,3.4507-.7062,3.4507a4.95556,4.95556,0,0,1,2.2169,1.8985c.7999,1.3768-.5885,3.747-.5885,3.747a4.34587,4.34587,0,0,1,.898,2.8972c-.2673,2.7775-4.081,4.6798-6.493,5.9135-2.41189,1.2339-10.4092,2.4743-11.9092,2.865l-8.052-15.4125s9.2421-8.61,12.2841-9.6579C531.53639,252.9632,536.95119,252.2094,538.48479,253.6658Z" transform="translate(-78.0508 -178.7733)"/><path class="cls-1" d="M517.78149,262.5038c-2.7604,2.1156-11.0392,10.2798-9.093,14.4342s8.6004,3.7348,17.8371,1.6103Z" transform="translate(-78.0508 -178.7733)"/><path class="cls-4" d="M538.75839,256.5239c-2.9498.2849-5.6547,1.4265-8.41939,2.4126a.05082.05082,0,0,0,.03519.0953c2.7382-1.0127,5.6419-1.4686,8.4147-2.3702A.07147.07147,0,0,0,538.75839,256.5239Z" transform="translate(-78.0508 -178.7733)"/><path class="cls-4" d="M540.46279,261.4194a7.71906,7.71906,0,0,0-1.9153.6427q-.9924.41085-1.9702.8549-1.95855.8874-3.871,1.872c-.0564.0292-.0257.1228.0351.0954,1.3024-.5874,2.6133-1.1552,3.9392-1.6873q.99512-.3993,1.9968-.7829a9.18875,9.18875,0,0,0,1.8525-.8105A.10237.10237,0,0,0,540.46279,261.4194Z" transform="translate(-78.0508 -178.7733)"/><path class="cls-4" d="M542.19019,267.264a5.378,5.378,0,0,0-1.6934.6706q-.8838.42285-1.7724.836c-1.1845.5507-2.3693,1.1007-3.5723,1.6098-.0598.0253-.0255.1206.0351.0953,1.225-.511,2.4566-1.0052,3.6771-1.5271q.899-.38415,1.7935-.7785a5.04337,5.04337,0,0,0,1.5625-.8477A.036.036,0,0,0,542.19019,267.264Z" transform="translate(-78.0508 -178.7733)"/><path class="cls-4" d="M517.41839,262.6423a26.06061,26.06061,0,0,0-2.7425,2.3328q-.322.33315-.64589.6694c-.09461.059-.18811.1196-.28051.1803-.3927.2574-.7776.5269-1.1443.8203a20.79644,20.79644,0,0,0-1.9998,1.8528c-.0455.0475.0265.1151.07361.0701a18.22579,18.22579,0,0,1,2.13309-1.7322c.0981-.069.1993-.1331.2977-.2015-.3609.4003-.713.8078-1.03879,1.2326a34.47466,34.47466,0,0,0-2.41541,3.5158c-.0333.0567.0546.1043.089.0491,1.3449-2.1603,7.2123-7.9373,7.8518-8.6291C518.25519,262.0903,517.90729,262.2502,517.41839,262.6423Z" transform="translate(-78.0508 -178.7733)"/><path class="cls-5" d="M476.577,205.2509s-3.10751-3.2969-5.18561-.9993c-2.0778,2.2977,1.5212,5.0509,1.5212,5.0509Z" transform="translate(-78.0508 -178.7733)"/><polygon class="cls-5" points="418.384 51.752 418.388 51.753 422.682 52.861 424.097 53.235 423.594 51.857 422.052 47.699 422.054 47.696 422.046 47.693 398.392 26.356 394.727 30.409 418.385 51.748 418.384 51.752"/><polygon class="cls-10" points="422.683 52.863 424.099 53.234 423.594 51.855 422.683 52.863"/><polygon class="cls-10" points="395.235 31.483 399.514 26.752 398.573 25.903 394.295 30.635 395.235 31.483"/><polygon class="cls-10" points="396.275 32.421 400.553 27.69 399.613 26.841 395.334 31.572 396.275 32.421"/><polygon class="cls-10" points="400.553 27.69 399.173 29.216 408.492 36.095 408.968 35.503 400.553 27.69"/><path class="cls-1" d="M552.77339,236.0856c-5.9103,11.8311-19.1622,23.8183-23.9668,23.659-7.53059-.2496-25.7387-10.2451-31.2633-13.7311-2.1288-1.3432,7.7756-19.7988,10.0398-18.3442,3.8436,2.4694,20.3272,14.7427,21.7996,14.5289.9242-.1342,9.4751-5.9342,16.763-10.4926C556.15919,225.4426,554.60949,232.4104,552.77339,236.0856Z" transform="translate(-78.0508 -178.7733)"/><path class="cls-1" d="M479.01539,216.6838c-.983,2.3097,4.9262,4.2498,4.9262,4.2498a4.63723,4.63723,0,0,0-2.7171,1.5985c-1.1471,1.5252.7456,3.9914.7456,3.9914a5.71474,5.71474,0,0,0-2.5966,2.1422c-.9508,1.5702.6037,4.3304.6037,4.3304a5.00355,5.00355,0,0,0-1.0946,3.3204c.2525,3.2067,4.6153,5.4776,7.374,6.9491,2.7585,1.4718,11.9625,3.066,13.6856,3.5472l9.6023-17.5966s-10.4922-10.1132-13.98149-11.3836C492.62339,216.7623,480.51789,213.1534,479.01539,216.6838Z" transform="translate(-78.0508 -178.7733)"/><path class="cls-4" d="M484.01709,220.888a42.06975,42.06975,0,0,1,9.8678,2.783.0586.0586,0,0,1-.0424.1092c-3.13949-1.2235-6.6817-1.638-9.86349-2.7343A.08229.08229,0,0,1,484.01709,220.888Z" transform="translate(-78.0508 -178.7733)"/><path class="cls-4" d="M482.15209,226.3239a8.91359,8.91359,0,0,1,2.1973.7802q1.137.4938,2.2565,1.0258,2.24205,1.0632,4.4294,2.2372c.0645.0348.0272.1421-.0425.1092-1.491-.7038-2.9925-1.3851-4.51179-2.0256q-1.14031-.4809-2.28851-.9435a10.631,10.631,0,0,1-2.12149-.9722A.118.118,0,0,1,482.15209,226.3239Z" transform="translate(-78.0508 -178.7733)"/><path class="cls-4" d="M480.041,233.0241a6.21469,6.21469,0,0,1,1.94069.8077q1.01146.50565,2.0286,1c1.3558.6591,2.712,1.3174,4.09,1.9288.06871.0305.027.1395-.0424.1092-1.4034-.6141-2.8148-1.2091-4.2127-1.8358q-1.0296-.46125-2.0541-.9341a5.82822,5.82822,0,0,1-1.786-1.0091A.04139.04139,0,0,1,480.041,233.0241Z" transform="translate(-78.0508 -178.7733)"/><path class="cls-4" d="M538.65769,253.9377c-1.11469.8529-5.6698,4.2738-7.0132,4.8083-2.8133,1.1192-6.1668.4366-8.9547-.4886-.0971-.0322-.129.1163-.03779.1517,2.76259,1.0714,6.18129,2.1315,9.06419.9561a40.93914,40.93914,0,0,0,7.0865-5.3382C538.87469,253.9487,538.74879,253.8679,538.65769,253.9377Z" transform="translate(-78.0508 -178.7733)"/><path class="cls-6" d="M534.39119,238.2478l8.942,12.5172s8.0746-9.4913,10.3189-15.9879-1.1033-6.633-5.668-4.476C543.41939,232.458,534.39119,238.2478,534.39119,238.2478Z" transform="translate(-78.0508 -178.7733)"/><path class="cls-4" d="M537.16479,237.7098c-.0571-.0833-.13279-.0694-.0789.0147a103.57455,103.57455,0,0,0,7.5482,10.4745c.0218.0239.0564-.008.0422-.0341C543.65789,246.2973,537.79169,238.6257,537.16479,237.7098Z" transform="translate(-78.0508 -178.7733)"/><path class="cls-4" d="M544.46469,232.0612c-3.43469,1.9701-6.9869,4.1463-10.28369,6.1755-.05931.0365.41209.506.58949.7094.0678.0778.1276-.0155.0713-.0959a2.96621,2.96621,0,0,1-.2825-.4926c3.3322-2.0491,6.6614-4.1065,9.93-6.2565A.02345.02345,0,0,0,544.46469,232.0612Z" transform="translate(-78.0508 -178.7733)"/></g><g id="Boxes"><rect class="cls-3" x="494.47369" y="91.5779" width="31.4659" height="34.8444"/><rect class="cls-3" x="525.93948" y="91.5783" width="16.2475" height="34.8459"/><rect class="cls-8" x="525.93948" y="91.5783" width="16.2475" height="34.8459"/><polygon class="cls-2" points="512.877 99.108 512.211 99.108 511.71 99.108 511.424 98.528 511.024 99.108 510.481 97.915 509.966 99.108 508.493 99.108 507.821 99.108 507.578 98.312 507.349 99.108 506.912 99.108 506.912 91.578 512.877 91.578 512.877 99.108"/><path class="cls-3" d="M619.11848,302.797q-1.8048-3.71685-3.577-7.4572l-3.525-7.4947-3.4798-7.5276q-1.73145-3.7698-3.4272-7.5654,1.8054,3.7164,3.5774,7.4569l3.5247,7.4951,3.4795,7.5277Q617.42268,299.0016,619.11848,302.797Z" transform="translate(-78.0508 -178.7733)"/><path class="cls-3" d="M619.11848,272.7521q-1.6974,3.7944-3.4274,7.5652l-3.4795,7.5278-3.5247,7.495q-1.7709,3.7413-3.5774,7.4569,1.697-3.7947,3.4272-7.5655l3.4798-7.5274,3.525-7.4948Q617.31226,276.46785,619.11848,272.7521Z" transform="translate(-78.0508 -178.7733)"/><rect class="cls-3" x="406.61999" y="91.5779" width="31.4659" height="34.8444"/><rect class="cls-3" x="438.08579" y="91.5783" width="16.2475" height="34.8459"/><rect class="cls-8" x="438.08579" y="91.5783" width="16.2475" height="34.8459"/><polygon class="cls-2" points="425.023 99.108 424.357 99.108 423.857 99.108 423.571 98.528 423.17 99.108 422.627 97.915 422.112 99.108 420.639 99.108 419.967 99.108 419.724 98.312 419.495 99.108 419.058 99.108 419.058 91.578 425.023 91.578 425.023 99.108"/><path class="cls-3" d="M531.26479,302.797q-1.8048-3.71685-3.577-7.4572l-3.525-7.4947-3.47979-7.5276q-1.73147-3.7698-3.42721-7.5654,1.80555,3.7164,3.5774,7.4569l3.5247,7.4951,3.4795,7.5277Q529.569,299.0016,531.26479,302.797Z" transform="translate(-78.0508 -178.7733)"/><path class="cls-3" d="M531.26479,272.7521q-1.6974,3.7944-3.4274,7.5652l-3.4795,7.5278-3.5247,7.495q-1.7709,3.7413-3.5774,7.4569,1.69695-3.7947,3.42721-7.5655l3.47979-7.5274,3.525-7.4948Q529.45854,276.46785,531.26479,272.7521Z" transform="translate(-78.0508 -178.7733)"/><rect class="cls-3" x="80.6665" y="91.5789" width="31.4659" height="34.8444"/><rect class="cls-3" x="112.1322" y="91.5809" width="16.24759" height="34.846"/><rect class="cls-8" x="112.1322" y="91.5809" width="16.24759" height="34.846"/><polygon class="cls-2" points="99.069 99.111 98.404 99.111 97.903 99.111 97.617 98.531 97.217 99.111 96.673 97.917 96.159 99.111 94.686 99.111 94.013 99.111 93.77 98.315 93.542 99.111 93.105 99.111 93.105 91.581 99.069 91.581 99.069 99.111"/><path class="cls-3" d="M205.31129,302.7997q-1.8048-3.71685-3.577-7.4572l-3.525-7.4948-3.47989-7.5275q-1.7313-3.7698-3.4271-7.5655,1.8054,3.7164,3.5773,7.457l3.52469,7.495,3.4795,7.5277Q203.61539,299.0042,205.31129,302.7997Z" transform="translate(-78.0508 -178.7733)"/><path class="cls-3" d="M205.31129,272.7547q-1.6974,3.7944-3.4275,7.5653l-3.4795,7.5277-3.52469,7.495q-1.77075,3.7413-3.5773,7.457,1.697-3.79485,3.4271-7.5656l3.47989-7.5274,3.525-7.4948Q203.50489,276.47045,205.31129,272.7547Z" transform="translate(-78.0508 -178.7733)"/><polygon class="cls-3" points="75.443 99.116 106.905 99.116 112.128 91.579 80.666 91.579 75.443 99.116"/><polygon class="cls-8" points="75.443 99.116 106.905 99.116 112.128 91.579 80.666 91.579 75.443 99.116"/><polygon class="cls-3" points="117.351 99.118 133.551 99.118 128.328 91.581 112.128 91.581 117.351 99.118"/><rect class="cls-3" x="168.50249" y="91.5789" width="31.4659" height="34.8444"/><rect class="cls-3" x="199.96829" y="91.5809" width="16.2476" height="34.846"/><rect class="cls-8" x="199.96829" y="91.5809" width="16.2476" height="34.846"/><polygon class="cls-2" points="186.906 99.111 186.24 99.111 185.739 99.111 185.453 98.531 185.053 99.111 184.509 97.917 183.995 99.111 182.522 99.111 181.85 99.111 181.606 98.315 181.378 99.111 180.941 99.111 180.941 91.581 186.906 91.581 186.906 99.111"/><path class="cls-3" d="M293.14739,302.7997q-1.8048-3.71685-3.577-7.4572l-3.525-7.4948-3.4799-7.5275q-1.73145-3.7698-3.4272-7.5655,1.80557,3.7164,3.5774,7.457l3.5247,7.495,3.4795,7.5277Q291.45149,299.0042,293.14739,302.7997Z" transform="translate(-78.0508 -178.7733)"/><path class="cls-3" d="M293.14739,272.7547q-1.69755,3.7944-3.4275,7.5653l-3.4795,7.5277-3.5247,7.495q-1.77075,3.7413-3.5774,7.457,1.6971-3.79485,3.4272-7.5656l3.4799-7.5274,3.525-7.4948Q291.341,276.47045,293.14739,272.7547Z" transform="translate(-78.0508 -178.7733)"/><polygon class="cls-3" points="163.279 99.116 194.741 99.116 199.964 91.579 168.502 91.579 163.279 99.116"/><polygon class="cls-8" points="163.279 99.116 194.741 99.116 199.964 91.579 168.502 91.579 163.279 99.116"/><polygon class="cls-3" points="205.187 99.118 221.387 99.118 216.164 91.581 199.964 91.581 205.187 99.118"/></g><g id="Machine"><rect class="cls-5" x="22.3703" y="151.7376" width="28.1976" height="107.5466"/><rect class="cls-10" x="19.8647" y="151.7376" width="33.2683" height="10.9225"/><rect class="cls-10" x="19.8647" y="248.3617" width="33.2683" height="10.9225"/><rect class="cls-5" x="157.27089" y="151.7376" width="28.1976" height="107.5466"/><rect class="cls-10" x="154.76539" y="151.7376" width="33.2682" height="10.9225"/><rect class="cls-10" x="154.76539" y="248.3617" width="33.2682" height="10.9225"/><rect class="cls-5" x="409.18159" y="151.7376" width="28.1977" height="107.5466"/><rect class="cls-10" x="406.67609" y="151.7376" width="33.2682" height="10.9225"/><rect class="cls-10" x="406.67609" y="248.3617" width="33.2682" height="10.9225"/><rect class="cls-5" x="544.08228" y="151.7376" width="28.1976" height="107.5466"/><rect class="cls-10" x="541.57668" y="151.7376" width="33.2683" height="10.9225"/><rect class="cls-10" x="541.57668" y="248.3617" width="33.2683" height="10.9225"/><path class="cls-5" d="M658.54388,330.5109H91.4561a11.90545,11.90545,0,0,1-11.9055-11.9054h0a11.90545,11.90545,0,0,1,11.9055-11.9054H658.54388a11.90545,11.90545,0,0,1,11.9055,11.9054h0A11.90545,11.90545,0,0,1,658.54388,330.5109Z" transform="translate(-78.0508 -178.7733)"/><path class="cls-10" d="M658.54388,332.0107H91.4561a13.40525,13.40525,0,1,1,0-26.8105H658.54388a13.40525,13.40525,0,1,1,0,26.8105ZM91.4561,308.2002a10.40525,10.40525,0,1,0,0,20.8105H658.54388a10.40525,10.40525,0,1,0,0-20.8105Z" transform="translate(-78.0508 -178.7733)"/><circle class="cls-10" cx="15.6189" cy="139.8322" r="4.1608"/><path class="cls-5" d="M97.8353,318.61a4.25533,4.25533,0,0,1-.08.8h-8.17a4.04,4.04,0,0,1,0-1.6h8.17A4.25533,4.25533,0,0,1,97.8353,318.61Z" transform="translate(-78.0508 -178.7733)"/><path class="cls-10" d="M118.6698,318.6055a4.16085,4.16085,0,1,1-4.1609-4.1608A4.16082,4.16082,0,0,1,118.6698,318.6055Z" transform="translate(-78.0508 -178.7733)"/><path class="cls-5" d="M118.6745,318.61a4.25533,4.25533,0,0,1-.08.8h-8.17a4.04,4.04,0,0,1,0-1.6h8.17A4.25533,4.25533,0,0,1,118.6745,318.61Z" transform="translate(-78.0508 -178.7733)"/><path class="cls-10" d="M139.509,318.6055a4.16085,4.16085,0,1,1-4.1608-4.1608A4.1608,4.1608,0,0,1,139.509,318.6055Z" transform="translate(-78.0508 -178.7733)"/><path class="cls-5" d="M139.5138,318.61a4.26365,4.26365,0,0,1-.08.8h-8.17a4.04,4.04,0,0,1,0-1.6h8.17A4.26365,4.26365,0,0,1,139.5138,318.61Z" transform="translate(-78.0508 -178.7733)"/><circle class="cls-10" cx="78.1366" cy="139.8322" r="4.1608"/><path class="cls-5" d="M160.353,318.61a4.25533,4.25533,0,0,1-.08.8h-8.17a4.04,4.04,0,0,1,0-1.6h8.17A4.25533,4.25533,0,0,1,160.353,318.61Z" transform="translate(-78.0508 -178.7733)"/><path class="cls-10" d="M181.1875,318.6055a4.16085,4.16085,0,1,1-4.1609-4.1608A4.16082,4.16082,0,0,1,181.1875,318.6055Z" transform="translate(-78.0508 -178.7733)"/><path class="cls-5" d="M181.1922,318.61a4.25533,4.25533,0,0,1-.08.8h-8.17a4.04,4.04,0,0,1,0-1.6h8.17A4.25533,4.25533,0,0,1,181.1922,318.61Z" transform="translate(-78.0508 -178.7733)"/><circle class="cls-10" cx="119.8151" cy="139.8322" r="4.1608"/><path class="cls-5" d="M202.03149,318.61a4.25533,4.25533,0,0,1-.08.8h-8.17a4.04,4.04,0,0,1,0-1.6h8.17A4.25533,4.25533,0,0,1,202.03149,318.61Z" transform="translate(-78.0508 -178.7733)"/><path class="cls-10" d="M222.866,318.6055a4.16086,4.16086,0,1,1-4.16091-4.1608A4.16083,4.16083,0,0,1,222.866,318.6055Z" transform="translate(-78.0508 -178.7733)"/><path class="cls-5" d="M222.87069,318.61a4.25533,4.25533,0,0,1-.08.8h-8.17a4.04,4.04,0,0,1,0-1.6h8.17A4.25533,4.25533,0,0,1,222.87069,318.61Z" transform="translate(-78.0508 -178.7733)"/><path class="cls-10" d="M243.70519,318.6055a4.16085,4.16085,0,1,1-4.1608-4.1608A4.1608,4.1608,0,0,1,243.70519,318.6055Z" transform="translate(-78.0508 -178.7733)"/><path class="cls-5" d="M243.71,318.61a4.25539,4.25539,0,0,1-.08011.8H235.46a4.03456,4.03456,0,0,1,0-1.6h8.16989A4.25539,4.25539,0,0,1,243.71,318.61Z" transform="translate(-78.0508 -178.7733)"/><circle class="cls-10" cx="182.33279" cy="139.8322" r="4.1608"/><path class="cls-5" d="M264.54919,318.61a4.25533,4.25533,0,0,1-.08.8h-8.17a4.04,4.04,0,0,1,0-1.6h8.17A4.25533,4.25533,0,0,1,264.54919,318.61Z" transform="translate(-78.0508 -178.7733)"/><path class="cls-10" d="M285.38369,318.6055a4.16085,4.16085,0,1,1-4.1609-4.1608A4.16082,4.16082,0,0,1,285.38369,318.6055Z" transform="translate(-78.0508 -178.7733)"/><path class="cls-5" d="M285.38839,318.61a4.25533,4.25533,0,0,1-.08.8h-8.17a4.04,4.04,0,0,1,0-1.6h8.17A4.25533,4.25533,0,0,1,285.38839,318.61Z" transform="translate(-78.0508 -178.7733)"/><path class="cls-10" d="M306.22289,318.6055a4.16085,4.16085,0,1,1-4.1608-4.1608A4.16079,4.16079,0,0,1,306.22289,318.6055Z" transform="translate(-78.0508 -178.7733)"/><path class="cls-5" d="M306.22769,318.61a4.26365,4.26365,0,0,1-.08.8h-8.17a4.04,4.04,0,0,1,0-1.6h8.17A4.26365,4.26365,0,0,1,306.22769,318.61Z" transform="translate(-78.0508 -178.7733)"/><circle class="cls-10" cx="244.85049" cy="139.8322" r="4.1608"/><path class="cls-5" d="M327.06689,318.61a4.25533,4.25533,0,0,1-.08.8h-8.17a4.04,4.04,0,0,1,0-1.6h8.17A4.25533,4.25533,0,0,1,327.06689,318.61Z" transform="translate(-78.0508 -178.7733)"/><path class="cls-10" d="M347.90139,318.6055a4.16085,4.16085,0,1,1-4.1608-4.1608A4.1608,4.1608,0,0,1,347.90139,318.6055Z" transform="translate(-78.0508 -178.7733)"/><path class="cls-5" d="M347.90619,318.61a4.25539,4.25539,0,0,1-.0801.8h-8.1699a4.03506,4.03506,0,0,1,0-1.6h8.1699A4.25539,4.25539,0,0,1,347.90619,318.61Z" transform="translate(-78.0508 -178.7733)"/><circle class="cls-10" cx="286.52899" cy="139.8322" r="4.1608"/><path class="cls-5" d="M368.74539,318.61a4.25533,4.25533,0,0,1-.08.8h-8.17a4.04,4.04,0,0,1,0-1.6h8.17A4.25533,4.25533,0,0,1,368.74539,318.61Z" transform="translate(-78.0508 -178.7733)"/><path class="cls-10" d="M389.57989,318.6055a4.16085,4.16085,0,1,1-4.16089-4.1608A4.16081,4.16081,0,0,1,389.57989,318.6055Z" transform="translate(-78.0508 -178.7733)"/><path class="cls-5" d="M389.58459,318.61a4.25533,4.25533,0,0,1-.08.8h-8.17a4.04,4.04,0,0,1,0-1.6h8.17A4.25533,4.25533,0,0,1,389.58459,318.61Z" transform="translate(-78.0508 -178.7733)"/><path class="cls-10" d="M410.41909,318.6055a4.16085,4.16085,0,1,1-4.1608-4.1608A4.1608,4.1608,0,0,1,410.41909,318.6055Z" transform="translate(-78.0508 -178.7733)"/><path class="cls-5" d="M410.42389,318.61a4.25539,4.25539,0,0,1-.0801.8h-8.1699a4.03506,4.03506,0,0,1,0-1.6h8.1699A4.25539,4.25539,0,0,1,410.42389,318.61Z" transform="translate(-78.0508 -178.7733)"/><circle class="cls-10" cx="349.04669" cy="139.8322" r="4.1608"/><path class="cls-5" d="M431.26309,318.61a4.25533,4.25533,0,0,1-.08.8h-8.17a4.04,4.04,0,0,1,0-1.6h8.17A4.25533,4.25533,0,0,1,431.26309,318.61Z" transform="translate(-78.0508 -178.7733)"/><path class="cls-10" d="M452.09759,318.6055a4.16085,4.16085,0,1,1-4.1609-4.1608A4.16082,4.16082,0,0,1,452.09759,318.6055Z" transform="translate(-78.0508 -178.7733)"/><path class="cls-5" d="M452.10229,318.61a4.25533,4.25533,0,0,1-.08.8h-8.17a4.04,4.04,0,0,1,0-1.6h8.17A4.25533,4.25533,0,0,1,452.10229,318.61Z" transform="translate(-78.0508 -178.7733)"/><circle class="cls-10" cx="390.72519" cy="139.8322" r="4.1608"/><path class="cls-5" d="M472.94159,318.61a4.25533,4.25533,0,0,1-.08.8h-8.17a4.04,4.04,0,0,1,0-1.6h8.17A4.25533,4.25533,0,0,1,472.94159,318.61Z" transform="translate(-78.0508 -178.7733)"/><circle class="cls-10" cx="411.56439" cy="139.8322" r="4.1608"/><path class="cls-5" d="M493.78079,318.61a4.25533,4.25533,0,0,1-.08.8h-8.17a4.04,4.04,0,0,1,0-1.6h8.17A4.25533,4.25533,0,0,1,493.78079,318.61Z" transform="translate(-78.0508 -178.7733)"/><path class="cls-10" d="M514.61529,318.6055a4.16085,4.16085,0,1,1-4.1608-4.1608A4.1608,4.1608,0,0,1,514.61529,318.6055Z" transform="translate(-78.0508 -178.7733)"/><path class="cls-5" d="M514.62009,318.61a4.25538,4.25538,0,0,1-.08009.8h-8.16991a4.03555,4.03555,0,0,1,0-1.6H514.54A4.25538,4.25538,0,0,1,514.62009,318.61Z" transform="translate(-78.0508 -178.7733)"/><circle class="cls-10" cx="453.24289" cy="139.8322" r="4.1608"/><path class="cls-5" d="M535.45929,318.61a4.25533,4.25533,0,0,1-.08.8h-8.17a4.04,4.04,0,0,1,0-1.6h8.17A4.25533,4.25533,0,0,1,535.45929,318.61Z" transform="translate(-78.0508 -178.7733)"/><path class="cls-10" d="M556.29379,318.6055a4.16085,4.16085,0,1,1-4.1609-4.1608A4.16082,4.16082,0,0,1,556.29379,318.6055Z" transform="translate(-78.0508 -178.7733)"/><path class="cls-5" d="M556.29849,318.61a4.25533,4.25533,0,0,1-.08.8h-8.17a4.04,4.04,0,0,1,0-1.6h8.17A4.25533,4.25533,0,0,1,556.29849,318.61Z" transform="translate(-78.0508 -178.7733)"/><path class="cls-10" d="M577.133,318.6055a4.16086,4.16086,0,1,1-4.16081-4.1608A4.1608,4.1608,0,0,1,577.133,318.6055Z" transform="translate(-78.0508 -178.7733)"/><path class="cls-5" d="M577.13779,318.61a4.26365,4.26365,0,0,1-.08.8h-8.17a4.04,4.04,0,0,1,0-1.6h8.17A4.26365,4.26365,0,0,1,577.13779,318.61Z" transform="translate(-78.0508 -178.7733)"/><circle class="cls-10" cx="515.76058" cy="139.8322" r="4.1608"/><path class="cls-5" d="M597.977,318.61a4.25533,4.25533,0,0,1-.08.8h-8.17a4.04,4.04,0,0,1,0-1.6h8.17A4.25533,4.25533,0,0,1,597.977,318.61Z" transform="translate(-78.0508 -178.7733)"/><path class="cls-10" d="M618.81148,318.6055a4.16085,4.16085,0,1,1-4.1609-4.1608A4.16082,4.16082,0,0,1,618.81148,318.6055Z" transform="translate(-78.0508 -178.7733)"/><path class="cls-5" d="M618.81618,318.61a4.25533,4.25533,0,0,1-.08.8h-8.17a4.04,4.04,0,0,1,0-1.6h8.17A4.25533,4.25533,0,0,1,618.81618,318.61Z" transform="translate(-78.0508 -178.7733)"/><circle class="cls-10" cx="557.43908" cy="139.8322" r="4.1608"/><path class="cls-5" d="M639.65548,318.61a4.25533,4.25533,0,0,1-.08.8h-8.17a4.04,4.04,0,0,1,0-1.6h8.17A4.25533,4.25533,0,0,1,639.65548,318.61Z" transform="translate(-78.0508 -178.7733)"/><path class="cls-10" d="M660.49,318.6055a4.16086,4.16086,0,1,1-4.16092-4.1608A4.16083,4.16083,0,0,1,660.49,318.6055Z" transform="translate(-78.0508 -178.7733)"/><path class="cls-5" d="M660.49468,318.61a4.25533,4.25533,0,0,1-.08.8h-8.17a4.04,4.04,0,0,1,0-1.6h8.17A4.25533,4.25533,0,0,1,660.49468,318.61Z" transform="translate(-78.0508 -178.7733)"/><rect class="cls-10" x="218.46949" y="21.0955" width="156.9594" height="238.1887"/><polygon class="cls-5" points="218.469 126.427 181.399 126.427 181.399 78.733 196.411 64.278 218.469 64.278 218.469 126.427"/><polygon class="cls-5" points="375.429 126.427 412.499 126.427 412.499 78.733 397.487 64.278 375.429 64.278 375.429 126.427"/><rect class="cls-11" x="236.52589" y="40.2852" width="120.8466" height="64.9641"/><rect class="cls-9" x="257.48769" y="40.2852" width="78.923" height="64.9641"/><rect class="cls-4" x="261.90569" y="43.9218" width="70.087" height="57.6908"/><path class="cls-5" d="M332.10609,229.6425a6.94245,6.94245,0,1,1-6.9425-6.9425A6.9424,6.9424,0,0,1,332.10609,229.6425Z" transform="translate(-78.0508 -178.7733)"/><path class="cls-6" d="M330.94219,229.6425a5.77855,5.77855,0,1,1-5.7786-5.7786A5.77849,5.77849,0,0,1,330.94219,229.6425Z" transform="translate(-78.0508 -178.7733)"/><path class="cls-3" d="M330.94,229.6449H319.39a5.775,5.775,0,1,1,11.55,0Z" transform="translate(-78.0508 -178.7733)"/><path class="cls-12" d="M325.12,229.649h-5.73a5.79338,5.79338,0,0,1,1.64-4.04Z" transform="translate(-78.0508 -178.7733)"/><polygon class="cls-4" points="245.975 46.627 246.28 46.559 247.559 51.255 246.869 51.409 245.975 46.627"/><path class="cls-5" d="M332.10609,251.543a6.94245,6.94245,0,1,1-6.9425-6.9425A6.9424,6.9424,0,0,1,332.10609,251.543Z" transform="translate(-78.0508 -178.7733)"/><path class="cls-6" d="M330.94219,251.543a5.77855,5.77855,0,1,1-5.7786-5.7786A5.77849,5.77849,0,0,1,330.94219,251.543Z" transform="translate(-78.0508 -178.7733)"/><path class="cls-3" d="M330.94,251.5454H319.39a5.775,5.775,0,1,1,11.55,0Z" transform="translate(-78.0508 -178.7733)"/><path class="cls-12" d="M325.12,251.5495h-5.73a5.79338,5.79338,0,0,1,1.64-4.04Z" transform="translate(-78.0508 -178.7733)"/><polygon class="cls-4" points="247.086 68.425 247.398 68.437 247.422 73.304 246.716 73.276 247.086 68.425"/><path class="cls-5" d="M332.10609,273.4435a6.94245,6.94245,0,1,1-6.9425-6.9425A6.9424,6.9424,0,0,1,332.10609,273.4435Z" transform="translate(-78.0508 -178.7733)"/><path class="cls-6" d="M330.94219,273.4435a5.77855,5.77855,0,1,1-5.7786-5.7786A5.77849,5.77849,0,0,1,330.94219,273.4435Z" transform="translate(-78.0508 -178.7733)"/><path class="cls-3" d="M330.94,273.4459H319.39a5.775,5.775,0,1,1,11.55,0Z" transform="translate(-78.0508 -178.7733)"/><path class="cls-12" d="M325.12,273.45h-5.73a5.79338,5.79338,0,0,1,1.64-4.04Z" transform="translate(-78.0508 -178.7733)"/><polygon class="cls-4" points="249.268 90.786 249.537 90.945 247.252 95.242 246.644 94.883 249.268 90.786"/><rect class="cls-3" x="339.11099" y="43.1195" width="15.2969" height="17.7355"/><path class="cls-10" d="M418.50839,256.4771h0a1.34661,1.34661,0,0,1-1.3466-1.3466V244.3977a1.34661,1.34661,0,0,1,1.3466-1.3466h0a1.34652,1.34652,0,0,1,1.3465,1.3466v10.7328A1.34652,1.34652,0,0,1,418.50839,256.4771Z" transform="translate(-78.0508 -178.7733)"/><path class="cls-10" d="M422.70959,256.4771h0a1.34652,1.34652,0,0,1-1.3465-1.3466V244.3977a1.34652,1.34652,0,0,1,1.3465-1.3466h0a1.34661,1.34661,0,0,1,1.3466,1.3466v10.7328A1.34661,1.34661,0,0,1,422.70959,256.4771Z" transform="translate(-78.0508 -178.7733)"/><path class="cls-10" d="M426.91089,256.4771h0a1.34661,1.34661,0,0,1-1.3466-1.3466V244.3977a1.34661,1.34661,0,0,1,1.3466-1.3466h0a1.34652,1.34652,0,0,1,1.3465,1.3466v10.7328A1.34652,1.34652,0,0,1,426.91089,256.4771Z" transform="translate(-78.0508 -178.7733)"/><path class="cls-10" d="M431.11209,256.4771h0a1.34659,1.34659,0,0,1-1.3465-1.3466V244.3977a1.34659,1.34659,0,0,1,1.3465-1.3466h0a1.34661,1.34661,0,0,1,1.3466,1.3466v10.7328A1.34661,1.34661,0,0,1,431.11209,256.4771Z" transform="translate(-78.0508 -178.7733)"/><path class="cls-3" d="M420.00479,261.9917a1.49645,1.49645,0,1,1-1.4964-1.4964A1.49639,1.49639,0,0,1,420.00479,261.9917Z" transform="translate(-78.0508 -178.7733)"/><path class="cls-3" d="M424.20609,261.9917a1.49645,1.49645,0,1,1-1.4965-1.4964A1.49641,1.49641,0,0,1,424.20609,261.9917Z" transform="translate(-78.0508 -178.7733)"/><circle class="cls-2" cx="348.86009" cy="83.2184" r="1.4964"/><path class="cls-3" d="M432.60859,261.9917a1.49645,1.49645,0,1,1-1.4965-1.4964A1.49641,1.49641,0,0,1,432.60859,261.9917Z" transform="translate(-78.0508 -178.7733)"/><path class="cls-2" d="M420.00479,266.1485a1.49645,1.49645,0,1,1-1.4964-1.4965A1.49645,1.49645,0,0,1,420.00479,266.1485Z" transform="translate(-78.0508 -178.7733)"/><path class="cls-2" d="M424.20609,266.1485a1.49645,1.49645,0,1,1-1.4965-1.4965A1.49647,1.49647,0,0,1,424.20609,266.1485Z" transform="translate(-78.0508 -178.7733)"/><path class="cls-3" d="M428.40729,266.1485a1.4964,1.4964,0,1,1-1.4964-1.4965A1.49645,1.49645,0,0,1,428.40729,266.1485Z" transform="translate(-78.0508 -178.7733)"/><path class="cls-2" d="M432.60859,266.1485a1.49645,1.49645,0,1,1-1.4965-1.4965A1.49647,1.49647,0,0,1,432.60859,266.1485Z" transform="translate(-78.0508 -178.7733)"/><path class="cls-2" d="M420.00479,270.3052a1.49645,1.49645,0,1,1-1.4964-1.4964A1.49647,1.49647,0,0,1,420.00479,270.3052Z" transform="translate(-78.0508 -178.7733)"/><path class="cls-3" d="M424.20609,270.3052a1.49645,1.49645,0,1,1-1.4965-1.4964A1.49649,1.49649,0,0,1,424.20609,270.3052Z" transform="translate(-78.0508 -178.7733)"/><path class="cls-2" d="M428.40729,270.3052a1.4964,1.4964,0,1,1-1.4964-1.4964A1.49647,1.49647,0,0,1,428.40729,270.3052Z" transform="translate(-78.0508 -178.7733)"/><path class="cls-3" d="M432.60859,270.3052a1.49645,1.49645,0,1,1-1.4965-1.4964A1.49649,1.49649,0,0,1,432.60859,270.3052Z" transform="translate(-78.0508 -178.7733)"/><path class="cls-3" d="M420.00479,274.462a1.49645,1.49645,0,1,1-1.4964-1.4964A1.49639,1.49639,0,0,1,420.00479,274.462Z" transform="translate(-78.0508 -178.7733)"/><path class="cls-3" d="M424.20609,274.462a1.49645,1.49645,0,1,1-1.4965-1.4964A1.49641,1.49641,0,0,1,424.20609,274.462Z" transform="translate(-78.0508 -178.7733)"/><circle class="cls-2" cx="348.86009" cy="95.6887" r="1.4964"/><path class="cls-3" d="M432.60859,274.462a1.49645,1.49645,0,1,1-1.4965-1.4964A1.49641,1.49641,0,0,1,432.60859,274.462Z" transform="translate(-78.0508 -178.7733)"/><rect class="cls-4" x="215.14409" y="248.3617" width="163.6102" height="10.9225"/><rect class="cls-4" x="239.94769" y="204.8334" width="2.7474" height="34.5843"/><rect class="cls-4" x="246.12849" y="204.8334" width="2.7475" height="34.5843"/><rect class="cls-4" x="252.30939" y="204.8334" width="2.7475" height="34.5843"/><rect class="cls-4" x="258.49029" y="204.8334" width="2.7474" height="34.5843"/><rect class="cls-4" x="264.67109" y="204.8334" width="2.7475" height="34.5843"/><rect class="cls-4" x="270.85199" y="204.8334" width="2.7475" height="34.5843"/><rect class="cls-4" x="277.03289" y="204.8334" width="2.7474" height="34.5843"/><rect class="cls-4" x="283.21369" y="204.8334" width="2.74751" height="34.5843"/><rect class="cls-4" x="289.39459" y="204.8334" width="2.7475" height="34.5843"/><rect class="cls-4" x="295.57549" y="204.8334" width="2.7474" height="34.5843"/><rect class="cls-4" x="301.75629" y="204.8334" width="2.7475" height="34.5843"/><rect class="cls-4" x="307.9372" y="204.8334" width="2.74749" height="34.5843"/><rect class="cls-4" x="314.11809" y="204.8334" width="2.7474" height="34.5843"/><rect class="cls-4" x="320.29889" y="204.8334" width="2.7475" height="34.5843"/><rect class="cls-4" x="326.47979" y="204.8334" width="2.7475" height="34.5843"/><rect class="cls-4" x="332.66069" y="204.8334" width="2.7474" height="34.5843"/><rect class="cls-4" x="338.84149" y="204.8334" width="2.7475" height="34.5843"/><rect class="cls-4" x="345.02239" y="204.8334" width="2.7475" height="34.5843"/><rect class="cls-4" x="351.20329" y="204.8334" width="2.7474" height="34.5843"/><rect class="cls-2" x="237.90209" y="115.7792" width="5.186" height="37.4582"/><rect class="cls-11" x="237.90169" y="121.6021" width="5.1866" height="31.6324"/><rect class="cls-3" x="236.0692" y="119.0887" width="8.85169" height="2.5134"/><rect class="cls-2" x="250.76609" y="115.7792" width="5.1859" height="37.4582"/><rect class="cls-11" x="250.76309" y="135.7665" width="5.1866" height="17.468"/><rect class="cls-3" x="248.93059" y="133.253" width="8.8601" height="2.5135"/><rect class="cls-2" x="263.63009" y="115.7792" width="5.1859" height="37.4582"/><rect class="cls-11" x="263.63289" y="124.7293" width="5.1867" height="28.5052"/><rect class="cls-3" x="261.79199" y="122.2158" width="8.8601" height="2.5135"/><rect class="cls-2" x="276.49409" y="115.7792" width="5.1859" height="37.4582"/><rect class="cls-11" x="276.49439" y="121.6021" width="5.1865" height="31.6324"/><rect class="cls-3" x="274.66179" y="119.0887" width="8.8517" height="2.5134"/><rect class="cls-2" x="289.35809" y="115.7792" width="5.1859" height="37.4582"/><rect class="cls-11" x="289.35579" y="118.2985" width="5.1865" height="34.936"/><rect class="cls-3" x="287.5232" y="115.7767" width="8.86009" height="2.5218"/><rect class="cls-5" x="304.50379" y="115.7767" width="16.3906" height="16.3906"/><rect class="cls-5" x="304.50379" y="136.8438" width="16.3906" height="16.3907"/><circle class="cls-3" cx="312.69909" cy="123.972" r="5.4549"/><path class="cls-11" d="M396.20479,323.8125a5.4549,5.4549,0,1,1-5.4549-5.4549A5.45482,5.45482,0,0,1,396.20479,323.8125Z" transform="translate(-78.0508 -178.7733)"/><rect class="cls-5" x="236.52589" y="5.6532" width="13.0109" height="15.4423"/><rect class="cls-10" x="234.29599" width="17.4708" height="7.6485"/><rect class="cls-5" x="261.96529" y="5.6532" width="13.01091" height="15.4423"/><rect class="cls-10" x="259.73529" width="17.47091" height="7.6485"/><rect class="cls-5" x="350.18899" y="115.7767" width="7.1835" height="37.4578"/><rect class="cls-4" x="352.5222" y="118.377" width="2.51709" height="32.2571"/><rect class="cls-2" x="352.9262" y="121.7655" width="1.70919" height="12.7428"/><path class="cls-3" d="M435.42329,301.6085a3.59175,3.59175,0,1,1-3.5917-3.5918A3.59175,3.59175,0,0,1,435.42329,301.6085Z" transform="translate(-78.0508 -178.7733)"/><rect class="cls-5" x="338.36229" y="115.7767" width="7.1834" height="37.4578"/><rect class="cls-4" x="340.69549" y="118.377" width="2.5171" height="32.2571"/><rect class="cls-2" x="341.09939" y="134.5083" width="1.7092" height="9.4847"/><path class="cls-3" d="M423.59649,322.7663a3.5917,3.5917,0,1,1-3.5917-3.5917A3.59171,3.59171,0,0,1,423.59649,322.7663Z" transform="translate(-78.0508 -178.7733)"/><rect class="cls-5" x="326.53549" y="115.7767" width="7.1835" height="37.4578"/><rect class="cls-4" x="328.86869" y="118.377" width="2.5171" height="32.2571"/><rect class="cls-2" x="329.27259" y="121.7655" width="1.7093" height="12.7428"/><path class="cls-3" d="M411.76979,297.2904a3.59175,3.59175,0,1,1-3.59179-3.5917A3.59179,3.59179,0,0,1,411.76979,297.2904Z" transform="translate(-78.0508 -178.7733)"/></g><g id="Character_1" data-name="Character 1"><path class="cls-13" d="M213.48449,392.7037s.2461,29.0929.2454,29.1132c.0178,5.5639.1326,10.4414.4275,12.959a.08571.08571,0,0,0,.0054.0409,3.88627,3.88627,0,0,0,.416,1.7173c.0131.0139.0194.0277.0327.0349,1.65951,1.1164,46.1274,2.2709,47.6914,1.7889,1.5706-.475.3143-4.9783-1.3757-6.3999-1.7035-1.4221-18.5243-9.4782-18.5243-9.4782l-.5216-29.0781Z" transform="translate(-78.0508 -178.7733)"/><path class="cls-2" d="M215.75589,436.8331c.31.04.67.08,1.09.13C216.42589,436.9231,216.06589,436.8831,215.75589,436.8331Z" transform="translate(-78.0508 -178.7733)"/><path class="cls-2" d="M255.49589,428.9331c.51.26,1.01.51,1.47.76C256.50589,429.4531,256.00589,429.1931,255.49589,428.9331Z" transform="translate(-78.0508 -178.7733)"/><path class="cls-2" d="M260.92589,431.9531a1.04529,1.04529,0,0,1,.21011.21c-.07011-.07-.14011-.14-.21011-.2a6.67215,6.67215,0,0,0-.84989-.57A8.29359,8.29359,0,0,1,260.92589,431.9531Z" transform="translate(-78.0508 -178.7733)"/><path class="cls-2" d="M262.40589,434.1931a8.13546,8.13546,0,0,1,.36,1.05A10.86048,10.86048,0,0,0,262.40589,434.1931Z" transform="translate(-78.0508 -178.7733)"/><path class="cls-2" d="M262.93589,437.5931a4.02931,4.02931,0,0,0-.01-1.66A3.86245,3.86245,0,0,1,262.93589,437.5931Z" transform="translate(-78.0508 -178.7733)"/><path class="cls-4" d="M245.12759,422.496c-2.9615-.4877-6.5597.042-8.7689,2.1917-.08569.0832.0339.2036.1289.1716a41.47468,41.47468,0,0,1,8.6362-1.9903A.18871.18871,0,0,0,245.12759,422.496Z" transform="translate(-78.0508 -178.7733)"/><path class="cls-4" d="M247.28409,423.7339c-2.9615-.4878-6.5596.0419-8.7689,2.1916-.0858.0832.0341.2037.1289.1714a41.4902,41.4902,0,0,1,8.6362-1.9901A.18867.18867,0,0,0,247.28409,423.7339Z" transform="translate(-78.0508 -178.7733)"/><path class="cls-4" d="M249.44059,424.9718c-2.9615-.4878-6.5597.0419-8.7689,2.1916-.0856.0833.034.2036.129.1715a41.4834,41.4834,0,0,1,8.636-1.9902A.18865.18865,0,0,0,249.44059,424.9718Z" transform="translate(-78.0508 -178.7733)"/><path class="cls-3" d="M262.93589,437.5931a1.17065,1.17065,0,0,1-.31.57.80269.80269,0,0,1-.32.19,9.06015,9.06015,0,0,1-1.41.1h-.02c-.18,0-.37.01-.57.01-1.97.03-5.22989,0-9.13-.07q-.645-.015-1.32-.03c-.62-.01-1.25-.02-1.9-.04-.45-.01-.91-.02-1.37-.03-1.84-.04-3.75989-.1-5.69989-.16-.47011-.01-.95011-.02-1.43011-.03-1.34-.05-2.68-.09-4.02-.14-.46-.02-.91-.03-1.37-.05-.42-.01-.85-.03-1.27-.05-.46-.01-.92-.03-1.38-.05-.14-.01-.27-.01-.4-.02-.45-.02-.9-.03-1.34-.05-3.74-.16-7.15-.34-9.78-.52-.39-.03-.77-.06-1.13-.09s-.71-.06-1.03-.08c-.32-.03-.62-.06-.89-.09-.42-.05-.78-.09-1.09-.13-.19-.03-.36-.06-.51-.08a.23535.23535,0,0,0-.08-.02c-.14-.03-.25-.05-.33989-.08a.80757.80757,0,0,1-.22011-.09c-.01-.01-.02-.01-.02989-.03a7.61969,7.61969,0,0,1-.41011-1.72c-.01-.01-.01-.02-.01-.04-.04-.31-.07-.66-.1-1.05-.07-.77-.12-1.67-.16-2.68-.00989-.21-.02-.43-.03-.65v-.25c-.01-.29-.02-.6-.03-.91-.00989-.22-.00989-.45-.02-.68-.01-.38-.02-.78-.03-1.18,0-.22,0-.43-.01-.65,0-.44-.01-.89-.02-1.35-.02-1.14-.03-2.33-.03-3.56,0-.02-.05-5.97-.05-5.97l28.76.57-.03,5.58v.49s5.32,2.55,10.28,5.03c.28.14.55.28.82.41.27.14.54.28.81.41.4.21.8.41,1.18.6.51.26,1.01.52,1.47.76.24.13.46.25.68.36.33.18.65.34.94.5s.57.31.81.45c.25.14.48.27.68011.39a6.67215,6.67215,0,0,1,.84989.57c.07.06.14.13.21011.2a5.19406,5.19406,0,0,1,.59989.75c.12.19.24.39.36.61.1.21.21.44.31.67a10.86048,10.86048,0,0,1,.36,1.05c.06011.23.11.46.16.69A4.02931,4.02931,0,0,1,262.93589,437.5931Z" transform="translate(-78.0508 -178.7733)"/><path class="cls-3" d="M262.94,437.59a1.17065,1.17065,0,0,1-.31.57.80269.80269,0,0,1-.32.19,9.06015,9.06015,0,0,1-1.41.1h-.02c-.18,0-.37.01-.57.01-1.97.03-5.23,0-9.13-.07q-.645-.015-1.32-.03c-.4-.01-.81-.01-1.23-.03-.22,0-.44,0-.67-.01-.45-.01-.91-.02-1.37-.03-1.84-.04-3.76-.1-5.7-.16-.47-.01-.95-.02-1.43-.03-1.34-.05-2.68-.09-4.02-.14-.46-.02-.91-.03-1.37-.05-.42-.01-.85-.03-1.27-.05-.46-.01-.92-.03-1.38-.05-.14-.01-.27-.01-.4-.02-.45-.02-.9-.03-1.34-.05-3.74-.16-7.15-.34-9.78-.52-.39-.03-.77-.06-1.13-.09s-.71-.06-1.03-.08c-.32-.03-.62-.06-.89-.09-.42-.05-.78-.09-1.09-.13-.19-.03-.36-.06-.51-.08a.23535.23535,0,0,0-.08-.02c-.14-.03-.25-.05-.34-.08a.80808.80808,0,0,1-.22-.09c-.01-.01-.02-.01-.03-.03a7.62231,7.62231,0,0,1-.41-1.72c-.01-.01-.01-.02-.01-.04-.04-.31-.07-.66-.1-1.05-.07-.77-.12-1.67-.16-2.68-.01-.21-.02-.43-.03-.65v-.25c-.01-.29-.02-.6-.03-.91-.01-.22-.01-.45-.02-.68-.01-.38-.02-.78-.03-1.18,0-.22,0-.43-.01-.65,0-.44-.01-.89-.02-1.35-.02-1.14-.03-2.33-.03-3.56,0-.02-.05-5.97-.05-5.97l28.76.57-.03,5.58v.49s.63.3,1.67.8c1.96.95,5.36,2.61,8.61,4.23.28.14.55.28.82.41.27.14.54.28.81.41.4.21.8.41,1.18.6.51.26,1.01.52,1.47.76.24.13.46.25.68.36.33.18.65.34.94.5s.57.31.81.45c.25.14.48.27.68.39a6.66716,6.66716,0,0,1,.85.57c.07.06.14.13.21.2a5.187,5.187,0,0,1,.6.75c.12.19.24.39.36.61.1.21.21.44.31.67a10.86048,10.86048,0,0,1,.36,1.05c.06.23.11.46.16.69A4.02931,4.02931,0,0,1,262.94,437.59Z" transform="translate(-78.0508 -178.7733)"/><path class="cls-5" d="M214.05589,433.7231c.03.39.06.74.1,1.05C214.11589,434.4631,214.076,434.1031,214.05589,433.7231Z" transform="translate(-78.0508 -178.7733)"/><path class="cls-5" d="M214.16589,434.8131a7.61969,7.61969,0,0,0,.41011,1.72,3.98043,3.98043,0,0,1-.42011-1.76C214.15589,434.7931,214.15589,434.8031,214.16589,434.8131Z" transform="translate(-78.0508 -178.7733)"/><polygon class="cls-5" points="164.355 243.22 164.375 243.22 164.355 243.71 164.355 243.22"/><path class="cls-5" d="M262.62589,438.1631a.70118.70118,0,0,1-.32.2,9.717,9.717,0,0,1-1.41.09,9.06015,9.06015,0,0,0,1.41-.1A.80269.80269,0,0,0,262.62589,438.1631Z" transform="translate(-78.0508 -178.7733)"/><path class="cls-4" d="M261.84529,436.6217c-7.4905-.3785-37.738-1.1984-45.1712-1.0035-.0604.0017-.0615.0426-.001.0471,7.416.5375,37.6692,1.1122,45.1694,1.0792C262.00039,436.7438,262.00339,436.6298,261.84529,436.6217Z" transform="translate(-78.0508 -178.7733)"/><path class="cls-8" d="M262.94,437.59a1.17065,1.17065,0,0,1-.31.57.80269.80269,0,0,1-.32.19,9.06015,9.06015,0,0,1-1.41.1h-.02c-.18,0-.37.01-.57.01-1.97.03-5.23,0-9.13-.07q-.645-.015-1.32-.03c-.4-.01-.81-.01-1.23-.03l-4.55-15.05c1.96.95,5.36,2.61,8.61,4.23.28.14.55.28.82.41.27.14.54.28.81.41.4.21.8.41,1.18.6.51.26,1.01.52,1.47.76.24.13.46.25.68.36.33.18.65.34.94.5s.57.31.81.45c.25.14.48.27.68.39a6.66716,6.66716,0,0,1,.85.57c.07.06.14.13.21.2a5.187,5.187,0,0,1,.6.75c.12.19.24.39.36.61.1.21.21.44.31.67a10.86048,10.86048,0,0,1,.36,1.05c.06.23.11.46.16.69A4.02931,4.02931,0,0,1,262.94,437.59Z" transform="translate(-78.0508 -178.7733)"/><path class="cls-4" d="M243.95629,419.6066c.30571-.1475,3.96771-46.0884,3.96771-63.5346,0-19.3235.90449-50.9525,2.49469-58.0658,0,0,5.1056-15.3001,6.6157-28.7118.0028-.0241-34.4187-.0047-34.4187-.0047s-5.6644,13.3662-4.3734,32.6592c.0799,1.1944-.86129,38.6281-1.9414,49.7639-1.4364,14.8103-4.5132,67.8938-4.5132,67.8938Z" transform="translate(-78.0508 -178.7733)"/><path class="cls-5" d="M243.162,414.3801c-4.83921-.2595-24.24731-.3128-29.08451-.0038a.07823.07823,0,0,0,.0038.1563c4.8414.3082,24.2493.256,29.0843-.0041A.07427.07427,0,0,0,243.162,414.3801Z" transform="translate(-78.0508 -178.7733)"/><path class="cls-5" d="M243.93659,291.269a.13287.13287,0,0,0-.2655.0065c-.1298,15.5329-.3374,31.0637-.7885,46.5912-.4511,15.5237-1.1982,31.0367-2.0752,46.5415q-.3657,6.46485-.7908,12.926c-.2817,4.384-.6504,8.7721-.7997,13.1628-.0042.1255.2072.1523.2232.0246.4792-3.8052.7415-7.6402,1.0482-11.4624.3124-3.8927.5864-7.7886.8524-11.6847.5317-7.7899.9642-15.5863,1.3398-23.3852q1.12035-23.2632,1.3338-46.5653C244.09789,308.7068,244.092,299.9855,243.93659,291.269Z" transform="translate(-78.0508 -178.7733)"/><path class="cls-13" d="M246.63239,393.9503s1.1602,29.0708,1.1601,29.091c.1927,5.5606.4607,10.4321.83451,12.9393a.08556.08556,0,0,0,.00679.0406,3.88647,3.88647,0,0,0,.4697,1.7034c.01351.0134.0203.0271.0339.0338,1.6937,1.0638,46.1759.8203,47.724.2894,1.5549-.5241.1577-4.9857-1.5761-6.3535-1.7474-1.3679-18.813-8.8915-18.813-8.8915l-1.4352-29.0473Z" transform="translate(-78.0508 -178.7733)"/><path class="cls-2" d="M250.28949,437.9865c.3111.0302.6722.0589,1.09351.0956C250.962,438.0554,250.60089,438.0267,250.28949,437.9865Z" transform="translate(-78.0508 -178.7733)"/><path class="cls-2" d="M289.76159,428.8416c.5179.2438,1.0255.4779,1.4931.7133C290.78749,429.3295,290.27949,429.0854,289.76159,428.8416Z" transform="translate(-78.0508 -178.7733)"/><path class="cls-2" d="M295.28379,431.6894a1.04167,1.04167,0,0,1,.2165.2033c-.0721-.0678-.14429-.1355-.2162-.1933a6.6647,6.6647,0,0,0-.8674-.543A8.28526,8.28526,0,0,1,295.28379,431.6894Z" transform="translate(-78.0508 -178.7733)"/><path class="cls-2" d="M296.83349,433.8818a8.13735,8.13735,0,0,1,.3928,1.0382A10.878,10.878,0,0,0,296.83349,433.8818Z" transform="translate(-78.0508 -178.7733)"/><path class="cls-2" d="M297.47009,437.2635a4.03026,4.03026,0,0,0-.0622-1.6589A3.86349,3.86349,0,0,1,297.47009,437.2635Z" transform="translate(-78.0508 -178.7733)"/><path class="cls-4" d="M279.19609,422.7335c-2.9754-.3944-6.55509.2481-8.6957,2.4661-.083.0859.0403.2024.1343.1674a41.47839,41.47839,0,0,1,8.5694-2.2607A.18864.18864,0,0,0,279.19609,422.7335Z" transform="translate(-78.0508 -178.7733)"/><path class="cls-4" d="M281.39039,423.903c-2.97539-.3945-6.5551.248-8.6957,2.4661-.0831.0858.0406.2025.13431.1673a41.48306,41.48306,0,0,1,8.56939-2.2606A.18864.18864,0,0,0,281.39039,423.903Z" transform="translate(-78.0508 -178.7733)"/><path class="cls-4" d="M283.58479,425.0725c-2.9754-.3945-6.5551.248-8.6957,2.4661-.083.0859.0403.2024.1343.1673a41.48483,41.48483,0,0,1,8.5692-2.2606A.18863.18863,0,0,0,283.58479,425.0725Z" transform="translate(-78.0508 -178.7733)"/><path class="cls-3" d="M297.47009,437.2635a1.17132,1.17132,0,0,1-.292.5794.80323.80323,0,0,1-.3138.2,9.06178,9.06178,0,0,1-1.4062.1442l-.02.0006c-.1799.0057-.3695.0217-.5694.028-1.9681.0919-5.2274.1643-9.12769.2169q-.64517.00525-1.32031.0115c-.62.0095-1.25.0193-1.9003.0197-.4501.0042-.9102.0087-1.3703.0131-1.8403.0178-3.7612.0182-5.7022.0192-.4701.0048-.9501.0099-1.4303.015-1.3408-.0079-2.6814-.0058-4.0223-.0136-.4604-.0056-.9105-.0014-1.3709-.007-.4202.0032-.8506-.0033-1.271-.01-.4601.0044-.92039-.0011-1.3809-.0067-.1402-.0055-.2702-.0014-.4004-.0073-.4504-.0059-.9005-.0018-1.3409-.0079-3.74319-.0424-7.15719-.1152-9.7915-.2124-.39069-.0178-.7715-.0358-1.1323-.0545-.3608-.0186-.7115-.0377-1.032-.0475-.3208-.02-.6216-.0405-.89239-.0621-.42131-.0367-.78241-.0654-1.09351-.0956-.1909-.024-.3618-.0487-.5123-.064a.23508.23508,0,0,0-.0806-.0174c-.1409-.0256-.2514-.0421-.3423-.0693a.80674.80674,0,0,1-.2227-.0831c-.0104-.0096-.0204-.0093-.0309-.029a7.61738,7.61738,0,0,1-.4639-1.7063c-.0103-.0096-.0107-.0196-.0113-.0396-.0497-.3086-.0907-.6575-.1329-1.0464-.0942-.7674-.1724-1.6654-.2442-2.6736-.0165-.2096-.03339-.4292-.05039-.6488l-.00781-.2499c-.0191-.2895-.0389-.599-.0586-.9085-.0169-.2196-.0241-.4495-.0413-.6791-.022-.3795-.0446-.779-.0671-1.1785-.007-.2199-.0136-.4298-.0305-.6493-.0138-.4398-.038-.8893-.0624-1.3488-.0558-1.1387-.1032-2.3278-.1418-3.5573-.0007-.0199-.2376-5.9654-.2376-5.9654l28.7637-.3341.1453,5.5782.0154.4898s5.3976,2.3815,10.4331,4.7044c.2842.1312.5585.2626.8325.3841.2742.1314.5485.2628.8224.3843.4064.1973.8125.3847,1.1983.5627.5179.2438,1.0259.4879,1.4931.7133.244.1224.4677.2355.691.3385.3355.1696.6604.3194.9552.4702.295.1508.5795.292.8238.4243.25431.1321.48831.2548.692.3685a6.6647,6.6647,0,0,1,.8674.543c.07191.0578.1441.1255.2162.1933a5.18641,5.18641,0,0,1,.6233.7308c.1259.1861.2521.3823.379.5984.1065.2067.2237.4331.3309.6599a10.878,10.878,0,0,1,.3928,1.0382c.0672.228.1244.4563.1816.6846A4.03026,4.03026,0,0,1,297.47009,437.2635Z" transform="translate(-78.0508 -178.7733)"/><path class="cls-5" d="M248.49259,434.9314c.0422.3889.0832.7378.1329,1.0464C248.57579,435.6692,248.52449,435.3106,248.49259,434.9314Z" transform="translate(-78.0508 -178.7733)"/><path class="cls-5" d="M248.63679,436.0174a7.61738,7.61738,0,0,0,.4639,1.7063,3.98091,3.98091,0,0,1-.4752-1.7459C248.62609,435.9978,248.62649,436.0078,248.63679,436.0174Z" transform="translate(-78.0508 -178.7733)"/><polygon class="cls-5" points="198.409 243.543 198.429 243.542 198.424 244.033 198.409 243.543"/><path class="cls-5" d="M297.17809,437.8429a.70075.70075,0,0,1-.3135.21,9.71882,9.71882,0,0,1-1.4065.1342,9.06178,9.06178,0,0,0,1.4062-.1442A.80323.80323,0,0,0,297.17809,437.8429Z" transform="translate(-78.0508 -178.7733)"/><path class="cls-4" d="M296.34939,436.3268c-7.4986-.1429-37.757-.0119-45.1803.4165-.0604.0036-.0603.0445.0004.0471,7.4293.3042,37.6856-.0721,45.181-.3407C296.50829,436.444,296.50769,436.3299,296.34939,436.3268Z" transform="translate(-78.0508 -178.7733)"/><path class="cls-4" d="M237.49169,300.0844c.0067.0199,7.9035,48.1176,7.9832,49.2537.0333.4452.3189,71.1688.3189,71.1688l31.75621-.1307s-1.04191-65.6421-1.53361-72.4392c-.0598-.7907-7.0111-50.9555-16.4525-78.6486h-36.0265s.3133,16.271,7.7132,28.0383A60.9704,60.9704,0,0,1,237.49169,300.0844Z" transform="translate(-78.0508 -178.7733)"/><path class="cls-5" d="M242.30259,302.2964c-1.7714-.9655-3.5851-1.836-5.4409-2.6281-1.8643-.7956-3.7599-1.5144-5.6111-2.3416-.0705-.0316-.1293.0701-.0587.1065,1.8176.9388,3.6034,1.9459,5.4467,2.8343a43.42672,43.42672,0,0,0,5.5845,2.2312C242.34279,302.5371,242.40989,302.355,242.30259,302.2964Z" transform="translate(-78.0508 -178.7733)"/><path class="cls-5" d="M276.30319,414.64c-4.83919-.2596-24.2473-.3129-29.0845-.0038a.07817.07817,0,0,0,.0038.1562c4.8414.3082,24.2493.256,29.0844-.0041A.07422.07422,0,0,0,276.30319,414.64Z" transform="translate(-78.0508 -178.7733)"/><path class="cls-5" d="M246.31789,360.7313c-.0368-3.297-.14389-6.5834-.5007-9.8633-.3466-3.1869-.808-6.3631-1.2549-9.5372-.9017-6.4033-1.80829-12.8084-2.894-19.1836-1.2296-7.2195-2.46329-14.4607-4.0714-21.6066-.05189-.2302-.3797-.1176-.3441.1041,1.0418,6.4857,2.2449,12.9446,3.27821,19.4326,1.01779,6.3905,2.01969,12.7837,2.92489,19.1913a157.63019,157.63019,0,0,1,1.9358,19.256c.1137,6.5074.1237,13.0175.2207,19.5254.1095,7.3454-.1837,14.7212.0237,22.0639a.07817.07817,0,0,0,.1562-.0039c.07071-6.5598.6572-13.1536.6404-19.7144C246.416,373.8407,246.39089,367.2859,246.31789,360.7313Z" transform="translate(-78.0508 -178.7733)"/><path class="cls-5" d="M271.13789,386.4564c-.01889-8.2221-.0275-16.4463-.1234-24.6679-.048-4.1191-.1766-8.2357-.57749-12.3373-.39291-4.0203-.99031-8.0166-1.60371-12.008q-1.87635-12.2097-3.765-24.4174c-1.39829-9.0679-2.8324-18.1289-4.3886-27.1708-.0229-.1331-.2551-.0974-.237.038,2.19131,16.3195,4.7581,32.5874,7.2341,48.8658.6079,3.9964,1.2323,7.9919,1.6966,12.0082.4641,4.0135.7081,8.0376.788,12.0763.1625,8.2103.118,16.4265.2005,24.638.0928,9.2252.1059,18.4651.4775,27.6839a.07817.07817,0,0,0,.1562-.0038C271.22519,402.9321,271.15689,394.6884,271.13789,386.4564Z" transform="translate(-78.0508 -178.7733)"/><path class="cls-13" d="M240.12869,233.1723c.31631,15.7983,5.3519,32.5315,7.6166,35.2683,3.509,4.2403,23.4868,12.7737,30.5335,13.9447,2.307.3834,5.9505-15.3298,4.2721-17.1833-1.6783-1.8534-21.7424-7.9211-22.9521-8.8594-.6449-.5002-7.8053-15.9879-11.982-24.1956C243.72249,224.4941,240.03269,228.376,240.12869,233.1723Z" transform="translate(-78.0508 -178.7733)"/><path class="cls-13" d="M276.29989,263.0392a60.93692,60.93692,0,0,1,8.0016-4.0812c2.6572-.8856,13.77551-.5419,13.8376,1.8635.0802,3.1059-6.3773,4.1718-9.6083,4.2805,0,0,.19221,7.1844-4.2767,8.9523C279.78529,275.8221,276.29989,263.0392,276.29989,263.0392Z" transform="translate(-78.0508 -178.7733)"/><path class="cls-13" d="M278.14859,282.3581c2.2663.753,12.9555,3.2883,16.0883,3.3285,3.1325.04,12.1555-.4979,12.4298-2.8939.27431-2.3961-2.38-2.4496-2.38-2.4496s3.7742-.8305,3.8304-3.2673c.0563-2.4367-4.0754-2.3847-4.0754-2.3847s3.8137-1.1356,3.696-3.5702c-.1176-2.4344-4.2634-1.6863-4.2634-1.6863s3.5354-.8756,2.5943-2.8407c-1.1318-2.3638-7.4671-.0132-10.9221-.3168-.7846-.0688-15.8029-2.5303-15.8029-2.5303Z" transform="translate(-78.0508 -178.7733)"/><path class="cls-4" d="M303.83089,269.3775c-4.663,1.7176-7,1.6624-11.7843.6421-.0934-.0202-.1442.1145-.0485.1442,4.594,1.4257,7.5157,1.9179,11.9278-.5647C304.14169,269.4777,304.05279,269.2959,303.83089,269.3775Z" transform="translate(-78.0508 -178.7733)"/><path class="cls-4" d="M304.40969,274.5482c-4.999,1.361-7.5345,1.3234-12.624.6231-.0721-.0098-.0964.111-.0244.1271,4.9352,1.1047,7.8613,1.5286,12.6774-.4873C304.65669,274.72,304.63829,274.4858,304.40969,274.5482Z" transform="translate(-78.0508 -178.7733)"/><path class="cls-4" d="M304.02889,280.2994c-4.93489.9682-7.7166,1.0471-12.5704-.2671a.09249.09249,0,0,0-.0587.1753,16.682,16.682,0,0,0,12.6425.2449C304.33919,280.35,304.33929,280.2384,304.02889,280.2994Z" transform="translate(-78.0508 -178.7733)"/><path class="cls-4" d="M297.88139,261.6824c-1.9701,2.8849-6.2205,2.7542-9.3469,3.0939a.28759.28759,0,0,0-.245.4042c-.1206,3.0166-1.1688,7.2369-3.8547,8.952a.07284.07284,0,0,0,.0677.1289c3.1303-1.4482,4.4988-5.5106,4.4191-8.8233,3.2117-.2983,7.4801-.3542,8.98841-3.7381A.0168.0168,0,0,0,297.88139,261.6824Z" transform="translate(-78.0508 -178.7733)"/><path class="cls-6" d="M254.07729,244.0736l-14.1835,5.9554s-1.8865-12.3176-.3842-19.0248c1.5022-6.7072,4.4226-5.065,7.1742-.8321S254.07729,244.0736,254.07729,244.0736Z" transform="translate(-78.0508 -178.7733)"/><path class="cls-4" d="M252.41509,242.1529c.0941-.0368.0976-.1137.0034-.0801a103.56745,103.56745,0,0,0-11.9068,4.9916c-.0282.0159-.0049.0567.0238.0488C242.58459,246.5422,251.38149,242.5572,252.41509,242.1529Z" transform="translate(-78.0508 -178.7733)"/><path class="cls-13" d="M247.67809,233.4975c-1.9123.3751-6.4534-2.622-8.4699-5.4204-.13719-.1925-.0911-2.4014-.162-5.0881-.0495-1.6302-.143-3.4443-.3478-5.0934-.0437-.3384,1.1862.1405,1.1862.1405l2.1982.2505,7.2711.8371a26.48983,26.48983,0,0,0-.2127,6.4564,3.73614,3.73614,0,0,0,.1552.6679c.0073.0307.021.0672.0288.1102C249.69459,227.6177,250.67229,232.9101,247.67809,233.4975Z" transform="translate(-78.0508 -178.7733)"/><path class="cls-4" d="M249.29639,226.248c.0073.0307.021.0672.0288.1102a6.5866,6.5866,0,0,1-1.0561.1884c-6.9839.7099-8.9539-8.0375-8.9539-8.0375l2.7676-.2225,7.2711.8371a26.48983,26.48983,0,0,0-.2127,6.4564A3.73614,3.73614,0,0,0,249.29639,226.248Z" transform="translate(-78.0508 -178.7733)"/><path class="cls-14" d="M241.95579,223.4426l-.00079-.004" transform="translate(-78.0508 -178.7733)"/><path class="cls-13" d="M236.77659,203.9406c-1.1183,3.6987.8605,14.3698,3.4951,16.7436,3.8196,3.4411,10.05931,3.7551,12.9796-.833,2.8308-4.4474.0058-18.3089-2.9359-20.4645C245.98269,196.2117,238.42859,198.4773,236.77659,203.9406Z" transform="translate(-78.0508 -178.7733)"/><path class="cls-4" d="M247.81569,210.0787c-.01169-.0258-.0481.0465-.0405.0756.1836.7079.2745,1.5496-.31719,1.9319-.01841.0118-.00821.0472.015.0386C248.23529,211.8362,248.10309,210.72,247.81569,210.0787Z" transform="translate(-78.0508 -178.7733)"/><path class="cls-4" d="M247.01079,209.4778c-1.1665.1718-.7371,2.4924.3436,2.3332C248.41819,211.6543,247.98869,209.3338,247.01079,209.4778Z" transform="translate(-78.0508 -178.7733)"/><path class="cls-4" d="M251.61719,209.2446c.0004-.0285.0626.0236.0671.0531.1103.7231.3581,1.5325,1.0525,1.651.0216.0036.0263.0402.0015.0411C251.92409,211.025,251.60569,209.9471,251.61719,209.2446Z" transform="translate(-78.0508 -178.7733)"/><path class="cls-4" d="M252.12029,208.3751c1.13971-.3016,1.6592,2.0004.6033,2.2796C251.68429,210.93,251.16469,208.6278,252.12029,208.3751Z" transform="translate(-78.0508 -178.7733)"/><path class="cls-4" d="M245.89879,208.5863a9.19379,9.19379,0,0,0,.84021-.4829,1.566,1.566,0,0,0,.76279-.6557.49934.49934,0,0,0-.18879-.5794,1.23781,1.23781,0,0,0-1.24981.1015,1.81724,1.81724,0,0,0-.8867.9638A.53227.53227,0,0,0,245.89879,208.5863Z" transform="translate(-78.0508 -178.7733)"/><path class="cls-4" d="M252.76039,207.3216a9.20091,9.20091,0,0,1-.96639-.0686,1.56588,1.56588,0,0,1-.97231-.2579.49888.49888,0,0,1-.0825-.6039,1.23742,1.23742,0,0,1,1.1689-.4529,1.81718,1.81718,0,0,1,1.2183.4811A.53236.53236,0,0,1,252.76039,207.3216Z" transform="translate(-78.0508 -178.7733)"/><path class="cls-4" d="M247.96339,216.9727c.2034.1365.418.3364.6828.3101a1.93009,1.93009,0,0,0,.7393-.3238.0256.0256,0,0,1,.038.031.98409.98409,0,0,1-.8402.5591.77815.77815,0,0,1-.683-.531C247.88159,216.9783,247.93379,216.9529,247.96339,216.9727Z" transform="translate(-78.0508 -178.7733)"/><path class="cls-4" d="M248.32069,214.6808a2.48856,2.48856,0,0,0,1.8352.7867,3.13208,3.13208,0,0,0,.8878-.1226.89032.89032,0,0,0,.1646-.0505c.0513-.0161.0975-.0309.1531-.0533a.18227.18227,0,0,0,.1145-.1876l-.0011-.0052a.3548.3548,0,0,0-.0204-.0724l-.0011-.0053-.013-.0628c-.0872-.5562-.2967-1.388-.2967-1.388.221.0638,1.3378.3369,1.268.0507a37.45955,37.45955,0,0,0-2.3203-7.2315.06773.06773,0,0,0-.1278.0427c.473,2.2973,1.3468,4.4959,1.8588,6.796a4.36216,4.36216,0,0,0-1.2202-.1368c-.0743.0372.4336,1.6003.4527,1.8532a.09249.09249,0,0,1,.00021.0273,3.45054,3.45054,0,0,1-2.679-.3177C248.31489,214.5727,248.26689,214.6316,248.32069,214.6808Z" transform="translate(-78.0508 -178.7733)"/><path class="cls-4" d="M250.66539,215.1247a2.954,2.954,0,0,1-.9959,1.1162,1.32848,1.32848,0,0,1-.7844.1962c-.602-.0445-.7137-.5686-.6918-1.0389a3.17986,3.17986,0,0,1,.1296-.7376A3.824,3.824,0,0,0,250.66539,215.1247Z" transform="translate(-78.0508 -178.7733)"/><path class="cls-7" d="M249.66949,216.2409a1.32848,1.32848,0,0,1-.7844.1962c-.602-.0445-.7137-.5686-.6918-1.0389A1.3724,1.3724,0,0,1,249.66949,216.2409Z" transform="translate(-78.0508 -178.7733)"/><path class="cls-4" d="M252.09689,202.09c-.16-.3-.59-1.05-1.01-1.02-.53.03-.8.93-1.76,1.29-1.35.52-3.93-.78-5.8-.08-1.82.68-2.83589,2.6232-2.8913,6.0679-.0555,3.4502-2.4887,6.4421-3.4587,4.2721q-.045-.12-.18-.42c-.59-3.24-.75-6.52-.22-8.26,1.65-5.46,9.21-7.73,13.54-4.55A6.71072,6.71072,0,0,1,252.09689,202.09Z" transform="translate(-78.0508 -178.7733)"/><path class="cls-13" d="M239.08079,212.6357s-2.4916-3.3969-4.0384-2.5008c-1.5467.8961.3815,5.8583,2.2357,6.5012a1.87046,1.87046,0,0,0,2.4828-1.0619Z" transform="translate(-78.0508 -178.7733)"/><path class="cls-4" d="M235.63049,211.5436a.0254.0254,0,0,0-.0086.0494,4.72712,4.72712,0,0,1,2.5102,2.9019,1.03261,1.03261,0,0,0-1.551-.2473c-.033.0249.0004.0767.0365.0682a1.15032,1.15032,0,0,1,1.275.3727,5.56144,5.56144,0,0,1,.62941,1.0103c.06289.1138.26969.0475.22279-.0843l-.0112-.0296C238.72889,213.9405,237.399,211.669,235.63049,211.5436Z" transform="translate(-78.0508 -178.7733)"/><path class="cls-3" d="M253.47629,202.6388s-3.1898-10.2612-12.3619-7.489c-9.1722,2.7722-6.14439,13.0824-6.14439,13.0824Z" transform="translate(-78.0508 -178.7733)"/><rect class="cls-3" x="233.83744" y="204.67409" width="20.77142" height="1.52293" transform="translate(459.38672 152.65448) rotate(163.183)"/><polygon class="cls-3" points="166.1 25.889 170.24 24.637 166.218 14.849 162.078 16.1 166.1 25.889"/><polygon class="cls-8" points="166.1 25.889 170.24 24.637 166.218 14.849 162.078 16.1 166.1 25.889"/><path class="cls-3" d="M217.44929,284.1894c.1048.1218,46.2675,1.0083,46.6956.5412.598-.6578-6.9421-46.9341-14.2818-57.0215-1.8354-2.5224-8.384-4.2466-11.1115-1.6873-7.9014,7.4143-9.5557,13.6489-11.6137,18.7419a149.58514,149.58514,0,0,0-5.031,16.8129C219.35449,272.4523,217.076,283.7494,217.44929,284.1894Z" transform="translate(-78.0508 -178.7733)"/><path class="cls-6" d="M262.49,272.75H219.47c.24-1.11.5-2.28.78-3.47h41.61C262.08,270.48,262.29,271.64,262.49,272.75Z" transform="translate(-78.0508 -178.7733)"/><path class="cls-6" d="M263.48,278.85H218.2c.2-1.04.44-2.21.7-3.47h44.03C263.14,276.64,263.33,277.8,263.48,278.85Z" transform="translate(-78.0508 -178.7733)"/><path class="cls-13" d="M245.67909,233.8959c5.9378,10.9185,18.7652,22.4858,25.3286,22.4466,10.3157-.0618,23.5319-4.734,28.7128-8.1168,3.024-1.9744-8.6257-18.7696-11.3983-17.1494-4.3739,2.556-15.1931,8.2484-16.982,8.75-1.7889.5014-11.8656-6.4765-19.7233-11.0847C243.07479,223.7319,242.65639,228.3378,245.67909,233.8959Z" transform="translate(-78.0508 -178.7733)"/><path class="cls-13" d="M298.28869,249.0237c9.794-5.1247,16.4938-15.4011,17.2428-17.3781.6434-1.682.95851-2.5551.95851-2.5551,1.21279-2.9949.36339-4.7127.36339-4.7127s2.4213-3.0503.8207-4.8198c-1.789-1.9898-4.8394,2.6833-8.0884,4.2273-7.4442,3.5377-19.0151,6.4841-21.2635,7.291Z" transform="translate(-78.0508 -178.7733)"/><path class="cls-4" d="M304.38979,232.9752a53.04,53.04,0,0,0,6.3419-3.4666,53.22332,53.22332,0,0,0,6.0302-5.1314.06433.06433,0,0,1,.09411.0876,28.09823,28.09823,0,0,1-12.37991,8.7022C304.36489,233.2049,304.28079,233.0297,304.38979,232.9752Z" transform="translate(-78.0508 -178.7733)"/><path class="cls-4" d="M305.872,237.7787a39.05791,39.05791,0,0,0,10.55969-8.7414c.016-.0179.0515.0036.0365.0256a25.20592,25.20592,0,0,1-10.4714,8.9183C305.86209,238.0438,305.73559,237.8567,305.872,237.7787Z" transform="translate(-78.0508 -178.7733)"/><path class="cls-13" d="M300.34589,227.4803c-1.152.0766-1.19989-.5274.3254-1.9001,1.5402-1.3924,8.7285-5.5123,7.072-7.9028-1.6578-2.402-11.7345,3.5957-14.0995,6.0764a54.43822,54.43822,0,0,0-5.3216,7.3225C290.51739,230.304,296.02009,228.9396,300.34589,227.4803Z" transform="translate(-78.0508 -178.7733)"/><path class="cls-6" d="M263.274,235.1464l-8.942,12.5171s-8.07471-9.4912-10.31891-15.9878c-2.2443-6.4966,1.1033-6.633,5.668-4.476C254.24579,229.3566,263.274,235.1464,263.274,235.1464Z" transform="translate(-78.0508 -178.7733)"/><path class="cls-4" d="M260.85069,234.3849c.0607-.0808.0234-.148-.0391-.07a103.55574,103.55574,0,0,0-7.5108,10.5013c-.0157.0283.0256.0508.0458.029C254.79049,243.2831,260.18339,235.2718,260.85069,234.3849Z" transform="translate(-78.0508 -178.7733)"/></g></svg>