<svg xmlns="http://www.w3.org/2000/svg" viewBox="0 0 405.98649 291.4954"><defs><style>.cls-1,.cls-2{fill:#263238;}.cls-2,.cls-3,.cls-4,.cls-5,.cls-6,.cls-7{stroke:#263238;stroke-linecap:round;stroke-linejoin:round;}.cls-3,.cls-6{fill:#fff;}.cls-4{fill:#c6ff00;}.cls-5,.cls-7{fill:none;}.cls-6{stroke-width:0.5px;}.cls-7{stroke-width:4px;}</style></defs><g id="Machine"><path class="cls-1" d="M216.215,305.0177l1.285-.5855-.272-1.5429-1.41781-.11a6.20852,6.20852,0,0,0-.7095-1.3435l.7309-1.2344-1.1078-1.1078-1.2443.7387a6.19455,6.19455,0,0,0-2.3756-.9695l-.3596-1.4212h-1.5667l-.3608,1.4303a6.17862,6.17862,0,0,0-1.4087.4475L206.288,298.35l-1.28341.8986.529,1.386a6.25452,6.25452,0,0,0-.8999,1.1675l-1.475-.152-.5359,1.4722,1.2211.8283a6.26651,6.26651,0,0,0-.0881,1.0401c0,.1482.0071.2947.01721.4402l-1.28491.7173.4055,1.5133,1.4545-.0187a6.234,6.234,0,0,0,.7986,1.2703l-.6278,1.3045,1.2002,1.007,1.1631-.833a6.186,6.186,0,0,0,1.4011.5915l.2331,1.403,1.5608.1366.4707-1.3286a6.19535,6.19535,0,0,0,1.5022-.3252l.9848,1.0007,1.3568-.7833-.3726-1.3495a6.2602,6.2602,0,0,0,1.0424-1.1361l1.3784.2541.66211-1.4199-1.08121-.8929A6.24681,6.24681,0,0,0,216.215,305.0177Zm-2.31751-.027a3.9118,3.9118,0,1,1-3.9118-3.9118A3.91177,3.91177,0,0,1,213.89749,304.9907Z" transform="translate(-53.1092 -97.9396)"/><path class="cls-1" d="M328.16489,305.0177l1.285-.5855-.272-1.5429-1.4177-.11a6.2137,6.2137,0,0,0-.7096-1.3435l.7309-1.2344-1.1078-1.1078-1.2443.7387a6.19481,6.19481,0,0,0-2.3755-.9695l-.3597-1.4212h-1.5667l-.3607,1.4303a6.17777,6.17777,0,0,0-1.40879.4475l-1.12011-.9694-1.2833.8986.529,1.386a6.2508,6.2508,0,0,0-.9,1.1675l-1.475-.152-.5359,1.4722,1.2211.8283a6.26545,6.26545,0,0,0-.088,1.0401c0,.1482.007.2947.01721.4402l-1.285.7173.40559,1.5133,1.45441-.0187a6.23394,6.23394,0,0,0,.79859,1.2703l-.6278,1.3045,1.20021,1.007,1.16309-.833a6.186,6.186,0,0,0,1.4011.5915l.2331,1.403,1.5608.1366.4707-1.3286A6.19543,6.19543,0,0,0,324,310.8689l.98479,1.0007,1.3568-.7833-.37259-1.3495a6.2605,6.2605,0,0,0,1.04239-1.1361l1.3784.2541.66221-1.4199-1.08131-.8929A6.24146,6.24146,0,0,0,328.16489,305.0177Zm-2.3175-.027a3.91175,3.91175,0,1,1-3.9117-3.9118A3.91175,3.91175,0,0,1,325.84739,304.9907Z" transform="translate(-53.1092 -97.9396)"/><rect class="cls-2" x="213.3908" y="200.0733" width="10" height="50.7413"/><rect class="cls-3" x="206.39939" y="217.3695" width="23.9828" height="70.159"/><rect class="cls-3" x="216.60509" y="217.3695" width="3.5714" height="70.159"/><rect class="cls-4" x="117.8908" y="198.0296" width="250.83329" height="8.6666"/><line class="cls-5" x1="149.01209" y1="198.5425" x2="149.01209" y2="206.659"/><line class="cls-5" x1="157.35399" y1="198.5425" x2="157.35399" y2="206.659"/><line class="cls-5" x1="165.69599" y1="198.5425" x2="165.69599" y2="206.659"/><line class="cls-5" x1="174.03799" y1="198.5425" x2="174.03799" y2="206.659"/><line class="cls-5" x1="182.37999" y1="198.5425" x2="182.37999" y2="206.659"/><line class="cls-5" x1="190.72189" y1="198.5425" x2="190.72189" y2="206.659"/><line class="cls-5" x1="199.06389" y1="198.5425" x2="199.06389" y2="206.659"/><line class="cls-5" x1="207.40589" y1="198.5425" x2="207.40589" y2="206.659"/><line class="cls-5" x1="215.74789" y1="198.5425" x2="215.74789" y2="206.659"/><line class="cls-5" x1="224.0898" y1="198.5425" x2="224.0898" y2="206.659"/><line class="cls-5" x1="232.4318" y1="198.5425" x2="232.4318" y2="206.659"/><line class="cls-5" x1="240.7738" y1="198.5425" x2="240.7738" y2="206.659"/><line class="cls-5" x1="249.1158" y1="198.5425" x2="249.1158" y2="206.659"/><line class="cls-5" x1="257.45769" y1="198.5425" x2="257.45769" y2="206.659"/><line class="cls-5" x1="265.79969" y1="198.5425" x2="265.79969" y2="206.659"/><line class="cls-5" x1="274.14169" y1="198.5425" x2="274.14169" y2="206.659"/><line class="cls-5" x1="282.48369" y1="198.5425" x2="282.48369" y2="206.659"/><line class="cls-5" x1="290.82559" y1="198.5425" x2="290.82559" y2="206.659"/><line class="cls-5" x1="299.16759" y1="198.5425" x2="299.16759" y2="206.659"/><line class="cls-5" x1="307.50959" y1="198.5425" x2="307.50959" y2="206.659"/><polygon class="cls-3" points="134.201 132.963 49.424 132.963 10.739 183.17 10.739 287.529 134.201 287.529 134.201 201.69 134.201 132.963"/><rect class="cls-2" x="131.2241" y="131.3629" width="7.3334" height="84"/><circle class="cls-2" cx="28.6408" cy="216.4462" r="4.25"/><circle class="cls-2" cx="28.6408" cy="237.9462" r="4.25"/><polyline class="cls-5" points="41.891 287.196 41.891 198.696 66.891 198.696 66.891 133.196"/><line class="cls-5" x1="41.5895" y1="271.6962" x2="10.8266" y2="271.6962"/><rect class="cls-3" x="46.2241" y="242.6962" width="5" height="5"/><rect class="cls-3" x="53.8908" y="242.6962" width="5" height="5"/><rect class="cls-3" x="61.5575" y="242.6962" width="5" height="5"/><rect class="cls-3" x="46.2241" y="252.0296" width="5" height="5"/><rect class="cls-3" x="53.8908" y="252.0296" width="5" height="5"/><rect class="cls-3" x="61.5575" y="252.0296" width="5" height="5"/><rect class="cls-3" x="46.2241" y="261.3629" width="5" height="5"/><rect class="cls-3" x="53.8908" y="261.3629" width="5" height="5"/><rect class="cls-3" x="61.5575" y="261.3629" width="5" height="5"/></g><g id="Character_1" data-name="Character 1"><path class="cls-3" d="M141.8893,375.3886a18.65268,18.65268,0,0,0,4.754,4.3013c2.4902,1.3583,6.7915,2.9429,6.7915,4.0748v1.1319H133.5132l.2264-9.9607Z" transform="translate(-53.1092 -97.9396)"/><path class="cls-3" d="M133.5132,384.8966h19.9216v-1.1319c0-.327-.3663-.6927-.9372-1.079H133.5635Z" transform="translate(-53.1092 -97.9396)"/><path class="cls-2" d="M139,298.6358s.6667,25.6667.6667,28.6667-3,9-3.6667,15-2.2604,32.6334-2.2604,32.6334h8s5.5937-27.3001,8.5937-39.6334,5-42.3333,5-42.3333H140Z" transform="translate(-53.1092 -97.9396)"/><path class="cls-2" d="M135.4009,278.9502s-.4527,11.0927.9055,14.9412c1.3583,3.8485,3.3958,11.319,3.3958,11.319s2.4902,18.5633,2.4902,21.5063c0,2.9429-2.943,10.6399-2.943,16.7522s2.4902,31.467,2.4902,31.467l8.1497.4527s4.5276-31.2406,6.5651-42.786c2.0374-11.5455,2.2638-28.9768,1.5846-34.41-.6791-5.4331-.4527-18.7896-.4527-18.7896Z" transform="translate(-53.1092 -97.9396)"/><polygon class="cls-2" points="114.738 175.443 109.219 168.391 125.776 155.514 134.362 161.799 114.738 175.443"/><polygon class="cls-6" points="115.595 173.864 110.746 167.668 125.292 156.354 132.835 161.877 115.595 173.864"/><path class="cls-3" d="M164.0149,260.0454s3.6794-2.2996,4.9058-2.4529c1.2265-.1533,6.2856.4599,6.5923,1.0731.3066.6132,0,1.3798-.6133,1.3798-.6132,0-4.7525-.9199-4.7525-.9199l-2.7595,2.2997s5.6723-.1534,5.6723.7665c0,.9198-1.533,1.0731-2.2996.9198a29.58707,29.58707,0,0,0-3.526-.1533c-.46,0-2.6063,1.5331-4.2926,1.5331h-2.6063l-.6132-2.2996Z" transform="translate(-53.1092 -97.9396)"/><polygon class="cls-3" points="107.226 166.552 97.415 169.618 97.875 164.252 106.613 164.252 107.226 166.552"/><path class="cls-4" d="M153.0587,238.8807s4.0748,8.8289,4.5276,15.6203c.4527,6.7915,1.5847,22.1854,1.811,23.5437.2264,1.3583-1.811,2.7166-2.4902,2.943-.6791.2263-17.4313.9055-19.4687.4527-2.0375-.4527-4.5277-3.6221-4.5277-5.2068,0-1.5846,2.7166-32.8252,2.943-35.9946.2264-3.1693,7.6527-8.3061,7.6527-8.3061Z" transform="translate(-53.1092 -97.9396)"/><polygon class="cls-3" points="89.363 119.098 91.845 126.959 90.397 133.993 98.259 140.613 101.982 132.338 101.775 117.029 89.363 119.098"/><polygon class="cls-3" points="93.914 123.236 89.156 125.511 90.19 127.994 94.742 125.718 93.914 123.236"/><path class="cls-3" d="M162.1254,215.5896l1.0344,4.5513s2.2757,1.655,1.655,2.4825a14.47866,14.47866,0,0,1-1.8619,1.8619s-1.4481,6.827-2.4825,7.0339a13.39054,13.39054,0,0,1-7.0338-1.0344c-2.2757-1.2413-4.7582-5.7926-4.7582-5.7926l-.4138-8.0682Z" transform="translate(-53.1092 -97.9396)"/><path class="cls-3" d="M154.0916,217.5864l.642,3.4667s6.9334.7703,8.9877-.5136c2.0543-1.284.8988-4.7507,0-5.2643C162.8225,214.7617,154.0916,217.5864,154.0916,217.5864Z" transform="translate(-53.1092 -97.9396)"/><path class="cls-4" d="M141.8514,218.0721l27.3079-2.6894-5.172-2.2756-3.1031-8.482a3.62484,3.62484,0,0,0-2.4826-.8275c-1.655,0-8.482-1.6551-12.4126.6206C142.0583,206.6939,140.4032,209.5901,141.8514,218.0721Z" transform="translate(-53.1092 -97.9396)"/><polygon class="cls-2" points="101.624 123.114 90.711 122.6 90.197 121.059 100.982 119.647 101.624 123.114"/><path class="cls-3" d="M148.7818,225.3129h0a2.99977,2.99977,0,0,1-2.9997-2.9998v-2.2756a2.99977,2.99977,0,0,1,2.9997-2.9998h0a2.99977,2.99977,0,0,1,2.9997,2.9998v2.2756A2.99977,2.99977,0,0,1,148.7818,225.3129Z" transform="translate(-53.1092 -97.9396)"/><polygon class="cls-3" points="88.913 131.074 101.239 139.035 100.34 143.657 87.758 134.798 88.913 131.074"/><path class="cls-4" d="M140.8341,240.239s-2.0375-.4527-3.1694,2.4902c-1.1319,2.943-2.0374,35.5419-1.5846,37.3529a5.10931,5.10931,0,0,0,4.3012,3.3957c1.5847,0,27.6185-10.4135,27.6185-10.4135l-.6791-2.9429-21.5062.9055,2.0374-21.5062" transform="translate(-53.1092 -97.9396)"/><path class="cls-3" d="M167.3207,270.1214s3.593-2.8706,4.053-3.9437c.4599-1.0732,3.526-1.5331,3.9859-1.6864.46-.1533,1.0732-1.0732,1.5331-.6132.4599.4599,0,1.533-.4599,1.6863-.4599.1534-2.9128,1.5331-2.9128,1.5331l5.6723-.4599a1.04935,1.04935,0,0,1,.3066,1.2265c-.3066.7665-1.6863,1.3797-1.6863,1.3797s-1.2265,1.0732-2.453,1.993c-1.2264.9199-7.3598,1.8275-7.3598,1.8275Z" transform="translate(-53.1092 -97.9396)"/><path class="cls-3" d="M149.8893,375.3886a18.65268,18.65268,0,0,0,4.754,4.3013c2.4902,1.3583,6.7915,2.9429,6.7915,4.0748v1.1319H141.5132l.2264-9.9607Z" transform="translate(-53.1092 -97.9396)"/><path class="cls-3" d="M141.5132,384.8966h19.9216v-1.1319c0-.327-.3663-.6927-.9372-1.079H141.5635Z" transform="translate(-53.1092 -97.9396)"/></g><g id="Box"><rect class="cls-3" x="238.64469" y="172.6783" width="30.22311" height="25.3751"/><rect class="cls-2" x="251.43139" y="172.6783" width="22.0862" height="25.3751"/></g><g id="Mechanic_arm_3" data-name="Mechanic arm 3"><path class="cls-3" d="M319.3417,168.5398h39.2991a13.25,13.25,0,0,1,13.25,13.25v50.75a0,0,0,0,1,0,0h-57.5a0,0,0,0,1,0,0V173.4907A4.9509,4.9509,0,0,1,319.3417,168.5398Z"/><path class="cls-4" d="M310.1408,219.0398h66a6.75,6.75,0,0,1,6.75,6.75v12.25a0,0,0,0,1,0,0h-79.5a0,0,0,0,1,0,0v-12.25A6.75,6.75,0,0,1,310.1408,219.0398Z"/><path class="cls-2" d="M294.6408,236.5398h97a4.25,4.25,0,0,1,4.25,4.25v46.7387a0,0,0,0,1,0,0h-105.5a0,0,0,0,1,0,0V240.7898A4.25,4.25,0,0,1,294.6408,236.5398Z"/><polyline class="cls-5" points="337.008 218.62 337.008 206.43 359.54 206.43 359.54 168.54"/><line class="cls-5" x1="359.54029" y1="190.9161" x2="371.36069" y2="190.9161"/><rect class="cls-3" x="300.72869" y="125.8466" width="45.3333" height="8.6666"/><line class="cls-5" x1="315.19239" y1="134.2857" x2="315.19239" y2="125.7385"/><line class="cls-5" x1="318.21949" y1="134.2857" x2="318.21949" y2="125.7385"/><line class="cls-5" x1="321.24659" y1="134.2857" x2="321.24659" y2="125.7385"/><line class="cls-5" x1="324.27369" y1="134.2857" x2="324.27369" y2="125.7385"/><line class="cls-5" x1="327.30089" y1="134.2857" x2="327.30089" y2="125.7385"/><line class="cls-5" x1="330.32799" y1="134.2857" x2="330.32799" y2="125.7385"/><line class="cls-5" x1="333.35509" y1="134.2857" x2="333.35509" y2="125.7385"/><path class="cls-4" d="M407.50119,230.5557,394.004,279.334a9.1661,9.1661,0,0,1-11.65181,5.6806l-.0001-.0001a9.166,9.166,0,0,1-5.6805-11.6518l13.4972-48.7783a9.16611,9.16611,0,0,1,11.6519-5.6806h0A9.16606,9.16606,0,0,1,407.50119,230.5557Z" transform="translate(-53.1092 -97.9396)"/><polygon class="cls-2" points="274.563 171.702 286.832 164.473 276.433 157.585 274.563 171.702"/><rect class="cls-3" x="344.31402" y="222.42959" width="7.00004" height="33.60683" transform="translate(136.84453 -250.22564) rotate(33.51981)"/><path class="cls-4" d="M334.11517,235.8901H349.075a0,0,0,0,1,0,0v23.702a1.76119,1.76119,0,0,1-1.76119,1.76119H335.87636a1.76119,1.76119,0,0,1-1.76119-1.76119v-23.702a0,0,0,0,1,0,0Z" transform="translate(140.99714 -245.2308) rotate(33.52012)"/><circle class="cls-3" cx="302.72869" cy="129.1799" r="9.5"/><circle class="cls-2" cx="302.72869" cy="129.1799" r="4.5"/><circle class="cls-3" cx="346.06199" cy="129.1799" r="9.5"/><circle class="cls-2" cx="346.06199" cy="129.1799" r="4.5"/><circle class="cls-3" cx="332.29709" cy="178.4035" r="9.5"/><circle class="cls-2" cx="332.29709" cy="178.4035" r="4.5"/><line class="cls-5" x1="271.23319" y1="163.1371" x2="272.71559" y2="167.8806"/><line class="cls-5" x1="265.89669" y1="166.6947" x2="270.04729" y2="169.6595"/><line class="cls-5" x1="278.64499" y1="172.6242" x2="283.68499" y2="172.9206"/><line class="cls-5" x1="275.9768" y1="174.6995" x2="278.94149" y2="180.6289"/><line class="cls-5" x1="280.42389" y1="175.8854" x2="282.49919" y2="177.0713"/></g><g id="Mechanic_arm_2" data-name="Mechanic arm 2"><polyline class="cls-5" points="245.288 0.706 245.288 58.262 240.678 58.262 240.678 0.5"/><line class="cls-7" x1="223.6398" y1="129.8716" x2="223.6398" y2="147.5472"/><line class="cls-7" x1="242.98319" y1="117.605" x2="224.13629" y2="129.4195"/><path class="cls-3" d="M280.53979,227.8112a3.79085,3.79085,0,1,0-3.79079,3.7908A3.79082,3.79082,0,0,0,280.53979,227.8112Z" transform="translate(-53.1092 -97.9396)"/><path class="cls-3" d="M278.54459,227.8112a1.79565,1.79565,0,1,0-1.79559,1.7956A1.79566,1.79566,0,0,0,278.54459,227.8112Z" transform="translate(-53.1092 -97.9396)"/><line class="cls-7" x1="262.20369" y1="129.8716" x2="262.20369" y2="147.5472"/><line class="cls-7" x1="242.86029" y1="117.605" x2="261.70719" y2="129.4195"/><path class="cls-3" d="M311.52209,227.8112a3.79085,3.79085,0,1,1,3.7908,3.7908A3.79082,3.79082,0,0,1,311.52209,227.8112Z" transform="translate(-53.1092 -97.9396)"/><path class="cls-3" d="M313.51729,227.8112a1.79565,1.79565,0,1,1,1.7956,1.7956A1.79566,1.79566,0,0,1,313.51729,227.8112Z" transform="translate(-53.1092 -97.9396)"/><rect class="cls-2" x="238.55269" y="48.4836" width="8.861" height="58.6127"/><path class="cls-4" d="M296.09239,225.6713h0a10.12673,10.12673,0,0,1-10.1267-10.1267V175.6003h20.2534v39.9443A10.12673,10.12673,0,0,1,296.09239,225.6713Z" transform="translate(-53.1092 -97.9396)"/><rect class="cls-3" x="230.63449" y="76.0197" width="24.6974" height="6.1886"/><circle class="cls-3" cx="242.98319" cy="117.605" r="8.017"/><circle class="cls-2" cx="242.98319" cy="117.605" r="3.7975"/><rect class="cls-2" x="234.72429" y="87.1464" width="4.3436" height="18.1886"/><rect class="cls-2" x="246.94049" y="87.1464" width="4.3435" height="18.1886"/></g><g id="Mechanic_arm_1" data-name="Mechanic arm 1"><rect class="cls-3" x="154.73989" y="144.6783" width="30.2231" height="25.3751"/><rect class="cls-2" x="167.52659" y="144.6783" width="22.08621" height="25.3751"/><polyline class="cls-5" points="174.533 0.706 174.533 58.262 169.924 58.262 169.924 0.5"/><line class="cls-7" x1="152.88499" y1="129.8716" x2="152.88499" y2="147.5472"/><line class="cls-7" x1="172.22849" y1="117.605" x2="153.38149" y2="129.4195"/><path class="cls-3" d="M209.78509,227.8112a3.79085,3.79085,0,1,0-3.7909,3.7908A3.79084,3.79084,0,0,0,209.78509,227.8112Z" transform="translate(-53.1092 -97.9396)"/><path class="cls-3" d="M207.78989,227.8112a1.79565,1.79565,0,1,0-1.7957,1.7956A1.79568,1.79568,0,0,0,207.78989,227.8112Z" transform="translate(-53.1092 -97.9396)"/><line class="cls-7" x1="191.44899" y1="129.8716" x2="191.44899" y2="147.5472"/><line class="cls-7" x1="172.10559" y1="117.605" x2="190.95249" y2="129.4195"/><path class="cls-3" d="M240.76739,227.8112a3.79085,3.79085,0,1,1,3.7908,3.7908A3.79082,3.79082,0,0,1,240.76739,227.8112Z" transform="translate(-53.1092 -97.9396)"/><path class="cls-3" d="M242.76259,227.8112a1.79565,1.79565,0,1,1,1.7956,1.7956A1.79566,1.79566,0,0,1,242.76259,227.8112Z" transform="translate(-53.1092 -97.9396)"/><rect class="cls-2" x="167.79799" y="48.4836" width="8.861" height="58.6127"/><path class="cls-4" d="M225.33769,225.6713h0A10.12672,10.12672,0,0,1,215.211,215.5446V175.6003h20.25339v39.9443A10.12673,10.12673,0,0,1,225.33769,225.6713Z" transform="translate(-53.1092 -97.9396)"/><rect class="cls-3" x="159.8798" y="76.0197" width="24.69739" height="6.1886"/><circle class="cls-3" cx="172.22849" cy="117.605" r="8.017"/><circle class="cls-2" cx="172.22849" cy="117.605" r="3.7975"/><rect class="cls-2" x="163.96959" y="87.1464" width="4.3436" height="18.1886"/><rect class="cls-2" x="176.1858" y="87.1464" width="4.34349" height="18.1886"/></g><g id="Ground"><rect class="cls-2" x="0.5" y="286.9523" width="404.98649" height="4.0431"/></g></svg>